<svg width="158" height="235" viewBox="0 0 158 235" fill="none" xmlns="http://www.w3.org/2000/svg">
<g filter="url(#filter0_i_942_8372)">
<rect width="158" height="222" rx="10" fill="url(#paint0_linear_942_8372)"/>
</g>
<rect x="0.5" y="0.5" width="157" height="221" rx="9.5" stroke="url(#paint1_linear_942_8372)"/>
<path d="M39.64 196.192C38.488 196.192 37.5547 195.776 36.84 194.944C36.1253 194.112 35.768 192.944 35.768 191.44C35.768 190.235 35.9973 189.12 36.456 188.096C36.9253 187.061 37.5973 186.229 38.472 185.6C39.3573 184.96 40.3067 184.64 41.32 184.64C42.344 184.64 43.1867 184.843 43.848 185.248C44.52 185.653 44.856 186.187 44.856 186.848C44.856 187.499 44.6747 188.016 44.312 188.4C43.8853 188.4 43.3947 188.315 42.84 188.144C42.2853 187.973 41.8693 187.765 41.592 187.52L41.896 185.968C41.672 185.861 41.4533 185.808 41.24 185.808C40.6213 185.808 40.0773 186.347 39.608 187.424C39.1387 188.491 38.904 189.744 38.904 191.184C38.904 193.339 39.512 194.416 40.728 194.416C41.4533 194.416 42.264 194.021 43.16 193.232L43.912 193.984C43.8267 194.123 43.608 194.352 43.256 194.672C42.904 194.981 42.568 195.232 42.248 195.424C41.9387 195.616 41.544 195.792 41.064 195.952C40.5947 196.112 40.12 196.192 39.64 196.192ZM49.05 195.104C48.7087 195.403 48.2607 195.659 47.706 195.872C47.1513 196.085 46.6447 196.192 46.186 196.192C45.738 196.192 45.37 196.064 45.082 195.808C44.794 195.541 44.65 195.163 44.65 194.672C44.65 194.181 44.9167 192.816 45.45 190.576C45.994 188.325 46.266 186.656 46.266 185.568C46.266 185.333 46.234 185.035 46.17 184.672C47.1727 184.395 48.1433 184.256 49.082 184.256C49.178 184.427 49.226 184.704 49.226 185.088C49.226 185.813 48.954 187.397 48.41 189.84C47.8767 192.272 47.61 193.675 47.61 194.048C47.61 194.421 47.674 194.608 47.802 194.608C47.9087 194.608 48.138 194.539 48.49 194.4L48.666 194.32L49.05 195.104ZM49.56 194.704C49.56 194.256 49.6987 193.52 49.976 192.496C50.264 191.472 50.408 190.843 50.408 190.608C50.408 190.373 50.216 190.032 49.832 189.584L49.864 189.344C50.8347 189.131 51.9707 189.024 53.272 189.024C53.3573 189.205 53.4 189.493 53.4 189.888C53.4 190.283 53.2507 191.029 52.952 192.128C52.664 193.227 52.52 193.877 52.52 194.08C52.52 194.357 52.6533 194.496 52.92 194.496C53.1013 194.496 53.3307 194.427 53.608 194.288C53.64 194.117 53.736 193.669 53.896 192.944C54.2693 191.333 54.456 190.128 54.456 189.328C54.9467 189.115 55.784 189.008 56.968 189.008H57.4C57.4 189.488 57.256 190.427 56.968 191.824C56.6907 193.221 56.5467 194.027 56.536 194.24C56.536 194.453 56.584 194.56 56.68 194.56L57.464 194.352L57.752 195.152C57.4427 195.397 56.9947 195.632 56.408 195.856C55.8213 196.08 55.304 196.192 54.856 196.192C54.1947 196.192 53.784 195.925 53.624 195.392C52.7387 195.925 51.8907 196.192 51.08 196.192C50.0667 196.192 49.56 195.696 49.56 194.704ZM62.9039 184.928C62.9039 185.707 62.6425 187.221 62.1199 189.472C62.7385 189.099 63.3092 188.912 63.8319 188.912C64.3545 188.912 64.8132 189.131 65.2079 189.568C65.6025 190.005 65.7999 190.805 65.7999 191.968C65.7999 193.12 65.4799 194.112 64.8399 194.944C64.2105 195.776 63.4319 196.192 62.5039 196.192C61.9492 196.192 61.3999 196.043 60.8559 195.744C59.7892 196 58.8879 196.128 58.1519 196.128C58.0985 196.096 58.0719 195.915 58.0719 195.584C58.0719 194.805 58.3812 193.136 58.9999 190.576C59.6292 188.016 59.9439 186.277 59.9439 185.36C59.9439 185.125 59.9332 184.901 59.9119 184.688C60.9465 184.4 61.9119 184.256 62.8079 184.256C62.8719 184.363 62.9039 184.587 62.9039 184.928ZM62.4079 190.512C62.2585 190.512 62.0665 190.571 61.8319 190.688C61.3732 192.661 61.1065 193.989 61.0319 194.672C61.2239 194.768 61.3999 194.816 61.5599 194.816C61.9225 194.816 62.2159 194.427 62.4399 193.648C62.6745 192.869 62.7919 192.155 62.7919 191.504C62.7919 190.843 62.6639 190.512 62.4079 190.512ZM74.2595 191.792C73.9608 191.792 73.7422 191.787 73.6035 191.776C73.1768 193.717 72.9635 195.019 72.9635 195.68C72.3662 195.957 71.5822 196.096 70.6115 196.096C70.3448 196.096 70.0888 196.08 69.8435 196.048C69.8435 195.376 70.1368 193.819 70.7235 191.376C71.3102 188.923 71.6035 187.403 71.6035 186.816C71.6035 186.635 71.5395 186.427 71.4115 186.192C71.2942 185.957 71.1715 185.771 71.0435 185.632L70.8675 185.408L70.9315 185.024C71.3368 184.949 72.0195 184.869 72.9795 184.784C73.9502 184.688 74.8408 184.64 75.6515 184.64C76.8462 184.64 77.7315 184.885 78.3075 185.376C78.8835 185.867 79.1715 186.528 79.1715 187.36C79.1715 188.651 78.7555 189.712 77.9235 190.544C77.1022 191.376 75.8808 191.792 74.2595 191.792ZM74.2275 190.416C74.8248 190.416 75.2835 190.075 75.6035 189.392C75.9342 188.709 76.0995 187.888 76.0995 186.928C76.0995 186.149 75.8435 185.76 75.3315 185.76L74.8195 185.824C74.8195 186.24 74.5208 187.771 73.9235 190.416H74.2275ZM86.8036 189.52C86.5796 190.213 86.3876 191.04 86.2276 192C86.0676 192.949 85.9876 193.616 85.9876 194C85.9876 194.373 86.0463 194.56 86.1636 194.56L86.9636 194.336L87.2516 195.136C86.9103 195.403 86.473 195.648 85.9396 195.872C85.417 196.085 84.953 196.192 84.5476 196.192C83.8543 196.192 83.417 195.893 83.2356 195.296C82.393 195.893 81.6463 196.192 80.9956 196.192C80.3556 196.192 79.8596 195.957 79.5076 195.488C79.1556 195.019 78.9796 194.347 78.9796 193.472C78.9796 192.267 79.289 191.205 79.9076 190.288C80.5263 189.371 81.3423 188.912 82.3556 188.912C82.9103 188.912 83.4756 189.067 84.0516 189.376C84.137 189.184 84.2063 189.045 84.2596 188.96C85.0276 188.96 85.8756 189.147 86.8036 189.52ZM81.9876 193.28C81.9876 193.813 82.025 194.149 82.0996 194.288C82.1743 194.427 82.313 194.496 82.5156 194.496C82.7183 194.496 82.9156 194.416 83.1076 194.256C83.1503 193.019 83.353 191.723 83.7156 190.368C83.5556 190.272 83.369 190.224 83.1556 190.224C82.953 190.224 82.7663 190.341 82.5956 190.576C82.4356 190.811 82.313 191.104 82.2276 191.456C82.0676 192.128 81.9876 192.736 81.9876 193.28ZM87.8476 196.096H87.5756C87.5756 195.435 87.725 194.432 88.0236 193.088C88.333 191.744 88.4876 190.971 88.4876 190.768C88.4876 190.565 88.4396 190.368 88.3436 190.176C88.2476 189.984 88.1516 189.84 88.0556 189.744L87.9116 189.6L87.9436 189.36C88.573 189.157 89.6716 189.056 91.2396 189.056C91.3463 189.301 91.421 189.557 91.4636 189.824C92.4343 189.227 93.2503 188.928 93.9116 188.928C94.3596 188.928 94.7116 189.077 94.9676 189.376C95.2236 189.664 95.3516 190.016 95.3516 190.432C95.3516 190.837 95.2343 191.493 94.9996 192.4C94.765 193.307 94.6476 193.899 94.6476 194.176C94.6476 194.443 94.685 194.576 94.7596 194.576L95.6076 194.352L95.8956 195.152C95.5543 195.408 95.1063 195.648 94.5516 195.872C94.0076 196.085 93.5063 196.192 93.0476 196.192C92.141 196.192 91.6876 195.723 91.6876 194.784C91.6876 194.379 91.7996 193.717 92.0236 192.8C92.2476 191.883 92.3596 191.312 92.3596 191.088C92.3596 190.853 92.285 190.736 92.1356 190.736C91.9436 190.736 91.6876 190.843 91.3676 191.056C91.325 191.248 91.2183 191.712 91.0476 192.448C90.7063 193.995 90.5356 195.109 90.5356 195.792C90.013 195.995 89.117 196.096 87.8476 196.096ZM101.827 190.336L100.451 190.224C100.024 192.133 99.7897 193.243 99.747 193.552C99.715 193.861 99.699 194.117 99.699 194.32C99.699 194.512 99.763 194.608 99.891 194.608C100.04 194.608 100.323 194.512 100.739 194.32L101.123 195.088C100.782 195.397 100.35 195.659 99.827 195.872C99.3043 196.085 98.7977 196.192 98.307 196.192C97.827 196.192 97.443 196.069 97.155 195.824C96.867 195.568 96.723 195.211 96.723 194.752C96.723 194.293 96.8563 193.557 97.123 192.544C97.3897 191.531 97.5657 190.779 97.651 190.288C97.395 190.309 97.0163 190.347 96.515 190.4C96.4723 190.176 96.451 189.968 96.451 189.776C96.451 189.573 96.4777 189.349 96.531 189.104H97.811C97.8217 188.965 97.827 188.501 97.827 187.712L97.795 187.056C98.8297 186.715 99.8163 186.544 100.755 186.544C100.83 186.715 100.867 187.013 100.867 187.44C100.867 187.856 100.798 188.411 100.659 189.104H102.099C102.099 189.541 102.008 189.952 101.827 190.336ZM106.545 185.104C106.545 185.851 106.273 187.387 105.729 189.712C106.647 189.189 107.367 188.928 107.889 188.928C108.423 188.928 108.817 189.072 109.073 189.36C109.329 189.637 109.457 189.989 109.457 190.416C109.457 190.832 109.34 191.493 109.105 192.4C108.871 193.296 108.753 193.883 108.753 194.16C108.753 194.437 108.796 194.576 108.881 194.576L109.713 194.352L110.001 195.152C109.671 195.397 109.212 195.632 108.625 195.856C108.049 196.08 107.537 196.192 107.089 196.192C106.225 196.192 105.793 195.701 105.793 194.72C105.793 194.272 105.905 193.611 106.129 192.736C106.353 191.861 106.465 191.312 106.465 191.088C106.465 190.853 106.385 190.736 106.225 190.736C106.001 190.736 105.729 190.843 105.409 191.056C104.929 193.093 104.689 194.512 104.689 195.312L104.705 195.696C103.617 195.984 102.641 196.128 101.777 196.128C101.713 196.096 101.681 195.925 101.681 195.616C101.681 194.955 101.996 193.317 102.625 190.704C103.265 188.091 103.585 186.331 103.585 185.424C103.585 185.147 103.564 184.901 103.521 184.688C104.556 184.4 105.527 184.256 106.433 184.256C106.508 184.437 106.545 184.72 106.545 185.104ZM110.304 193.104C110.304 191.781 110.704 190.752 111.504 190.016C112.315 189.28 113.312 188.912 114.496 188.912C115.318 188.912 115.974 189.093 116.464 189.456C116.966 189.808 117.216 190.283 117.216 190.88C117.216 191.317 117.083 191.707 116.816 192.048C116.55 192.389 116.224 192.651 115.84 192.832C115.03 193.195 114.326 193.413 113.728 193.488L113.328 193.536C113.446 194.24 113.798 194.592 114.384 194.592C114.64 194.592 114.923 194.539 115.232 194.432C115.542 194.315 115.787 194.197 115.968 194.08L116.24 193.92L116.752 194.608C116.752 194.608 116.694 194.667 116.576 194.784C116.512 194.848 116.358 194.976 116.112 195.168C115.878 195.349 115.627 195.509 115.36 195.648C115.104 195.787 114.774 195.909 114.368 196.016C113.963 196.133 113.558 196.192 113.152 196.192C112.246 196.192 111.542 195.931 111.04 195.408C110.55 194.875 110.304 194.107 110.304 193.104ZM113.264 192.48C113.574 192.437 113.883 192.187 114.192 191.728C114.502 191.259 114.656 190.869 114.656 190.56C114.656 190.24 114.566 190.08 114.384 190.08C114.118 190.08 113.872 190.288 113.648 190.704C113.424 191.12 113.296 191.712 113.264 192.48ZM117.737 196.096H117.609C117.577 195.947 117.561 195.717 117.561 195.408C117.561 195.088 117.689 194.272 117.945 192.96C118.212 191.637 118.345 190.891 118.345 190.72C118.345 190.539 118.297 190.357 118.201 190.176C118.105 189.984 118.009 189.84 117.913 189.744L117.769 189.6L117.801 189.36C118.441 189.157 119.502 189.056 120.985 189.056C121.124 189.323 121.209 189.637 121.241 190C121.892 189.275 122.468 188.912 122.969 188.912C123.62 188.912 123.977 189.461 124.041 190.56C124.02 190.581 123.993 190.619 123.961 190.672C123.929 190.715 123.854 190.795 123.737 190.912C123.62 191.029 123.497 191.136 123.369 191.232C123.006 191.477 122.622 191.621 122.217 191.664C122.206 191.664 122.132 191.547 121.993 191.312C121.865 191.077 121.753 190.96 121.657 190.96C121.572 190.96 121.406 191.056 121.161 191.248C121.129 191.44 121.065 191.765 120.969 192.224C120.884 192.683 120.814 193.061 120.761 193.36C120.601 194.149 120.521 194.811 120.521 195.344L120.537 195.824C120.068 196.005 119.134 196.096 117.737 196.096Z" fill="white"/>
<rect x="32.5" y="208.5" width="96" height="26" rx="3.5" fill="url(#paint2_linear_942_8372)" stroke="url(#paint3_linear_942_8372)"/>
<mask id="path-5-outside-1_942_8372" maskUnits="userSpaceOnUse" x="48" y="214" width="64" height="18" fill="black">
<rect fill="white" x="48" y="214" width="64" height="18"/>
<path d="M53.072 222.792C52.7733 222.792 52.5547 222.787 52.416 222.776C51.9893 224.717 51.776 226.019 51.776 226.68C51.1787 226.957 50.3947 227.096 49.424 227.096C49.1573 227.096 48.9013 227.08 48.656 227.048C48.656 226.376 48.9493 224.819 49.536 222.376C50.1227 219.923 50.416 218.403 50.416 217.816C50.416 217.635 50.352 217.427 50.224 217.192C50.1067 216.957 49.984 216.771 49.856 216.632L49.68 216.408L49.744 216.024C50.1493 215.949 50.832 215.869 51.792 215.784C52.7627 215.688 53.6533 215.64 54.464 215.64C55.6587 215.64 56.544 215.885 57.12 216.376C57.696 216.867 57.984 217.528 57.984 218.36C57.984 219.651 57.568 220.712 56.736 221.544C55.9147 222.376 54.6933 222.792 53.072 222.792ZM53.04 221.416C53.6373 221.416 54.096 221.075 54.416 220.392C54.7467 219.709 54.912 218.888 54.912 217.928C54.912 217.149 54.656 216.76 54.144 216.76L53.632 216.824C53.632 217.24 53.3333 218.771 52.736 221.416H53.04ZM62.1281 226.104C61.7868 226.403 61.3388 226.659 60.7841 226.872C60.2295 227.085 59.7228 227.192 59.2641 227.192C58.8161 227.192 58.4481 227.064 58.1601 226.808C57.8721 226.541 57.7281 226.163 57.7281 225.672C57.7281 225.181 57.9948 223.816 58.5281 221.576C59.0721 219.325 59.3441 217.656 59.3441 216.568C59.3441 216.333 59.3121 216.035 59.2481 215.672C60.2508 215.395 61.2215 215.256 62.1601 215.256C62.2561 215.427 62.3041 215.704 62.3041 216.088C62.3041 216.813 62.0321 218.397 61.4881 220.84C60.9548 223.272 60.6881 224.675 60.6881 225.048C60.6881 225.421 60.7521 225.608 60.8801 225.608C60.9868 225.608 61.2161 225.539 61.5681 225.4L61.7441 225.32L62.1281 226.104ZM70.3661 220.52C70.1421 221.213 69.9501 222.04 69.7901 223C69.6301 223.949 69.5501 224.616 69.5501 225C69.5501 225.373 69.6088 225.56 69.7261 225.56L70.5261 225.336L70.8141 226.136C70.4728 226.403 70.0355 226.648 69.5021 226.872C68.9795 227.085 68.5155 227.192 68.1101 227.192C67.4168 227.192 66.9795 226.893 66.7981 226.296C65.9555 226.893 65.2088 227.192 64.5581 227.192C63.9181 227.192 63.4221 226.957 63.0701 226.488C62.7181 226.019 62.5421 225.347 62.5421 224.472C62.5421 223.267 62.8515 222.205 63.4701 221.288C64.0888 220.371 64.9048 219.912 65.9181 219.912C66.4728 219.912 67.0381 220.067 67.6141 220.376C67.6995 220.184 67.7688 220.045 67.8221 219.96C68.5901 219.96 69.4381 220.147 70.3661 220.52ZM65.5501 224.28C65.5501 224.813 65.5875 225.149 65.6621 225.288C65.7368 225.427 65.8755 225.496 66.0781 225.496C66.2808 225.496 66.4781 225.416 66.6701 225.256C66.7128 224.019 66.9155 222.723 67.2781 221.368C67.1181 221.272 66.9315 221.224 66.7181 221.224C66.5155 221.224 66.3288 221.341 66.1581 221.576C65.9981 221.811 65.8755 222.104 65.7901 222.456C65.6301 223.128 65.5501 223.736 65.5501 224.28ZM78.5621 220.024H78.6901C78.6368 220.301 78.5461 220.899 78.4181 221.816C78.1301 223.907 77.8208 225.485 77.4901 226.552C76.6688 229.24 75.3515 230.584 73.5381 230.584C72.9941 230.584 72.5515 230.467 72.2101 230.232C71.8795 230.008 71.7141 229.709 71.7141 229.336C71.7141 228.973 71.7995 228.669 71.9701 228.424C72.1515 228.189 72.4075 227.992 72.7381 227.832C73.3035 227.555 73.9968 227.325 74.8181 227.144C74.9035 226.739 74.9568 226.477 74.9781 226.36C74.1461 226.808 73.3568 227.032 72.6101 227.032C71.5861 227.032 71.0741 226.531 71.0741 225.528C71.0741 225.176 71.1915 224.488 71.4261 223.464C71.6608 222.429 71.7781 221.715 71.7781 221.32C71.7781 220.925 71.7515 220.632 71.6981 220.44C72.9568 220.173 73.9328 220.04 74.6261 220.04C74.7115 220.168 74.7541 220.424 74.7541 220.808C74.7541 221.181 74.6315 221.912 74.3861 223C74.1515 224.088 74.0341 224.728 74.0341 224.92C74.0341 225.251 74.1941 225.416 74.5141 225.416C74.6955 225.416 74.9035 225.368 75.1381 225.272C75.2235 224.728 75.3408 223.901 75.4901 222.792C75.6501 221.672 75.7621 220.904 75.8261 220.488C76.1035 220.36 76.5195 220.253 77.0741 220.168C77.6395 220.072 78.1355 220.024 78.5621 220.024ZM72.8501 229.032C72.8501 229.277 73.0101 229.4 73.3301 229.4C73.4901 229.4 73.6981 229.288 73.9541 229.064C74.2208 228.851 74.4341 228.531 74.5941 228.104C73.4315 228.307 72.8501 228.616 72.8501 229.032ZM82.7874 227.096H82.5154C82.5154 226.456 82.814 224.824 83.4114 222.2C84.0087 219.576 84.3074 218.056 84.3074 217.64C84.3074 217.459 84.2487 217.256 84.1314 217.032C84.0247 216.808 83.918 216.632 83.8114 216.504L83.6514 216.296L83.6994 215.976C84.3607 215.752 85.5127 215.64 87.1554 215.64C87.3474 216.045 87.4434 216.504 87.4434 217.016V217.048C88.7234 216.109 89.8434 215.64 90.8034 215.64C91.3687 215.64 91.8327 215.811 92.1954 216.152C92.558 216.483 92.7394 216.963 92.7394 217.592C92.7394 218.211 92.494 219.464 92.0034 221.352C91.5127 223.24 91.2674 224.392 91.2674 224.808C91.2674 225.213 91.3367 225.416 91.4754 225.416C91.6674 225.416 91.9554 225.347 92.3394 225.208L92.6754 226.12C91.63 226.835 90.6594 227.192 89.7634 227.192C89.2514 227.192 88.8567 227.059 88.5794 226.792C88.3127 226.515 88.1794 226.061 88.1794 225.432C88.1794 224.803 88.4087 223.608 88.8674 221.848C89.3367 220.077 89.5714 218.979 89.5714 218.552C89.5714 218.008 89.3314 217.736 88.8514 217.736C88.4994 217.736 87.9714 217.955 87.2674 218.392C87.1714 218.904 86.9687 219.789 86.6594 221.048C85.9767 223.917 85.6354 225.795 85.6354 226.68C85.166 226.957 84.2167 227.096 82.7874 227.096ZM95.8986 227.192C95.0666 227.192 94.4106 226.931 93.9306 226.408C93.4506 225.875 93.2106 225.128 93.2106 224.168C93.2106 222.995 93.5573 222.003 94.2506 221.192C94.944 220.371 95.856 219.96 96.9866 219.96L97.7066 220.024C97.9626 219.949 98.2026 219.912 98.4266 219.912C98.96 219.912 99.3386 220.093 99.5626 220.456C99.7973 220.819 99.9306 221.336 99.9626 222.008C100.411 221.987 100.837 221.917 101.243 221.8L101.467 221.736C101.541 221.811 101.595 222.035 101.627 222.408L101.643 222.584C101.163 222.829 100.576 223.021 99.8826 223.16C99.648 224.291 99.184 225.245 98.4906 226.024C97.7973 226.803 96.9333 227.192 95.8986 227.192ZM96.2186 224.104C96.2186 225.096 96.4693 225.592 96.9706 225.592C97.3226 225.592 97.68 225.368 98.0426 224.92C98.416 224.472 98.672 223.928 98.8106 223.288C97.7226 223.288 97.1786 222.765 97.1786 221.72C97.1786 221.539 97.1946 221.352 97.2266 221.16C97.12 221.16 97.04 221.176 96.9866 221.208C96.8053 221.4 96.6293 221.789 96.4586 222.376C96.2986 222.952 96.2186 223.528 96.2186 224.104ZM100.815 225.256L100.975 221.736C100.975 221.512 100.943 221.32 100.879 221.16C100.815 220.989 100.661 220.76 100.415 220.472L100.463 220.216C101.274 220.013 101.946 219.912 102.479 219.912C103.013 219.912 103.391 220.04 103.615 220.296C103.85 220.552 103.967 220.909 103.967 221.368C103.967 221.816 103.887 222.477 103.727 223.352C103.567 224.227 103.487 224.819 103.487 225.128C103.487 225.427 103.573 225.576 103.743 225.576C103.978 225.576 104.271 225.437 104.623 225.16C104.634 224.979 104.682 224.456 104.767 223.592C104.853 222.728 104.895 222.088 104.895 221.672C104.895 221.245 104.863 220.872 104.799 220.552C105.045 220.424 105.471 220.307 106.079 220.2C106.687 220.093 107.199 220.04 107.615 220.04C107.711 220.232 107.759 220.536 107.759 220.952C107.759 221.357 107.669 222.072 107.487 223.096C107.306 224.109 107.215 224.776 107.215 225.096C107.215 225.405 107.301 225.56 107.471 225.56C107.727 225.56 108.058 225.309 108.463 224.808C108.869 224.296 109.135 223.832 109.263 223.416L108.095 222.264C108.138 221.827 108.234 221.416 108.383 221.032C108.533 220.637 108.671 220.355 108.799 220.184L108.975 219.928C110.266 219.928 110.911 220.451 110.911 221.496C110.911 221.997 110.773 222.579 110.495 223.24C110.229 223.901 109.887 224.525 109.471 225.112C109.055 225.688 108.559 226.179 107.983 226.584C107.407 226.989 106.847 227.192 106.303 227.192C105.546 227.192 105.029 226.867 104.751 226.216C103.973 226.856 103.173 227.176 102.351 227.176C101.861 227.176 101.482 227.032 101.215 226.744C100.949 226.456 100.815 225.96 100.815 225.256Z"/>
</mask>
<path d="M53.072 222.792C52.7733 222.792 52.5547 222.787 52.416 222.776C51.9893 224.717 51.776 226.019 51.776 226.68C51.1787 226.957 50.3947 227.096 49.424 227.096C49.1573 227.096 48.9013 227.08 48.656 227.048C48.656 226.376 48.9493 224.819 49.536 222.376C50.1227 219.923 50.416 218.403 50.416 217.816C50.416 217.635 50.352 217.427 50.224 217.192C50.1067 216.957 49.984 216.771 49.856 216.632L49.68 216.408L49.744 216.024C50.1493 215.949 50.832 215.869 51.792 215.784C52.7627 215.688 53.6533 215.64 54.464 215.64C55.6587 215.64 56.544 215.885 57.12 216.376C57.696 216.867 57.984 217.528 57.984 218.36C57.984 219.651 57.568 220.712 56.736 221.544C55.9147 222.376 54.6933 222.792 53.072 222.792ZM53.04 221.416C53.6373 221.416 54.096 221.075 54.416 220.392C54.7467 219.709 54.912 218.888 54.912 217.928C54.912 217.149 54.656 216.76 54.144 216.76L53.632 216.824C53.632 217.24 53.3333 218.771 52.736 221.416H53.04ZM62.1281 226.104C61.7868 226.403 61.3388 226.659 60.7841 226.872C60.2295 227.085 59.7228 227.192 59.2641 227.192C58.8161 227.192 58.4481 227.064 58.1601 226.808C57.8721 226.541 57.7281 226.163 57.7281 225.672C57.7281 225.181 57.9948 223.816 58.5281 221.576C59.0721 219.325 59.3441 217.656 59.3441 216.568C59.3441 216.333 59.3121 216.035 59.2481 215.672C60.2508 215.395 61.2215 215.256 62.1601 215.256C62.2561 215.427 62.3041 215.704 62.3041 216.088C62.3041 216.813 62.0321 218.397 61.4881 220.84C60.9548 223.272 60.6881 224.675 60.6881 225.048C60.6881 225.421 60.7521 225.608 60.8801 225.608C60.9868 225.608 61.2161 225.539 61.5681 225.4L61.7441 225.32L62.1281 226.104ZM70.3661 220.52C70.1421 221.213 69.9501 222.04 69.7901 223C69.6301 223.949 69.5501 224.616 69.5501 225C69.5501 225.373 69.6088 225.56 69.7261 225.56L70.5261 225.336L70.8141 226.136C70.4728 226.403 70.0355 226.648 69.5021 226.872C68.9795 227.085 68.5155 227.192 68.1101 227.192C67.4168 227.192 66.9795 226.893 66.7981 226.296C65.9555 226.893 65.2088 227.192 64.5581 227.192C63.9181 227.192 63.4221 226.957 63.0701 226.488C62.7181 226.019 62.5421 225.347 62.5421 224.472C62.5421 223.267 62.8515 222.205 63.4701 221.288C64.0888 220.371 64.9048 219.912 65.9181 219.912C66.4728 219.912 67.0381 220.067 67.6141 220.376C67.6995 220.184 67.7688 220.045 67.8221 219.96C68.5901 219.96 69.4381 220.147 70.3661 220.52ZM65.5501 224.28C65.5501 224.813 65.5875 225.149 65.6621 225.288C65.7368 225.427 65.8755 225.496 66.0781 225.496C66.2808 225.496 66.4781 225.416 66.6701 225.256C66.7128 224.019 66.9155 222.723 67.2781 221.368C67.1181 221.272 66.9315 221.224 66.7181 221.224C66.5155 221.224 66.3288 221.341 66.1581 221.576C65.9981 221.811 65.8755 222.104 65.7901 222.456C65.6301 223.128 65.5501 223.736 65.5501 224.28ZM78.5621 220.024H78.6901C78.6368 220.301 78.5461 220.899 78.4181 221.816C78.1301 223.907 77.8208 225.485 77.4901 226.552C76.6688 229.24 75.3515 230.584 73.5381 230.584C72.9941 230.584 72.5515 230.467 72.2101 230.232C71.8795 230.008 71.7141 229.709 71.7141 229.336C71.7141 228.973 71.7995 228.669 71.9701 228.424C72.1515 228.189 72.4075 227.992 72.7381 227.832C73.3035 227.555 73.9968 227.325 74.8181 227.144C74.9035 226.739 74.9568 226.477 74.9781 226.36C74.1461 226.808 73.3568 227.032 72.6101 227.032C71.5861 227.032 71.0741 226.531 71.0741 225.528C71.0741 225.176 71.1915 224.488 71.4261 223.464C71.6608 222.429 71.7781 221.715 71.7781 221.32C71.7781 220.925 71.7515 220.632 71.6981 220.44C72.9568 220.173 73.9328 220.04 74.6261 220.04C74.7115 220.168 74.7541 220.424 74.7541 220.808C74.7541 221.181 74.6315 221.912 74.3861 223C74.1515 224.088 74.0341 224.728 74.0341 224.92C74.0341 225.251 74.1941 225.416 74.5141 225.416C74.6955 225.416 74.9035 225.368 75.1381 225.272C75.2235 224.728 75.3408 223.901 75.4901 222.792C75.6501 221.672 75.7621 220.904 75.8261 220.488C76.1035 220.36 76.5195 220.253 77.0741 220.168C77.6395 220.072 78.1355 220.024 78.5621 220.024ZM72.8501 229.032C72.8501 229.277 73.0101 229.4 73.3301 229.4C73.4901 229.4 73.6981 229.288 73.9541 229.064C74.2208 228.851 74.4341 228.531 74.5941 228.104C73.4315 228.307 72.8501 228.616 72.8501 229.032ZM82.7874 227.096H82.5154C82.5154 226.456 82.814 224.824 83.4114 222.2C84.0087 219.576 84.3074 218.056 84.3074 217.64C84.3074 217.459 84.2487 217.256 84.1314 217.032C84.0247 216.808 83.918 216.632 83.8114 216.504L83.6514 216.296L83.6994 215.976C84.3607 215.752 85.5127 215.64 87.1554 215.64C87.3474 216.045 87.4434 216.504 87.4434 217.016V217.048C88.7234 216.109 89.8434 215.64 90.8034 215.64C91.3687 215.64 91.8327 215.811 92.1954 216.152C92.558 216.483 92.7394 216.963 92.7394 217.592C92.7394 218.211 92.494 219.464 92.0034 221.352C91.5127 223.24 91.2674 224.392 91.2674 224.808C91.2674 225.213 91.3367 225.416 91.4754 225.416C91.6674 225.416 91.9554 225.347 92.3394 225.208L92.6754 226.12C91.63 226.835 90.6594 227.192 89.7634 227.192C89.2514 227.192 88.8567 227.059 88.5794 226.792C88.3127 226.515 88.1794 226.061 88.1794 225.432C88.1794 224.803 88.4087 223.608 88.8674 221.848C89.3367 220.077 89.5714 218.979 89.5714 218.552C89.5714 218.008 89.3314 217.736 88.8514 217.736C88.4994 217.736 87.9714 217.955 87.2674 218.392C87.1714 218.904 86.9687 219.789 86.6594 221.048C85.9767 223.917 85.6354 225.795 85.6354 226.68C85.166 226.957 84.2167 227.096 82.7874 227.096ZM95.8986 227.192C95.0666 227.192 94.4106 226.931 93.9306 226.408C93.4506 225.875 93.2106 225.128 93.2106 224.168C93.2106 222.995 93.5573 222.003 94.2506 221.192C94.944 220.371 95.856 219.96 96.9866 219.96L97.7066 220.024C97.9626 219.949 98.2026 219.912 98.4266 219.912C98.96 219.912 99.3386 220.093 99.5626 220.456C99.7973 220.819 99.9306 221.336 99.9626 222.008C100.411 221.987 100.837 221.917 101.243 221.8L101.467 221.736C101.541 221.811 101.595 222.035 101.627 222.408L101.643 222.584C101.163 222.829 100.576 223.021 99.8826 223.16C99.648 224.291 99.184 225.245 98.4906 226.024C97.7973 226.803 96.9333 227.192 95.8986 227.192ZM96.2186 224.104C96.2186 225.096 96.4693 225.592 96.9706 225.592C97.3226 225.592 97.68 225.368 98.0426 224.92C98.416 224.472 98.672 223.928 98.8106 223.288C97.7226 223.288 97.1786 222.765 97.1786 221.72C97.1786 221.539 97.1946 221.352 97.2266 221.16C97.12 221.16 97.04 221.176 96.9866 221.208C96.8053 221.4 96.6293 221.789 96.4586 222.376C96.2986 222.952 96.2186 223.528 96.2186 224.104ZM100.815 225.256L100.975 221.736C100.975 221.512 100.943 221.32 100.879 221.16C100.815 220.989 100.661 220.76 100.415 220.472L100.463 220.216C101.274 220.013 101.946 219.912 102.479 219.912C103.013 219.912 103.391 220.04 103.615 220.296C103.85 220.552 103.967 220.909 103.967 221.368C103.967 221.816 103.887 222.477 103.727 223.352C103.567 224.227 103.487 224.819 103.487 225.128C103.487 225.427 103.573 225.576 103.743 225.576C103.978 225.576 104.271 225.437 104.623 225.16C104.634 224.979 104.682 224.456 104.767 223.592C104.853 222.728 104.895 222.088 104.895 221.672C104.895 221.245 104.863 220.872 104.799 220.552C105.045 220.424 105.471 220.307 106.079 220.2C106.687 220.093 107.199 220.04 107.615 220.04C107.711 220.232 107.759 220.536 107.759 220.952C107.759 221.357 107.669 222.072 107.487 223.096C107.306 224.109 107.215 224.776 107.215 225.096C107.215 225.405 107.301 225.56 107.471 225.56C107.727 225.56 108.058 225.309 108.463 224.808C108.869 224.296 109.135 223.832 109.263 223.416L108.095 222.264C108.138 221.827 108.234 221.416 108.383 221.032C108.533 220.637 108.671 220.355 108.799 220.184L108.975 219.928C110.266 219.928 110.911 220.451 110.911 221.496C110.911 221.997 110.773 222.579 110.495 223.24C110.229 223.901 109.887 224.525 109.471 225.112C109.055 225.688 108.559 226.179 107.983 226.584C107.407 226.989 106.847 227.192 106.303 227.192C105.546 227.192 105.029 226.867 104.751 226.216C103.973 226.856 103.173 227.176 102.351 227.176C101.861 227.176 101.482 227.032 101.215 226.744C100.949 226.456 100.815 225.96 100.815 225.256Z" fill="white"/>
<path d="M52.416 222.776L52.462 222.178L51.942 222.138L51.83 222.647L52.416 222.776ZM51.776 226.68L52.0287 227.224L52.376 227.063V226.68H51.776ZM48.656 227.048H48.056V227.575L48.5784 227.643L48.656 227.048ZM49.536 222.376L50.1194 222.516L50.1195 222.516L49.536 222.376ZM50.224 217.192L49.6873 217.46L49.6921 217.47L49.6973 217.479L50.224 217.192ZM49.856 216.632L49.3842 217.003L49.3989 217.021L49.4151 217.039L49.856 216.632ZM49.68 216.408L49.0882 216.309L49.0446 216.571L49.2082 216.779L49.68 216.408ZM49.744 216.024L49.6353 215.434L49.2214 215.51L49.1522 215.925L49.744 216.024ZM51.792 215.784L51.8451 216.382L51.8511 216.381L51.792 215.784ZM57.12 216.376L57.5091 215.919V215.919L57.12 216.376ZM56.736 221.544L56.3117 221.12L56.309 221.122L56.736 221.544ZM54.416 220.392L53.876 220.13L53.8727 220.137L54.416 220.392ZM54.144 216.76V216.16H54.1066L54.0696 216.165L54.144 216.76ZM53.632 216.824L53.5576 216.229L53.032 216.294V216.824H53.632ZM52.736 221.416L52.1507 221.284L51.9854 222.016H52.736V221.416ZM53.072 222.192C52.7754 222.192 52.5762 222.187 52.462 222.178L52.37 223.374C52.5331 223.387 52.7712 223.392 53.072 223.392V222.192ZM51.83 222.647C51.4057 224.577 51.176 225.943 51.176 226.68H52.376C52.376 226.095 52.5729 224.857 53.002 222.905L51.83 222.647ZM51.5233 226.136C51.0336 226.363 50.3453 226.496 49.424 226.496V227.696C50.444 227.696 51.3238 227.551 52.0287 227.224L51.5233 226.136ZM49.424 226.496C49.1813 226.496 48.9513 226.481 48.7336 226.453L48.5784 227.643C48.8514 227.679 49.1334 227.696 49.424 227.696V226.496ZM49.256 227.048C49.256 226.773 49.3191 226.265 49.4656 225.487C49.6097 224.722 49.8272 223.733 50.1194 222.516L48.9526 222.236C48.6581 223.462 48.4356 224.473 48.2864 225.265C48.1396 226.044 48.056 226.651 48.056 227.048H49.256ZM50.1195 222.516C50.4138 221.285 50.6361 220.282 50.7851 219.51C50.931 218.754 51.016 218.174 51.016 217.816H49.816C49.816 218.044 49.7543 218.518 49.6069 219.282C49.4626 220.03 49.2448 221.014 48.9525 222.236L50.1195 222.516ZM51.016 217.816C51.016 217.498 50.9057 217.189 50.7507 216.905L49.6973 217.479C49.7983 217.665 49.816 217.771 49.816 217.816H51.016ZM50.7607 216.924C50.6271 216.657 50.4748 216.418 50.2969 216.225L49.4151 217.039C49.4932 217.124 49.5862 217.258 49.6873 217.46L50.7607 216.924ZM50.3278 216.261L50.1518 216.037L49.2082 216.779L49.3842 217.003L50.3278 216.261ZM50.2718 216.507L50.3358 216.123L49.1522 215.925L49.0882 216.309L50.2718 216.507ZM49.8527 216.614C50.2278 216.545 50.8858 216.467 51.8451 216.382L51.7389 215.186C50.7782 215.272 50.0708 215.354 49.6353 215.434L49.8527 216.614ZM51.8511 216.381C52.8059 216.287 53.6765 216.24 54.464 216.24V215.04C53.6301 215.04 52.7194 215.089 51.7329 215.187L51.8511 216.381ZM54.464 216.24C55.5942 216.24 56.3109 216.475 56.7309 216.833L57.5091 215.919C56.7771 215.296 55.7232 215.04 54.464 215.04V216.24ZM56.7309 216.833C57.1588 217.197 57.384 217.684 57.384 218.36H58.584C58.584 217.372 58.2332 216.536 57.5091 215.919L56.7309 216.833ZM57.384 218.36C57.384 219.508 57.0198 220.412 56.3117 221.12L57.1603 221.968C58.1162 221.012 58.584 219.793 58.584 218.36H57.384ZM56.309 221.122C55.6382 221.802 54.5962 222.192 53.072 222.192V223.392C54.7905 223.392 56.1911 222.95 57.163 221.966L56.309 221.122ZM53.04 222.016C53.4615 222.016 53.8525 221.893 54.1902 221.641C54.5203 221.396 54.7702 221.05 54.9593 220.647L53.8727 220.137C53.7418 220.417 53.6024 220.583 53.4738 220.679C53.3528 220.769 53.2158 220.816 53.04 220.816V222.016ZM54.956 220.654C55.3352 219.871 55.512 218.955 55.512 217.928H54.312C54.312 218.821 54.1581 219.548 53.876 220.13L54.956 220.654ZM55.512 217.928C55.512 217.492 55.4438 217.061 55.2213 216.722C54.97 216.34 54.5784 216.16 54.144 216.16V217.36C54.1701 217.36 54.187 217.362 54.1966 217.365C54.2014 217.366 54.2045 217.367 54.2063 217.367C54.2072 217.368 54.2078 217.368 54.2082 217.368C54.2085 217.368 54.2087 217.368 54.2087 217.368C54.2087 217.368 54.2087 217.368 54.2086 217.368C54.2086 217.368 54.2085 217.368 54.2084 217.368C54.2082 217.368 54.208 217.368 54.2078 217.368C54.2074 217.367 54.2072 217.367 54.2076 217.367C54.208 217.368 54.2121 217.372 54.2187 217.382C54.2522 217.433 54.312 217.585 54.312 217.928H55.512ZM54.0696 216.165L53.5576 216.229L53.7064 217.419L54.2184 217.355L54.0696 216.165ZM53.032 216.824C53.032 216.962 52.9721 217.385 52.8191 218.169C52.6714 218.926 52.4489 219.963 52.1507 221.284L53.3213 221.548C53.6204 220.223 53.8459 219.173 53.9969 218.399C54.1425 217.653 54.232 217.102 54.232 216.824H53.032ZM52.736 222.016H53.04V220.816H52.736V222.016ZM62.1281 226.104L62.5232 226.556L62.8691 226.253L62.667 225.84L62.1281 226.104ZM60.7841 226.872L60.5687 226.312L60.7841 226.872ZM58.1601 226.808L57.7524 227.248L57.7615 227.256L58.1601 226.808ZM58.5281 221.576L57.9449 221.435L57.9444 221.437L58.5281 221.576ZM59.2481 215.672L59.0882 215.094L58.5625 215.239L58.6573 215.776L59.2481 215.672ZM62.1601 215.256L62.6831 214.962L62.511 214.656H62.1601V215.256ZM61.4881 220.84L60.9025 220.71L60.9021 220.711L61.4881 220.84ZM61.5681 225.4L61.788 225.958L61.8024 225.953L61.8164 225.946L61.5681 225.4ZM61.7441 225.32L62.283 225.056L62.0265 224.533L61.4958 224.774L61.7441 225.32ZM61.733 225.652C61.4584 225.893 61.0769 226.117 60.5687 226.312L60.9995 227.432C61.6007 227.201 62.1152 226.913 62.5232 226.556L61.733 225.652ZM60.5687 226.312C60.0635 226.506 59.6309 226.592 59.2641 226.592V227.792C59.8146 227.792 60.3954 227.664 60.9995 227.432L60.5687 226.312ZM59.2641 226.592C58.9377 226.592 58.7193 226.502 58.5587 226.36L57.7615 227.256C58.1769 227.626 58.6946 227.792 59.2641 227.792V226.592ZM58.5678 226.368C58.4318 226.242 58.3281 226.04 58.3281 225.672H57.1281C57.1281 226.285 57.3125 226.841 57.7525 227.248L58.5678 226.368ZM58.3281 225.672C58.3281 225.494 58.3822 225.085 58.517 224.395C58.6481 223.724 58.846 222.831 59.1118 221.715L57.9444 221.437C57.6769 222.561 57.4748 223.471 57.3393 224.165C57.2073 224.84 57.1281 225.36 57.1281 225.672H58.3281ZM59.1113 221.717C59.6569 219.46 59.9441 217.732 59.9441 216.568H58.7441C58.7441 217.58 58.4874 219.191 57.9449 221.435L59.1113 221.717ZM59.9441 216.568C59.9441 216.285 59.9061 215.948 59.839 215.568L58.6573 215.776C58.7182 216.122 58.7441 216.382 58.7441 216.568H59.9441ZM59.4081 216.25C60.3642 215.986 61.281 215.856 62.1601 215.856V214.656C61.1619 214.656 60.1374 214.804 59.0882 215.094L59.4081 216.25ZM61.6372 215.55C61.6539 215.58 61.7041 215.726 61.7041 216.088H62.9041C62.9041 215.682 62.8584 215.273 62.6831 214.962L61.6372 215.55ZM61.7041 216.088C61.7041 216.734 61.4504 218.249 60.9025 220.71L62.0738 220.97C62.6138 218.545 62.9041 216.892 62.9041 216.088H61.7041ZM60.9021 220.711C60.6349 221.93 60.4336 222.895 60.2987 223.604C60.169 224.286 60.0881 224.792 60.0881 225.048H61.2881C61.2881 224.93 61.3406 224.549 61.4776 223.828C61.6094 223.135 61.808 222.182 62.0742 220.969L60.9021 220.711ZM60.0881 225.048C60.0881 225.253 60.1037 225.473 60.1686 225.663C60.2306 225.844 60.4275 226.208 60.8801 226.208V225.008C60.9389 225.008 61.0028 225.019 61.0659 225.045C61.1285 225.071 61.1778 225.107 61.2144 225.143C61.2823 225.209 61.3025 225.27 61.3037 225.273C61.3063 225.281 61.3012 225.268 61.2962 225.225C61.2915 225.183 61.2881 225.125 61.2881 225.048H60.0881ZM60.8801 226.208C61.0293 226.208 61.1871 226.166 61.3058 226.13C61.4423 226.089 61.6044 226.031 61.788 225.958L61.3482 224.842C61.1798 224.908 61.0513 224.954 60.9585 224.982C60.9122 224.996 60.8809 225.003 60.8619 225.007C60.8388 225.012 60.8491 225.008 60.8801 225.008V226.208ZM61.8164 225.946L61.9924 225.866L61.4958 224.774L61.3198 224.854L61.8164 225.946ZM61.2053 225.584L61.5893 226.368L62.667 225.84L62.283 225.056L61.2053 225.584ZM70.3661 220.52L70.9371 220.704L71.109 220.172L70.5901 219.963L70.3661 220.52ZM69.7901 223L70.3818 223.1L70.382 223.099L69.7901 223ZM69.7261 225.56V226.16H69.8085L69.8879 226.138L69.7261 225.56ZM70.5261 225.336L71.0907 225.133L70.9017 224.608L70.3643 224.758L70.5261 225.336ZM70.8141 226.136L71.1835 226.609L71.5258 226.341L71.3787 225.933L70.8141 226.136ZM69.5021 226.872L69.7289 227.428L69.7345 227.425L69.5021 226.872ZM66.7981 226.296L67.3723 226.122L67.1304 225.325L66.4511 225.807L66.7981 226.296ZM63.0701 226.488L62.5901 226.848L63.0701 226.488ZM63.4701 221.288L62.9727 220.953L63.4701 221.288ZM67.6141 220.376L67.3302 220.905L67.8998 221.21L68.1624 220.62L67.6141 220.376ZM67.8221 219.96V219.36H67.4896L67.3133 219.642L67.8221 219.96ZM65.6621 225.288L66.1904 225.004L65.6621 225.288ZM66.6701 225.256L67.0542 225.717L67.2605 225.545L67.2698 225.277L66.6701 225.256ZM67.2781 221.368L67.8577 221.523L67.9747 221.086L67.5868 220.854L67.2781 221.368ZM66.1581 221.576L65.6729 221.223L65.6675 221.23L65.6624 221.238L66.1581 221.576ZM65.7901 222.456L65.207 222.315L65.2064 222.317L65.7901 222.456ZM69.7952 220.336C69.5597 221.064 69.3616 221.921 69.1983 222.901L70.382 223.099C70.5386 222.159 70.7246 221.362 70.9371 220.704L69.7952 220.336ZM69.1985 222.9C69.0387 223.848 68.9501 224.56 68.9501 225H70.1501C70.1501 224.672 70.2215 224.051 70.3818 223.1L69.1985 222.9ZM68.9501 225C68.9501 225.203 68.9643 225.417 69.0217 225.6C69.0692 225.751 69.2484 226.16 69.7261 226.16V224.96C69.7936 224.96 69.8649 224.974 69.9332 225.005C70.0003 225.036 70.0505 225.076 70.0857 225.113C70.1198 225.15 70.1398 225.183 70.1504 225.203C70.1611 225.223 70.1656 225.237 70.1665 225.24C70.1678 225.244 70.1627 225.228 70.1579 225.182C70.1533 225.139 70.1501 225.079 70.1501 225H68.9501ZM69.8879 226.138L70.6879 225.914L70.3643 224.758L69.5643 224.982L69.8879 226.138ZM69.9616 225.539L70.2496 226.339L71.3787 225.933L71.0907 225.133L69.9616 225.539ZM70.4447 225.663C70.1566 225.888 69.7694 226.109 69.2698 226.319L69.7345 227.425C70.3015 227.187 70.7889 226.917 71.1835 226.609L70.4447 225.663ZM69.2754 226.316C68.7984 226.511 68.4136 226.592 68.1101 226.592V227.792C68.6173 227.792 69.1605 227.659 69.7289 227.428L69.2754 226.316ZM68.1101 226.592C67.8473 226.592 67.6928 226.536 67.6005 226.473C67.5141 226.414 67.4306 226.314 67.3723 226.122L66.224 226.47C66.347 226.875 66.5728 227.224 66.9237 227.463C67.2688 227.699 67.6796 227.792 68.1101 227.792V226.592ZM66.4511 225.807C65.6549 226.371 65.0308 226.592 64.5581 226.592V227.792C65.3868 227.792 66.256 227.416 67.1451 226.785L66.4511 225.807ZM64.5581 226.592C64.0871 226.592 63.7774 226.431 63.5501 226.128L62.5901 226.848C63.0668 227.484 63.7491 227.792 64.5581 227.792V226.592ZM63.5501 226.128C63.3059 225.802 63.1421 225.278 63.1421 224.472H61.9421C61.9421 225.416 62.1303 226.235 62.5901 226.848L63.5501 226.128ZM63.1421 224.472C63.1421 223.375 63.4217 222.433 63.9676 221.623L62.9727 220.953C62.2812 221.978 61.9421 223.158 61.9421 224.472H63.1421ZM63.9676 221.623C64.4868 220.854 65.125 220.512 65.9181 220.512V219.312C64.6846 219.312 63.6908 219.888 62.9727 220.953L63.9676 221.623ZM65.9181 220.512C66.3574 220.512 66.8259 220.634 67.3302 220.905L67.898 219.847C67.2503 219.5 66.5882 219.312 65.9181 219.312V220.512ZM68.1624 220.62C68.2458 220.432 68.3011 220.326 68.3309 220.278L67.3133 219.642C67.2364 219.765 67.1531 219.936 67.0658 220.132L68.1624 220.62ZM67.8221 220.56C68.494 220.56 69.2649 220.724 70.1422 221.077L70.5901 219.963C69.6114 219.57 68.6862 219.36 67.8221 219.36V220.56ZM64.9501 224.28C64.9501 224.558 64.9597 224.799 64.9818 224.998C65.0015 225.175 65.0378 225.394 65.1338 225.572L66.1904 225.004C66.2063 225.033 66.2048 225.042 66.1971 225.009C66.1903 224.98 66.1821 224.934 66.1745 224.866C66.1592 224.729 66.1501 224.536 66.1501 224.28H64.9501ZM65.1338 225.572C65.3441 225.963 65.7287 226.096 66.0781 226.096V224.896C66.0424 224.896 66.0549 224.89 66.0905 224.907C66.1089 224.917 66.1295 224.93 66.149 224.949C66.1684 224.968 66.1818 224.988 66.1904 225.004L65.1338 225.572ZM66.0781 226.096C66.4516 226.096 66.7804 225.945 67.0542 225.717L66.286 224.795C66.1759 224.887 66.11 224.896 66.0781 224.896V226.096ZM67.2698 225.277C67.3107 224.09 67.5053 222.84 67.8577 221.523L66.6985 221.213C66.3256 222.606 66.1149 223.947 66.0705 225.235L67.2698 225.277ZM67.5868 220.854C67.3208 220.694 67.0243 220.624 66.7181 220.624V221.824C66.8386 221.824 66.9154 221.85 66.9694 221.882L67.5868 220.854ZM66.7181 220.624C66.2498 220.624 65.9047 220.904 65.6729 221.223L66.6434 221.929C66.6972 221.855 66.7337 221.827 66.7454 221.82C66.7504 221.817 66.7492 221.818 66.7423 221.82C66.735 221.823 66.7263 221.824 66.7181 221.824V220.624ZM65.6624 221.238C65.4522 221.546 65.3049 221.911 65.207 222.315L66.3732 222.597C66.446 222.297 66.5441 222.075 66.6539 221.914L65.6624 221.238ZM65.2064 222.317C65.0384 223.023 64.9501 223.679 64.9501 224.28H66.1501C66.1501 223.793 66.2219 223.233 66.3738 222.595L65.2064 222.317ZM78.6901 220.024L79.2793 220.137L79.4165 219.424H78.6901V220.024ZM78.4181 221.816L77.8239 221.733L77.8237 221.734L78.4181 221.816ZM77.4901 226.552L76.917 226.374L76.9163 226.377L77.4901 226.552ZM72.2101 230.232L72.5501 229.738L72.5466 229.735L72.2101 230.232ZM71.9701 228.424L71.4954 228.057L71.4862 228.069L71.4776 228.081L71.9701 228.424ZM72.7381 227.832L72.9995 228.372L73.0024 228.371L72.7381 227.832ZM74.8181 227.144L74.9475 227.73L75.3255 227.646L75.4053 227.268L74.8181 227.144ZM74.9781 226.36L75.5684 226.467L75.7915 225.241L74.6937 225.832L74.9781 226.36ZM71.4261 223.464L72.011 223.598L72.0113 223.597L71.4261 223.464ZM71.6981 220.44L71.5738 219.853L70.9491 219.985L71.12 220.601L71.6981 220.44ZM74.6261 220.04L75.1254 219.707L74.9472 219.44H74.6261V220.04ZM74.3861 223L73.8008 222.868L73.7996 222.873L74.3861 223ZM75.1381 225.272L75.3653 225.827L75.6784 225.699L75.7309 225.365L75.1381 225.272ZM75.4901 222.792L74.8961 222.707L74.8955 222.712L75.4901 222.792ZM75.8261 220.488L75.5747 219.943L75.2821 220.078L75.2331 220.397L75.8261 220.488ZM77.0741 220.168L77.1654 220.761L77.1746 220.76L77.0741 220.168ZM73.9541 229.064L73.5793 228.595L73.569 228.604L73.559 228.612L73.9541 229.064ZM74.5941 228.104L75.1559 228.315L75.5241 227.333L74.4911 227.513L74.5941 228.104ZM78.5621 220.624H78.6901V219.424H78.5621V220.624ZM78.1009 219.911C78.0441 220.206 77.9514 220.819 77.8239 221.733L79.0124 221.899C79.1409 220.978 79.2295 220.397 79.2793 220.137L78.1009 219.911ZM77.8237 221.734C77.537 223.816 77.2329 225.355 76.917 226.374L78.0632 226.73C78.4087 225.615 78.7232 223.998 79.0125 221.898L77.8237 221.734ZM76.9163 226.377C76.521 227.67 76.0239 228.578 75.4576 229.156C74.907 229.718 74.2769 229.984 73.5381 229.984V231.184C74.6127 231.184 75.5479 230.778 76.3146 229.996C77.0657 229.23 77.6379 228.122 78.0639 226.727L76.9163 226.377ZM73.5381 229.984C73.0779 229.984 72.7643 229.885 72.55 229.738L71.8702 230.726C72.3386 231.048 72.9103 231.184 73.5381 231.184V229.984ZM72.5466 229.735C72.3671 229.614 72.3141 229.494 72.3141 229.336H71.1141C71.1141 229.924 71.3918 230.402 71.8736 230.729L72.5466 229.735ZM72.3141 229.336C72.3141 229.069 72.3757 228.892 72.4627 228.767L71.4776 228.081C71.2232 228.447 71.1141 228.877 71.1141 229.336H72.3141ZM72.4449 228.791C72.5575 228.645 72.7328 228.501 72.9995 228.372L72.4768 227.292C72.0821 227.483 71.7454 227.734 71.4954 228.057L72.4449 228.791ZM73.0024 228.371C73.5132 228.12 74.1583 227.904 74.9475 227.73L74.6888 226.558C73.8353 226.747 73.0937 226.989 72.4739 227.293L73.0024 228.371ZM75.4053 227.268C75.4901 226.865 75.5453 226.594 75.5684 226.467L74.3878 226.253C74.3682 226.36 74.3168 226.613 74.231 227.02L75.4053 227.268ZM74.6937 225.832C73.9264 226.245 73.2346 226.432 72.6101 226.432V227.632C73.479 227.632 74.3659 227.371 75.2626 226.888L74.6937 225.832ZM72.6101 226.432C72.1875 226.432 71.9813 226.329 71.8779 226.227C71.7768 226.128 71.6741 225.934 71.6741 225.528H70.4741C70.4741 226.125 70.6274 226.682 71.0384 227.085C71.447 227.485 72.0088 227.632 72.6101 227.632V226.432ZM71.6741 225.528C71.6741 225.255 71.7737 224.633 72.011 223.598L70.8413 223.33C70.6092 224.343 70.4741 225.097 70.4741 225.528H71.6741ZM72.0113 223.597C72.2446 222.568 72.3781 221.791 72.3781 221.32H71.1781C71.1781 221.638 71.077 222.291 70.841 223.331L72.0113 223.597ZM72.3781 221.32C72.3781 220.913 72.3522 220.553 72.2762 220.279L71.12 220.601C71.1507 220.711 71.1781 220.937 71.1781 221.32H72.3781ZM71.8225 221.027C73.0687 220.763 73.996 220.64 74.6261 220.64V219.44C73.8695 219.44 72.8449 219.584 71.5738 219.853L71.8225 221.027ZM74.1269 220.373C74.1008 220.334 74.1146 220.332 74.1303 220.427C74.1443 220.511 74.1541 220.635 74.1541 220.808H75.3541C75.3541 220.597 75.3426 220.401 75.314 220.229C75.287 220.068 75.2368 219.874 75.1254 219.707L74.1269 220.373ZM74.1541 220.808C74.1541 221.103 74.0486 221.769 73.8008 222.868L74.9714 223.132C75.2143 222.055 75.3541 221.259 75.3541 220.808H74.1541ZM73.7996 222.873C73.6817 223.42 73.5923 223.859 73.532 224.188C73.4759 224.494 73.4341 224.759 73.4341 224.92H74.6341C74.6341 224.923 74.6341 224.913 74.6369 224.885C74.6394 224.858 74.6437 224.822 74.6502 224.776C74.6633 224.683 74.6837 224.56 74.7123 224.404C74.7693 224.093 74.8558 223.668 74.9726 223.127L73.7996 222.873ZM73.4341 224.92C73.4341 225.173 73.4951 225.474 73.723 225.709C73.9544 225.948 74.2565 226.016 74.5141 226.016V224.816C74.4841 224.816 74.4827 224.812 74.4995 224.818C74.5195 224.825 74.553 224.841 74.5853 224.875C74.6531 224.945 74.6341 224.998 74.6341 224.92H73.4341ZM74.5141 226.016C74.7978 226.016 75.0852 225.942 75.3653 225.827L74.9109 224.717C74.7217 224.794 74.5932 224.816 74.5141 224.816V226.016ZM75.7309 225.365C75.8173 224.814 75.9353 223.982 76.0848 222.872L74.8955 222.712C74.7463 223.82 74.6297 224.642 74.5454 225.179L75.7309 225.365ZM76.0841 222.877C76.2441 221.757 76.3557 220.992 76.4191 220.579L75.2331 220.397C75.1685 220.816 75.0561 221.587 74.8962 222.707L76.0841 222.877ZM76.0776 221.033C76.278 220.94 76.628 220.844 77.1654 220.761L76.9829 219.575C76.4109 219.663 75.9289 219.78 75.5747 219.943L76.0776 221.033ZM77.1746 220.76C77.7172 220.667 78.1783 220.624 78.5621 220.624V219.424C78.0926 219.424 77.5617 219.477 76.9737 219.576L77.1746 220.76ZM72.2501 229.032C72.2501 229.296 72.3445 229.584 72.6051 229.784C72.8355 229.961 73.1103 230 73.3301 230V228.8C73.2865 228.8 73.2684 228.796 73.2687 228.796C73.2697 228.796 73.2979 228.803 73.3352 228.832C73.3756 228.863 73.4095 228.906 73.4304 228.954C73.4496 228.998 73.4501 229.029 73.4501 229.032H72.2501ZM73.3301 230C73.5455 230 73.7377 229.927 73.8906 229.844C74.0474 229.76 74.2008 229.645 74.3492 229.516L73.559 228.612C73.4515 228.707 73.3729 228.76 73.3217 228.788C73.2665 228.817 73.2747 228.8 73.3301 228.8V230ZM74.3289 229.533C74.7037 229.233 74.9703 228.81 75.1559 228.315L74.0323 227.893C73.898 228.252 73.7379 228.469 73.5793 228.595L74.3289 229.533ZM74.4911 227.513C73.8885 227.618 73.3787 227.759 73.0043 227.958C72.6409 228.152 72.2501 228.491 72.2501 229.032H73.4501C73.4501 229.157 73.35 229.134 73.568 229.018C73.7749 228.908 74.1371 228.793 74.6972 228.695L74.4911 227.513ZM82.5154 227.096H81.9154V227.696H82.5154V227.096ZM83.4114 222.2L82.8263 222.067L83.4114 222.2ZM84.1314 217.032L83.5897 217.29L83.5946 217.3L83.5999 217.31L84.1314 217.032ZM83.8114 216.504L83.3358 216.87L83.3429 216.879L83.3504 216.888L83.8114 216.504ZM83.6514 216.296L83.058 216.207L83.0201 216.459L83.1758 216.662L83.6514 216.296ZM83.6994 215.976L83.5069 215.408L83.1603 215.525L83.106 215.887L83.6994 215.976ZM87.1554 215.64L87.6976 215.383L87.5351 215.04H87.1554V215.64ZM87.4434 217.048H86.8434V218.232L87.7982 217.532L87.4434 217.048ZM92.1954 216.152L91.7841 216.589L91.7911 216.595L92.1954 216.152ZM92.0034 221.352L92.5841 221.503L92.0034 221.352ZM92.3394 225.208L92.9024 225.001L92.6963 224.441L92.1356 224.644L92.3394 225.208ZM92.6754 226.12L93.014 226.615L93.4 226.351L93.2384 225.913L92.6754 226.12ZM88.5794 226.792L88.1469 227.208L88.155 227.216L88.1635 227.225L88.5794 226.792ZM88.8674 221.848L88.2874 221.694L88.2868 221.697L88.8674 221.848ZM87.2674 218.392L86.9508 217.882L86.7263 218.022L86.6777 218.281L87.2674 218.392ZM86.6594 221.048L86.0767 220.905L86.0757 220.909L86.6594 221.048ZM85.6354 226.68L85.9406 227.197L86.2354 227.022V226.68H85.6354ZM82.7874 226.496H82.5154V227.696H82.7874V226.496ZM83.1154 227.096C83.1154 226.837 83.1797 226.319 83.3296 225.5C83.4767 224.696 83.6986 223.641 83.9964 222.333L82.8263 222.067C82.5268 223.383 82.3007 224.456 82.1492 225.284C82.0004 226.097 81.9154 226.715 81.9154 227.096H83.1154ZM83.9964 222.333C84.2956 221.019 84.5211 219.976 84.6721 219.208C84.8178 218.466 84.9074 217.919 84.9074 217.64H83.7074C83.7074 217.777 83.6477 218.198 83.4946 218.976C83.347 219.728 83.1245 220.757 82.8263 222.067L83.9964 222.333ZM84.9074 217.64C84.9074 217.331 84.8084 217.032 84.6629 216.754L83.5999 217.31C83.689 217.48 83.7074 217.586 83.7074 217.64H84.9074ZM84.6731 216.774C84.5543 216.525 84.4226 216.3 84.2723 216.12L83.3504 216.888C83.4135 216.964 83.4951 217.091 83.5897 217.29L84.6731 216.774ZM84.2869 216.138L84.1269 215.93L83.1758 216.662L83.3358 216.87L84.2869 216.138ZM84.2447 216.385L84.2927 216.065L83.106 215.887L83.058 216.207L84.2447 216.385ZM83.8919 216.544C84.4505 216.355 85.5136 216.24 87.1554 216.24V215.04C85.5119 215.04 84.2709 215.149 83.5069 215.408L83.8919 216.544ZM86.6131 215.897C86.7621 216.211 86.8434 216.58 86.8434 217.016H88.0434C88.0434 216.428 87.9327 215.879 87.6976 215.383L86.6131 215.897ZM86.8434 217.016V217.048H88.0434V217.016H86.8434ZM87.7982 217.532C89.0365 216.624 90.0303 216.24 90.8034 216.24V215.04C89.6564 215.04 88.4102 215.595 87.0886 216.564L87.7982 217.532ZM90.8034 216.24C91.2381 216.24 91.548 216.367 91.7842 216.589L92.6066 215.715C92.1174 215.255 91.4993 215.04 90.8034 215.04V216.24ZM91.7911 216.595C91.996 216.782 92.1394 217.081 92.1394 217.592H93.3394C93.3394 216.845 93.12 216.183 92.5996 215.709L91.7911 216.595ZM92.1394 217.592C92.1394 218.12 91.9174 219.297 91.4227 221.201L92.5841 221.503C93.0707 219.631 93.3394 218.301 93.3394 217.592H92.1394ZM91.4227 221.201C91.1763 222.149 90.9899 222.919 90.8645 223.507C90.7436 224.075 90.6674 224.527 90.6674 224.808H91.8674C91.8674 224.673 91.9139 224.341 92.0382 223.757C92.1582 223.193 92.3397 222.443 92.5841 221.503L91.4227 221.201ZM90.6674 224.808C90.6674 225.029 90.6842 225.261 90.7517 225.458C90.8161 225.647 91.0166 226.016 91.4754 226.016V224.816C91.533 224.816 91.5958 224.827 91.6578 224.853C91.7193 224.879 91.7676 224.914 91.8031 224.948C91.8375 224.982 91.8584 225.013 91.8699 225.033C91.8813 225.053 91.8861 225.067 91.8871 225.07C91.8883 225.073 91.8822 225.056 91.8765 225.006C91.8711 224.958 91.8674 224.893 91.8674 224.808H90.6674ZM91.4754 226.016C91.7788 226.016 92.1505 225.914 92.5432 225.772L92.1356 224.644C91.7602 224.779 91.556 224.816 91.4754 224.816V226.016ZM91.7764 225.415L92.1124 226.327L93.2384 225.913L92.9024 225.001L91.7764 225.415ZM92.3367 225.625C91.3515 226.298 90.4981 226.592 89.7634 226.592V227.792C90.8207 227.792 91.9086 227.371 93.014 226.615L92.3367 225.625ZM89.7634 226.592C89.3537 226.592 89.1278 226.487 88.9952 226.359L88.1635 227.225C88.5856 227.63 89.149 227.792 89.7634 227.792V226.592ZM89.0119 226.376C88.9035 226.263 88.7794 226 88.7794 225.432H87.5794C87.5794 226.123 87.7219 226.766 88.1469 227.208L89.0119 226.376ZM88.7794 225.432C88.7794 224.892 88.9865 223.77 89.448 221.999L88.2868 221.697C87.8309 223.446 87.5794 224.714 87.5794 225.432H88.7794ZM89.4473 222.002C89.6832 221.112 89.8619 220.384 89.9821 219.821C90.0985 219.276 90.1714 218.837 90.1714 218.552H88.9714C88.9714 218.694 88.9269 219.017 88.8086 219.571C88.6942 220.106 88.5209 220.813 88.2874 221.694L89.4473 222.002ZM90.1714 218.552C90.1714 218.205 90.0964 217.832 89.8413 217.543C89.5735 217.24 89.2047 217.136 88.8514 217.136V218.336C88.9162 218.336 88.9465 218.345 88.9543 218.348C88.9586 218.35 88.9501 218.347 88.9415 218.337C88.9264 218.32 88.9714 218.355 88.9714 218.552H90.1714ZM88.8514 217.136C88.5627 217.136 88.2588 217.223 87.9618 217.346C87.6575 217.472 87.3193 217.653 86.9508 217.882L87.584 218.902C87.9194 218.693 88.1973 218.547 88.421 218.454C88.652 218.359 88.7881 218.336 88.8514 218.336V217.136ZM86.6777 218.281C86.5851 218.775 86.3861 219.646 86.0767 220.905L87.242 221.191C87.5513 219.933 87.7577 219.033 87.8571 218.503L86.6777 218.281ZM86.0757 220.909C85.3971 223.761 85.0354 225.711 85.0354 226.68H86.2354C86.2354 225.879 86.5563 224.073 87.2431 221.187L86.0757 220.909ZM85.3301 226.163C85.1954 226.243 84.9318 226.333 84.4847 226.398C84.0489 226.462 83.4856 226.496 82.7874 226.496V227.696C83.5185 227.696 84.1445 227.661 84.6581 227.586C85.1603 227.512 85.6061 227.394 85.9406 227.197L85.3301 226.163ZM93.9306 226.408L93.4846 226.809L93.4887 226.814L93.9306 226.408ZM94.2506 221.192L94.7066 221.582L94.7091 221.579L94.2506 221.192ZM96.9866 219.96L97.0397 219.362L97.0132 219.36H96.9866V219.96ZM97.7066 220.024L97.6535 220.622L97.7661 220.632L97.8746 220.6L97.7066 220.024ZM99.5626 220.456L99.052 220.771L99.0589 220.782L99.5626 220.456ZM99.9626 222.008L99.3633 222.037L99.3918 222.636L99.9912 222.607L99.9626 222.008ZM101.243 221.8L101.078 221.223L101.076 221.224L101.243 221.8ZM101.467 221.736L101.891 221.312L101.641 221.062L101.302 221.159L101.467 221.736ZM101.627 222.408L101.029 222.459L101.029 222.462L101.627 222.408ZM101.643 222.584L101.916 223.118L102.277 222.934L102.24 222.53L101.643 222.584ZM99.8826 223.16L99.765 222.572L99.3758 222.649L99.2951 223.038L99.8826 223.16ZM98.4906 226.024L98.0425 225.625L98.4906 226.024ZM98.0426 224.92L97.5816 224.536L97.5763 224.542L98.0426 224.92ZM98.8106 223.288L99.397 223.415L99.5545 222.688H98.8106V223.288ZM97.2266 221.16L97.8185 221.259L97.9349 220.56H97.2266V221.16ZM96.9866 221.208L96.6779 220.694L96.6071 220.736L96.5504 220.796L96.9866 221.208ZM96.4586 222.376L95.8825 222.208L95.8805 222.215L96.4586 222.376ZM95.8986 226.592C95.203 226.592 94.7191 226.38 94.3725 226.002L93.4887 226.814C94.1021 227.482 94.9303 227.792 95.8986 227.792V226.592ZM94.3766 226.007C94.0252 225.616 93.8106 225.031 93.8106 224.168H92.6106C92.6106 225.225 92.876 226.133 93.4846 226.809L94.3766 226.007ZM93.8106 224.168C93.8106 223.122 94.1157 222.273 94.7066 221.582L93.7946 220.802C92.9989 221.732 92.6106 222.867 92.6106 224.168H93.8106ZM94.7091 221.579C95.2818 220.901 96.0222 220.56 96.9866 220.56V219.36C95.6897 219.36 94.6061 219.841 93.7921 220.805L94.7091 221.579ZM96.9335 220.558L97.6535 220.622L97.7598 219.426L97.0397 219.362L96.9335 220.558ZM97.8746 220.6C98.0861 220.538 98.2691 220.512 98.4266 220.512V219.312C98.1362 219.312 97.8391 219.36 97.5386 219.448L97.8746 220.6ZM98.4266 220.512C98.812 220.512 98.9657 220.631 99.0521 220.771L100.073 220.141C99.7116 219.555 99.1079 219.312 98.4266 219.312V220.512ZM99.0589 220.782C99.2125 221.019 99.3338 221.417 99.3633 222.037L100.562 221.979C100.527 221.255 100.382 220.618 100.066 220.13L99.0589 220.782ZM99.9912 222.607C100.483 222.584 100.956 222.508 101.409 222.376L101.076 221.224C100.718 221.327 100.338 221.389 99.9341 221.409L99.9912 222.607ZM101.407 222.377L101.631 222.313L101.302 221.159L101.078 221.223L101.407 222.377ZM101.042 222.16C101.012 222.13 100.993 222.103 100.983 222.087C100.973 222.07 100.968 222.059 100.967 222.056C100.965 222.052 100.971 222.064 100.979 222.099C100.996 222.17 101.014 222.286 101.029 222.459L102.224 222.357C102.207 222.156 102.183 221.974 102.146 221.821C102.118 221.701 102.057 221.478 101.891 221.312L101.042 222.16ZM101.029 222.462L101.045 222.638L102.24 222.53L102.224 222.354L101.029 222.462ZM101.37 222.05C100.951 222.264 100.42 222.441 99.765 222.572L100 223.748C100.732 223.602 101.374 223.395 101.916 223.118L101.37 222.05ZM99.2951 223.038C99.0795 224.077 98.6586 224.933 98.0425 225.625L98.9387 226.423C99.7093 225.558 100.216 224.504 100.47 223.282L99.2951 223.038ZM98.0425 225.625C97.462 226.277 96.7606 226.592 95.8986 226.592V227.792C97.106 227.792 98.1325 227.328 98.9387 226.423L98.0425 225.625ZM95.6186 224.104C95.6186 224.631 95.682 225.116 95.8711 225.491C95.97 225.686 96.1118 225.868 96.3113 226C96.5142 226.134 96.7416 226.192 96.9706 226.192V224.992C96.949 224.992 96.957 224.988 96.972 224.998C96.9835 225.006 96.9686 225.002 96.9421 224.949C96.8806 224.828 96.8186 224.569 96.8186 224.104H95.6186ZM96.9706 226.192C97.593 226.192 98.104 225.798 98.509 225.298L97.5763 224.542C97.256 224.938 97.0523 224.992 96.9706 224.992V226.192ZM98.5036 225.304C98.9461 224.773 99.2404 224.138 99.397 223.415L98.2242 223.161C98.1035 223.718 97.8858 224.171 97.5817 224.536L98.5036 225.304ZM98.8106 222.688C98.3532 222.688 98.1214 222.578 98.0023 222.463C97.8877 222.353 97.7786 222.144 97.7786 221.72H96.5786C96.5786 222.341 96.7416 222.916 97.1709 223.329C97.5958 223.737 98.18 223.888 98.8106 223.888V222.688ZM97.7786 221.72C97.7786 221.574 97.7915 221.42 97.8185 221.259L96.6348 221.061C96.5977 221.284 96.5786 221.503 96.5786 221.72H97.7786ZM97.2266 220.56C97.0795 220.56 96.8695 220.579 96.6779 220.694L97.2953 221.722C97.2479 221.751 97.2119 221.759 97.2043 221.76C97.1958 221.762 97.2015 221.76 97.2266 221.76V220.56ZM96.5504 220.796C96.2605 221.103 96.0535 221.62 95.8825 222.208L97.0347 222.544C97.205 221.958 97.35 221.697 97.4228 221.62L96.5504 220.796ZM95.8805 222.215C95.7065 222.842 95.6186 223.472 95.6186 224.104H96.8186C96.8186 223.584 96.8907 223.062 97.0367 222.537L95.8805 222.215ZM100.815 225.256L100.216 225.229L100.215 225.242V225.256H100.815ZM100.975 221.736L101.575 221.763L101.575 221.75V221.736H100.975ZM100.879 221.16L100.317 221.371L100.322 221.383L100.879 221.16ZM100.415 220.472L99.8255 220.361L99.7727 220.643L99.9585 220.861L100.415 220.472ZM100.463 220.216L100.318 219.634L99.9444 219.727L99.8735 220.105L100.463 220.216ZM103.615 220.296L103.164 220.691L103.173 220.701L103.615 220.296ZM103.727 223.352L103.137 223.244L103.727 223.352ZM104.623 225.16L104.995 225.631L105.206 225.464L105.222 225.195L104.623 225.16ZM104.767 223.592L104.17 223.533L104.767 223.592ZM104.799 220.552L104.522 220.02L104.123 220.228L104.211 220.67L104.799 220.552ZM106.079 220.2L106.183 220.791L106.079 220.2ZM107.615 220.04L108.152 219.772L107.986 219.44H107.615V220.04ZM107.487 223.096L108.078 223.202L108.078 223.201L107.487 223.096ZM108.463 224.808L108.93 225.185L108.934 225.18L108.463 224.808ZM109.263 223.416L109.837 223.592L109.944 223.244L109.685 222.989L109.263 223.416ZM108.095 222.264L107.498 222.206L107.47 222.49L107.674 222.691L108.095 222.264ZM108.383 221.032L108.942 221.249L108.944 221.244L108.383 221.032ZM108.799 220.184L109.279 220.544L109.287 220.534L109.294 220.524L108.799 220.184ZM108.975 219.928V219.328H108.66L108.481 219.588L108.975 219.928ZM110.495 223.24L109.942 223.008L109.939 223.016L110.495 223.24ZM109.471 225.112L109.958 225.463L109.961 225.459L109.471 225.112ZM107.983 226.584L108.329 227.075L107.983 226.584ZM104.751 226.216L105.303 225.981L104.989 225.244L104.37 225.752L104.751 226.216ZM101.215 226.744L100.775 227.152L101.215 226.744ZM101.415 225.283L101.575 221.763L100.376 221.709L100.216 225.229L101.415 225.283ZM101.575 221.736C101.575 221.457 101.536 221.186 101.436 220.937L100.322 221.383C100.351 221.454 100.375 221.567 100.375 221.736H101.575ZM101.441 220.949C101.338 220.675 101.125 220.379 100.872 220.083L99.9585 220.861C100.197 221.141 100.292 221.303 100.317 221.371L101.441 220.949ZM101.005 220.583L101.053 220.327L99.8735 220.105L99.8255 220.361L101.005 220.583ZM100.609 220.798C101.395 220.601 102.014 220.512 102.479 220.512V219.312C101.877 219.312 101.152 219.425 100.318 219.634L100.609 220.798ZM102.479 220.512C102.937 220.512 103.105 220.624 103.164 220.691L104.067 219.901C103.677 219.456 103.088 219.312 102.479 219.312V220.512ZM103.173 220.701C103.277 220.815 103.367 221.01 103.367 221.368H104.567C104.567 220.808 104.423 220.289 104.058 219.891L103.173 220.701ZM103.367 221.368C103.367 221.76 103.296 222.377 103.137 223.244L104.317 223.46C104.479 222.577 104.567 221.872 104.567 221.368H103.367ZM103.137 223.244C102.978 224.111 102.887 224.756 102.887 225.128H104.087C104.087 224.882 104.156 224.342 104.317 223.46L103.137 223.244ZM102.887 225.128C102.887 225.315 102.91 225.552 103.03 225.762C103.179 226.021 103.441 226.176 103.743 226.176V224.976C103.79 224.976 103.861 224.987 103.934 225.03C104.006 225.072 104.05 225.127 104.072 225.166C104.093 225.202 104.095 225.223 104.093 225.212C104.091 225.202 104.087 225.176 104.087 225.128H102.887ZM103.743 226.176C104.19 226.176 104.62 225.927 104.995 225.631L104.252 224.689C104.099 224.809 103.976 224.885 103.883 224.93C103.837 224.951 103.802 224.963 103.778 224.97C103.754 224.976 103.743 224.976 103.743 224.976V226.176ZM105.222 225.195C105.232 225.029 105.278 224.521 105.364 223.651L104.17 223.533C104.085 224.391 104.036 224.929 104.024 225.125L105.222 225.195ZM105.364 223.651C105.45 222.784 105.495 222.119 105.495 221.672H104.295C104.295 222.057 104.255 222.672 104.17 223.533L105.364 223.651ZM105.495 221.672C105.495 221.217 105.461 220.803 105.388 220.434L104.211 220.67C104.265 220.941 104.295 221.274 104.295 221.672H105.495ZM105.077 221.084C105.233 221.002 105.58 220.897 106.183 220.791L105.976 219.609C105.363 219.717 104.856 219.846 104.522 220.02L105.077 221.084ZM106.183 220.791C106.771 220.688 107.246 220.64 107.615 220.64V219.44C107.152 219.44 106.603 219.499 105.976 219.609L106.183 220.791ZM107.079 220.308C107.11 220.371 107.159 220.558 107.159 220.952H108.359C108.359 220.514 108.313 220.093 108.152 219.772L107.079 220.308ZM107.159 220.952C107.159 221.298 107.078 221.965 106.896 222.991L108.078 223.201C108.259 222.179 108.359 221.417 108.359 220.952H107.159ZM106.897 222.99C106.717 223.992 106.615 224.713 106.615 225.096H107.815C107.815 224.839 107.894 224.227 108.078 223.202L106.897 222.99ZM106.615 225.096C106.615 225.286 106.638 225.524 106.754 225.734C106.817 225.848 106.912 225.962 107.049 226.045C107.187 226.128 107.335 226.16 107.471 226.16V224.96C107.522 224.96 107.595 224.973 107.67 225.017C107.743 225.062 107.784 225.117 107.805 225.154C107.823 225.187 107.824 225.205 107.821 225.19C107.819 225.177 107.815 225.147 107.815 225.096H106.615ZM107.471 226.16C107.789 226.16 108.064 226.009 108.274 225.85C108.493 225.684 108.711 225.455 108.93 225.185L107.997 224.431C107.81 224.662 107.66 224.809 107.549 224.894C107.428 224.985 107.409 224.96 107.471 224.96V226.16ZM108.934 225.18C109.364 224.636 109.679 224.106 109.837 223.592L108.69 223.24C108.592 223.558 108.373 223.956 107.993 224.436L108.934 225.18ZM109.685 222.989L108.517 221.837L107.674 222.691L108.842 223.843L109.685 222.989ZM108.692 222.322C108.73 221.936 108.814 221.579 108.942 221.249L107.824 220.815C107.654 221.253 107.546 221.717 107.498 222.206L108.692 222.322ZM108.944 221.244C109.089 220.862 109.204 220.644 109.279 220.544L108.319 219.824C108.139 220.065 107.976 220.413 107.822 220.82L108.944 221.244ZM109.294 220.524L109.47 220.268L108.481 219.588L108.305 219.844L109.294 220.524ZM108.975 220.528C109.555 220.528 109.879 220.648 110.05 220.786C110.196 220.905 110.311 221.103 110.311 221.496H111.511C111.511 220.843 111.304 220.258 110.805 219.854C110.33 219.469 109.686 219.328 108.975 219.328V220.528ZM110.311 221.496C110.311 221.891 110.201 222.391 109.942 223.008L111.049 223.472C111.344 222.766 111.511 222.103 111.511 221.496H110.311ZM109.939 223.016C109.69 223.633 109.371 224.216 108.982 224.765L109.961 225.459C110.403 224.835 110.767 224.169 111.052 223.464L109.939 223.016ZM108.985 224.761C108.607 225.283 108.159 225.727 107.638 226.093L108.329 227.075C108.959 226.631 109.503 226.093 109.958 225.463L108.985 224.761ZM107.638 226.093C107.133 226.448 106.692 226.592 106.303 226.592V227.792C107.003 227.792 107.681 227.53 108.329 227.075L107.638 226.093ZM106.303 226.592C106.011 226.592 105.809 226.53 105.667 226.44C105.527 226.352 105.402 226.212 105.303 225.981L104.199 226.451C104.378 226.871 104.65 227.218 105.028 227.456C105.403 227.692 105.839 227.792 106.303 227.792V226.592ZM104.37 225.752C103.674 226.325 103.004 226.576 102.351 226.576V227.776C103.341 227.776 104.271 227.387 105.132 226.68L104.37 225.752ZM102.351 226.576C101.983 226.576 101.781 226.472 101.656 226.336L100.775 227.152C101.182 227.592 101.738 227.776 102.351 227.776V226.576ZM101.656 226.336C101.547 226.219 101.415 225.917 101.415 225.256H100.215C100.215 226.003 100.35 226.693 100.775 227.152L101.656 226.336Z" fill="black" mask="url(#path-5-outside-1_942_8372)"/>
<path fill-rule="evenodd" clip-rule="evenodd" d="M79.6669 51.7381C70.035 51.9907 59.0889 57.9257 59.0889 57.9257C59.827 62.3814 59.503 69.471 59.503 69.471C52.1575 51.3953 36.6745 46.0376 36.6745 46.0376C32.7137 52.8024 33.4698 59.1524 33.4698 59.1524C34.136 56.1037 39.8071 54.1193 39.8071 54.1193C48.2868 61.7501 50.3392 78.7072 50.3392 78.7072C44.9021 77.8774 43.2638 74.4138 43.2638 74.4138C39.9691 82.4955 45.1541 95.7005 45.1541 95.7005C42.7597 95.2856 40.8693 93.4816 40.8693 93.4816C33.4518 118.557 50.9153 128.46 50.9153 128.46C48.3588 125.249 49.349 119.062 49.349 119.062C52.5716 130.282 58.0087 127.071 64.5439 126.783C59.503 129.849 56.6944 134.233 55.7582 138.671C58.8908 139.212 61.8974 140.835 64.2559 143.902C61.3753 142.712 58.3867 142.008 55.3981 141.792C54.2819 141.719 53.1657 141.701 52.0495 141.774C53.2017 142.495 50.7172 143.523 50.7172 143.523C52.0495 143.217 53.6338 143 55.3981 142.982C55.4522 144.101 55.6322 145.201 55.9203 146.247C58.3327 145.76 60.9612 146.085 63.5718 147.528C61.2313 147.564 58.9448 147.925 56.8024 148.611C55.5962 148.989 54.444 149.476 53.3277 150.072C54.624 149.927 52.9137 152.327 52.9137 152.327C53.9399 151.353 55.3801 150.342 57.3245 149.603C57.6846 150.234 58.0987 150.847 58.5668 151.407C60.5112 149.693 63.1037 148.592 66.2543 148.665C64.0398 149.891 62.0775 151.425 60.4031 153.211C59.4489 154.239 58.5848 155.357 57.8646 156.566C58.6928 155.664 58.9629 158.406 58.9448 158.496C59.3589 157.035 60.0971 155.357 61.3753 153.896C65.2821 156.368 70.9172 156.638 77.7405 152.886C79.7929 144.299 69.0988 142.152 69.0988 142.152C66.0562 141.413 68.4327 130.679 68.4327 130.679C68.4327 130.679 69.2249 137.823 73.6717 137.733C73.6717 137.733 78.5327 138.22 79.6849 140.457C80.8371 138.238 85.6981 137.733 85.6981 137.733C90.145 137.823 90.9191 130.679 90.9191 130.679C90.9191 130.679 93.3136 141.413 90.253 142.152C90.253 142.152 79.5409 144.299 81.6113 152.886C88.4346 156.638 94.0697 156.368 97.9765 153.896C99.2548 155.357 99.9929 157.035 100.407 158.496C100.371 158.388 100.659 155.646 101.487 156.566C100.749 155.375 99.9029 154.257 98.9487 153.211C97.2924 151.425 95.312 149.891 93.0976 148.665C96.2482 148.592 98.8407 149.693 100.785 151.407C101.253 150.847 101.667 150.252 102.027 149.603C103.972 150.342 105.412 151.371 106.438 152.327C106.438 152.327 104.728 149.927 106.024 150.072C104.908 149.494 103.738 149.007 102.549 148.611C100.389 147.925 98.1025 147.564 95.7801 147.528C98.3906 146.067 101.019 145.76 103.432 146.247C103.72 145.201 103.9 144.101 103.954 142.982C105.718 143 107.302 143.235 108.635 143.523C108.635 143.523 106.15 142.495 107.302 141.774C106.186 141.701 105.07 141.719 103.954 141.792C100.965 142.008 97.9765 142.712 95.0959 143.902C97.4544 140.835 100.479 139.212 103.594 138.671C102.657 134.233 99.8489 129.831 94.8079 126.783C101.343 127.071 106.78 130.282 110.003 119.062C110.003 119.062 110.993 125.249 108.437 128.46C108.437 128.46 125.9 118.557 118.483 93.4816C118.483 93.4816 116.592 95.3036 114.198 95.7005C114.198 95.7005 119.383 82.4955 116.088 74.4138C116.088 74.4138 114.45 77.8774 109.013 78.7072C109.013 78.7072 111.065 61.7501 119.545 54.1193C119.545 54.1193 125.234 56.1037 125.882 59.1524C125.882 59.1524 126.62 52.8024 122.677 46.0376C122.677 46.0376 107.194 51.3953 99.8669 69.471C99.8669 69.471 99.5428 62.3814 100.281 57.9257C100.245 57.9257 89.2988 51.9726 79.6669 51.7381Z" fill="#859596"/>
<path fill-rule="evenodd" clip-rule="evenodd" d="M79.667 156.44C79.667 156.44 75.5982 160.607 70.3591 160.697C70.3591 160.697 73.6898 165.478 79.667 165.027C85.6441 165.478 88.9748 160.697 88.9748 160.697C83.7358 160.607 79.667 156.44 79.667 156.44Z" fill="#556566"/>
<path fill-rule="evenodd" clip-rule="evenodd" d="M102.513 148.611C100.353 147.925 98.0666 147.564 95.7441 147.528C98.3547 146.067 100.983 145.761 103.396 146.248C103.684 145.201 103.864 144.101 103.918 142.982C105.682 143 107.266 143.235 108.599 143.524C108.527 144.949 108.347 146.554 107.933 148.214C110.651 150.126 112.595 153.085 113.1 156.133C111.425 153.896 109.409 152.074 107.14 150.703C105.682 149.837 104.134 149.134 102.513 148.611Z" fill="black"/>
<path fill-rule="evenodd" clip-rule="evenodd" d="M98.9127 153.193C97.2563 151.407 95.276 149.874 93.0615 148.647C96.2121 148.575 98.8046 149.675 100.749 151.389C101.217 150.83 101.631 150.234 101.991 149.585C103.936 150.325 105.376 151.353 106.402 152.309C105.754 153.554 104.926 154.744 103.882 155.827C105.052 158.605 105.232 161.762 104.332 164.413C103.954 161.906 103.144 159.561 101.991 157.45C101.145 155.917 100.119 154.474 98.9127 153.193Z" fill="black"/>
<path fill-rule="evenodd" clip-rule="evenodd" d="M52.4817 101.654C52.4817 101.654 61.9876 100.463 64.13 106.976C64.13 106.976 61.8615 108.581 58.7289 108.743C58.7289 108.743 59.8091 109.285 61.3574 109.483C66.6145 110.151 66.1284 115.346 68.5409 120.668C68.5409 120.668 66.3264 106.47 71.9975 103.007C71.9975 103.007 68.3788 102.971 66.8485 105.316C66.8485 105.316 63.3918 98.1362 54.4621 98.1001C54.4621 98.1001 49.3131 98.2264 47.8008 97.1079C47.8008 97.1079 48.6289 108.419 56.7845 108.653C56.7665 108.671 52.8238 105.659 52.4817 101.654Z" fill="black"/>
<path fill-rule="evenodd" clip-rule="evenodd" d="M66.8125 88.4127C74.9681 85.3641 79.649 95.5023 79.649 95.5023C79.649 95.5023 84.3479 85.346 92.4855 88.4127C92.4855 88.4127 88.4167 83.9209 83.4658 86.5186C83.4658 86.5186 83.8438 84.9852 85.9323 84.5342C85.9323 84.5342 82.1875 82.5138 79.631 85.1115C77.0745 82.5138 73.3298 84.5342 73.3298 84.5342C75.4362 84.9852 75.7963 86.5186 75.7963 86.5186C70.8993 83.9028 66.8125 88.4127 66.8125 88.4127Z" fill="black"/>
<path fill-rule="evenodd" clip-rule="evenodd" d="M106.834 101.654C106.834 101.654 97.3286 100.463 95.1861 106.976C95.1861 106.976 97.4546 108.581 100.587 108.743C100.587 108.743 99.507 109.285 97.9587 109.483C92.7017 110.151 93.1878 115.346 90.7753 120.668C90.7753 120.668 92.9897 106.47 87.3186 103.007C87.3186 103.007 90.9373 102.971 92.4676 105.316C92.4676 105.316 95.9243 98.1362 104.854 98.1001C104.854 98.1001 110.003 98.2264 111.515 97.1079C111.515 97.1079 110.687 108.419 102.532 108.653C102.55 108.671 106.51 105.659 106.834 101.654Z" fill="black"/>
<path fill-rule="evenodd" clip-rule="evenodd" d="M61.8435 95.1773C61.8435 95.1773 63.6798 96.8911 64.616 99.1821C60.9973 96.6025 55.8123 94.1852 57.7027 91.8942C61.4654 87.3482 72.5736 91.2086 75.2201 98.6229C73.7978 98.7492 72.5916 99.2362 71.5114 99.4708C65.9483 100.697 67.7306 97.0174 61.8435 95.1773ZM97.4725 95.1773C97.4725 95.1773 95.6361 96.8911 94.6999 99.1821C98.3186 96.6025 103.504 94.1852 101.613 91.8942C97.8506 87.3482 86.7424 91.2086 84.0958 98.6229C85.5181 98.7492 86.7244 99.2362 87.8046 99.4708C93.3677 100.697 91.5853 97.0174 97.4725 95.1773ZM79.667 95.5021C79.667 95.5021 74.9681 85.3458 66.8305 88.4125C66.8305 88.4125 70.8993 83.9207 75.8502 86.5184C75.8502 86.5184 75.4722 84.985 73.3837 84.534C73.3837 84.534 77.1285 82.5136 79.685 85.1113C82.2415 82.5136 85.9862 84.534 85.9862 84.534C83.8798 84.985 83.5197 86.5184 83.5197 86.5184C88.4527 83.9207 92.5395 88.4125 92.5395 88.4125C84.3479 85.3458 79.667 95.5021 79.667 95.5021ZM79.667 135.153C71.1333 125.303 70.5032 116.59 72.3395 110.601C72.7176 115.093 75.8862 118.178 75.8862 118.178C71.7634 109.266 79.667 102.267 79.667 102.267C79.667 102.267 87.5525 109.266 83.4477 118.178C83.4477 118.178 86.6343 115.075 86.9944 110.601C88.8128 116.59 88.2007 125.303 79.667 135.153ZM54.336 77.7872C54.246 77.3543 54.228 76.8852 54.282 76.3621C53.9039 70.4812 51.7075 60.7579 42.1476 53.6503C42.1476 53.6503 35.0002 52.1169 36.6925 46.0376C32.7318 52.8024 33.4879 59.1524 33.4879 59.1524C34.154 56.1037 39.8252 54.1193 39.8252 54.1193C48.3048 61.7501 50.3572 78.7072 50.3572 78.7072C44.9202 77.8774 43.2818 74.4138 43.2818 74.4138C39.9872 82.4955 45.1722 95.7005 45.1722 95.7005C42.7777 95.2856 40.8874 93.4816 40.8874 93.4816C39.8792 96.9272 39.3211 100.066 39.141 102.952C41.0674 94.9789 51.1854 105.983 51.1854 105.983C48.2148 102.574 47.8187 97.1256 47.8187 97.1256C49.349 98.2441 54.48 98.1178 54.48 98.1178C55.2362 98.1178 55.9383 98.1719 56.6045 98.2621C63.9679 99.3084 66.8665 105.334 66.8665 105.334C68.3968 102.988 72.0155 103.025 72.0155 103.025C66.3264 106.488 68.5588 120.685 68.5588 120.685C67.0645 117.366 66.6864 114.101 65.3362 111.954C65.3362 111.954 66.7044 125.358 57.6847 126.747C60.7633 124.636 61.6274 121.028 61.6274 121.028C56.6765 127.143 50.4292 122.092 50.4292 122.092C51.5094 124.582 52.7697 125.989 54.192 126.71C57.0905 128.208 60.6192 126.981 64.562 126.801C61.8435 128.46 59.7551 130.499 58.2788 132.736C58.2788 132.736 67.5686 126.296 67.5326 137.588C67.5866 134.377 68.4148 130.679 68.4148 130.679C68.4148 130.679 69.2069 137.823 73.6538 137.733C73.6538 137.733 78.5148 138.22 79.667 140.457C80.8192 138.238 85.6802 137.733 85.6802 137.733C90.127 137.823 90.9012 130.679 90.9012 130.679C90.9012 130.679 91.7293 134.377 91.7834 137.588C91.7474 126.278 101.037 132.736 101.037 132.736C99.5609 130.499 97.4905 128.46 94.7539 126.801C98.6967 126.981 102.225 128.208 105.124 126.71C106.546 125.971 107.807 124.582 108.887 122.092C108.887 122.092 102.639 127.143 97.6885 121.028C97.6885 121.028 98.5527 124.636 101.631 126.747C92.6115 125.376 93.9798 111.954 93.9798 111.954C92.6295 114.101 92.2514 117.366 90.7572 120.685C90.7572 120.685 92.9716 106.488 87.3005 103.025C87.3005 103.025 90.9192 102.988 92.4495 105.334C92.4495 105.334 95.3481 99.3084 102.712 98.2621C103.378 98.1719 104.098 98.1178 104.836 98.1178C104.836 98.1178 109.985 98.2441 111.497 97.1256C111.497 97.1256 111.101 102.574 108.131 105.983C108.131 105.983 118.249 94.997 120.175 102.952C119.977 100.066 119.437 96.9272 118.429 93.4816C118.429 93.4816 116.538 95.3036 114.144 95.7005C114.144 95.7005 119.329 82.4955 116.034 74.4138C116.034 74.4138 114.396 77.8774 108.959 78.7072C108.959 78.7072 111.011 61.7501 119.491 54.1193C119.491 54.1193 125.18 56.1037 125.828 59.1524C125.828 59.1524 126.566 52.8024 122.623 46.0376C124.316 52.1169 117.168 53.6503 117.168 53.6503C107.608 60.7579 105.394 70.4632 105.034 76.3621C105.088 76.8672 105.052 77.3543 104.98 77.7872C104.35 81.0343 100.299 82.261 95.5281 82.2971C100.173 81.2147 100.713 77.697 100.713 77.697C93.9618 82.243 79.649 78.6712 79.649 78.6712C79.649 78.6712 65.3362 82.2249 58.5848 77.697C58.5848 77.697 59.1249 81.2147 63.7699 82.2971C59.0169 82.261 54.9481 81.0343 54.336 77.7872Z" fill="#556566"/>
<path fill-rule="evenodd" clip-rule="evenodd" d="M75.0042 151.1C72.2136 155.755 61.3755 153.86 61.3755 153.86C65.2823 156.332 70.9174 156.602 77.7407 152.85C78.5149 149.621 77.4887 147.294 75.8863 145.671C74.194 143.975 71.4575 142.604 69.081 142.135C75.7423 145.075 76.3184 150.595 68.847 152.345C68.847 152.327 72.7357 152.616 75.0042 151.1Z" fill="#556566"/>
<path fill-rule="evenodd" clip-rule="evenodd" d="M58.5669 151.389C59.3771 150.667 60.2773 150.072 61.3035 149.603C58.2609 150.812 57.3247 149.585 57.3247 149.585C57.6848 150.216 58.0989 150.83 58.5669 151.389Z" fill="#556566"/>
<path fill-rule="evenodd" clip-rule="evenodd" d="M55.9384 146.23C57.1987 145.977 58.5309 145.941 59.8812 146.176C55.8484 145.454 55.4703 143.433 55.4343 143.037C55.4883 144.137 55.6684 145.201 55.9384 146.23Z" fill="#556566"/>
<path fill-rule="evenodd" clip-rule="evenodd" d="M55.7583 138.671C56.8745 138.869 57.9727 139.194 59.0349 139.681C55.6323 137.282 57.7927 133.476 57.7927 133.476C56.8025 135.135 56.1364 136.903 55.7583 138.671Z" fill="#556566"/>
<path fill-rule="evenodd" clip-rule="evenodd" d="M100.749 151.389C99.9391 150.667 99.0389 150.072 98.0127 149.603C101.055 150.812 101.991 149.585 101.991 149.585C101.631 150.216 101.217 150.83 100.749 151.389Z" fill="#556566"/>
<path fill-rule="evenodd" clip-rule="evenodd" d="M103.378 146.23C102.117 145.977 100.785 145.941 99.4348 146.176C103.468 145.454 103.846 143.433 103.882 143.037C103.828 144.137 103.666 145.201 103.378 146.23Z" fill="#556566"/>
<path fill-rule="evenodd" clip-rule="evenodd" d="M103.558 138.671C102.441 138.869 101.343 139.194 100.281 139.681C103.684 137.282 101.523 133.476 101.523 133.476C102.513 135.135 103.18 136.903 103.558 138.671Z" fill="#556566"/>
<path fill-rule="evenodd" clip-rule="evenodd" d="M79.6669 165.027C73.6897 165.478 70.3591 160.697 70.3591 160.697C75.5801 160.607 79.6669 156.44 79.6669 156.44C79.6669 156.44 83.7357 160.607 88.9747 160.697C88.9567 160.679 85.6261 165.478 79.6669 165.027ZM61.3753 153.86C60.0971 155.322 59.3589 156.999 58.9448 158.461C60.5111 159.308 62.3655 159.958 64.5619 160.355C67.6225 166.019 73.6537 168.851 79.6669 168.851C85.6801 168.851 91.7113 166.019 94.7719 160.355C96.9683 159.976 98.8227 159.308 100.389 158.461C99.9749 156.999 99.2367 155.322 97.9585 153.86C94.0517 156.332 88.4166 156.602 81.5933 152.85C79.5409 144.263 90.235 142.117 90.235 142.117C93.2776 141.377 90.9011 130.644 90.9011 130.644C90.9011 130.644 90.1089 137.787 85.6801 137.697C85.6801 137.697 80.8191 138.184 79.6669 140.421C78.5147 138.202 73.6537 137.697 73.6537 137.697C69.2068 137.787 68.4147 130.644 68.4147 130.644C68.4147 130.644 66.0202 141.377 69.0808 142.117C69.0808 142.117 79.7929 144.263 77.7225 152.85C70.8992 156.602 65.2641 156.332 61.3753 153.86Z" fill="black"/>
<path fill-rule="evenodd" clip-rule="evenodd" d="M56.8205 148.611C58.9809 147.925 61.2673 147.564 63.5898 147.528C60.9793 146.067 58.3508 145.761 55.9383 146.248C55.6502 145.201 55.4702 144.101 55.4162 142.982C53.6518 143 52.0675 143.235 50.7353 143.524C50.8073 144.949 50.9873 146.554 51.4014 148.214C48.6829 150.126 46.7385 153.085 46.2344 156.133C47.9087 153.896 49.9251 152.074 52.1935 150.703C53.6338 149.837 55.1821 149.134 56.8205 148.611Z" fill="black"/>
<path fill-rule="evenodd" clip-rule="evenodd" d="M60.4033 153.193C62.0596 151.407 64.04 149.874 66.2544 148.647C63.1038 148.575 60.5113 149.675 58.5669 151.389C58.0988 150.83 57.6848 150.234 57.3247 149.585C55.3803 150.325 53.94 151.353 52.9138 152.309C53.5619 153.554 54.3901 154.744 55.4343 155.827C54.2641 158.605 54.084 161.762 54.9842 164.413C55.3623 161.906 56.1725 159.561 57.3247 157.45C58.1709 155.917 59.2151 154.474 60.4033 153.193Z" fill="black"/>
<path fill-rule="evenodd" clip-rule="evenodd" d="M52.4817 101.654C52.8057 105.658 56.7665 108.671 56.7665 108.671C54.282 108.599 52.4637 107.48 51.1494 105.983C51.1494 105.983 52.7517 110.475 60.9793 110.475C60.9793 110.475 63.8059 110.673 65.3182 111.936C64.508 110.637 63.3378 109.735 61.3574 109.483C59.8271 109.284 58.7469 108.743 58.7469 108.743C61.8795 108.581 64.148 106.975 64.148 106.975C62.0055 100.445 52.4817 101.654 52.4817 101.654Z" fill="#D5E5E6"/>
<path fill-rule="evenodd" clip-rule="evenodd" d="M106.834 101.654C106.51 105.658 102.549 108.671 102.549 108.671C105.034 108.599 106.852 107.48 108.149 105.983C108.149 105.983 106.546 110.475 98.3186 110.475C98.3186 110.475 95.492 110.673 93.9797 111.936C94.7899 110.637 95.9601 109.735 97.9405 109.483C99.4888 109.284 100.569 108.743 100.569 108.743C97.4364 108.581 95.168 106.975 95.168 106.975C97.3284 100.445 106.834 101.654 106.834 101.654Z" fill="#D5E5E6"/>
<path fill-rule="evenodd" clip-rule="evenodd" d="M50.4473 110.475C46.0004 102.051 39.051 106.2 39.051 106.2C39.4651 121.985 50.9154 128.479 50.9154 128.479C50.1952 127.577 49.7631 126.44 49.5111 125.286C46.1084 120.956 48.971 116.428 48.971 116.428C53.8319 122.039 60.1692 116.428 60.1692 116.428C54.066 118.846 50.4473 110.475 50.4473 110.475Z" fill="#A5B5B6"/>
<path fill-rule="evenodd" clip-rule="evenodd" d="M108.869 110.475C113.316 102.051 120.265 106.2 120.265 106.2C119.851 121.985 108.401 128.479 108.401 128.479C109.121 127.577 109.553 126.44 109.805 125.286C113.207 120.956 110.345 116.428 110.345 116.428C105.484 122.039 99.1467 116.428 99.1467 116.428C105.25 118.846 108.869 110.475 108.869 110.475Z" fill="#A5B5B6"/>
<path fill-rule="evenodd" clip-rule="evenodd" d="M59.485 69.471C52.1576 51.3953 36.6746 46.0376 36.6746 46.0376C36.6746 46.0376 38.4209 51.1067 43.6959 52.0808C43.6959 52.0808 55.3442 61.3532 59.485 69.471Z" fill="#A5B5B6"/>
<path fill-rule="evenodd" clip-rule="evenodd" d="M79.6669 51.7383C70.035 51.9908 59.0889 57.9258 59.0889 57.9258C59.827 62.3816 59.5029 69.4712 59.5029 69.4712C63.3737 64.9252 63.4637 60.4514 63.4637 60.4514C65.9122 61.0467 68.1807 65.304 79.6669 65.304C90.9911 65.304 93.4216 61.0467 95.8701 60.4514C95.8701 60.4514 95.9601 64.9252 99.8309 69.4712C99.8309 69.4712 99.5068 62.3816 100.245 57.9258C100.245 57.9258 89.2988 51.9728 79.6669 51.7383Z" fill="#A5B5B6"/>
<path fill-rule="evenodd" clip-rule="evenodd" d="M122.642 46.0376C122.642 46.0376 107.158 51.3953 99.8311 69.471C103.972 61.3532 115.62 52.0989 115.62 52.0989C120.895 51.1067 122.642 46.0376 122.642 46.0376Z" fill="#A5B5B6"/>
<path fill-rule="evenodd" clip-rule="evenodd" d="M84.312 151.1C87.1025 155.755 97.9406 153.86 97.9406 153.86C94.0339 156.332 88.3988 156.602 81.5754 152.85C80.8013 149.621 81.8275 147.294 83.4298 145.671C85.1221 143.975 87.8586 142.604 90.2351 142.135C83.5738 145.075 82.9977 150.595 90.4692 152.345C90.4692 152.327 86.5984 152.616 84.312 151.1Z" fill="#556566"/>
<path fill-rule="evenodd" clip-rule="evenodd" d="M108.401 128.461C108.401 128.461 125.864 118.557 118.447 93.4819C118.447 93.4819 116.556 95.3039 114.162 95.7007C114.162 95.7007 119.347 82.4958 116.052 74.4141C116.052 74.4141 114.414 77.8777 108.977 78.7075C108.977 78.7075 111.029 61.7503 119.509 54.1196C119.509 54.1196 125.198 56.1039 125.846 59.1526C125.846 59.1526 126.584 52.8027 122.641 46.0378C122.641 46.0378 107.158 51.3956 99.831 69.4712C99.831 69.4712 99.5069 62.3817 100.245 57.9259C100.245 57.9259 89.2989 51.9909 79.667 51.7383C70.0351 51.9909 59.0889 57.9259 59.0889 57.9259C59.8271 62.3817 59.503 69.4712 59.503 69.4712C52.1576 51.3956 36.6745 46.0378 36.6745 46.0378C32.7138 52.8027 33.4699 59.1526 33.4699 59.1526C34.136 56.1039 39.8072 54.1196 39.8072 54.1196C48.2868 61.7503 50.3392 78.7075 50.3392 78.7075C44.9022 77.8777 43.2638 74.4141 43.2638 74.4141C39.9692 82.4958 45.1542 95.7007 45.1542 95.7007C42.7597 95.2858 40.8694 93.4819 40.8694 93.4819C33.4519 118.557 50.9153 128.461 50.9153 128.461C48.3588 125.25 49.349 119.062 49.349 119.062C52.5717 130.283 58.0087 127.072 64.544 126.783C59.503 129.85 56.6945 134.233 55.7583 138.671C58.8909 139.212 61.8975 140.836 64.256 143.902C61.3754 142.712 58.3868 142.008 55.3982 141.792C53.8319 141.684 52.2656 141.72 50.6993 141.882C47.2246 142.261 43.8039 143.361 40.6173 145.219C42.7597 141.846 46.6845 139.375 50.9333 138.671C50.9514 138.617 50.9514 138.581 50.9514 138.581C22.2717 124.221 36.1344 87.7453 36.1344 87.7453C18.671 62.6703 34.9822 39.3091 34.9822 39.3091C46.5945 40.4636 56.6405 52.7666 56.6405 52.7666C65.4442 47.9861 79.649 47.6434 79.649 47.6434C79.649 47.6434 93.8538 47.9681 102.658 52.7666C102.658 52.7666 112.703 40.4636 124.316 39.3091C124.316 39.3091 140.627 62.6523 123.164 87.7453C123.164 87.7453 137.044 124.221 108.347 138.581C108.347 138.581 108.347 138.617 108.365 138.671C112.613 139.375 116.538 141.846 118.681 145.219C115.494 143.361 112.073 142.279 108.599 141.882C107.032 141.702 105.466 141.684 103.9 141.792C100.911 142.008 97.9226 142.712 95.042 143.902C97.4005 140.836 100.425 139.212 103.54 138.671C102.603 134.233 99.7949 129.832 94.754 126.783C101.289 127.072 106.726 130.283 109.949 119.062C109.967 119.062 110.957 125.25 108.401 128.461Z" fill="black"/>
<path fill-rule="evenodd" clip-rule="evenodd" d="M58.6568 100.896C59.9891 100.896 61.0513 101.978 61.0513 103.295C61.0513 104.63 59.9711 105.695 58.6568 105.695C57.5046 105.695 56.5324 104.883 56.2983 103.782C56.8745 103.764 57.3425 103.295 57.3425 102.718C57.3425 102.303 57.1085 101.96 56.7844 101.78C57.2345 101.239 57.9007 100.896 58.6568 100.896Z" fill="black"/>
<path fill-rule="evenodd" clip-rule="evenodd" d="M100.659 100.896C99.3269 100.896 98.2646 101.978 98.2646 103.295C98.2646 104.63 99.3449 105.695 100.659 105.695C101.811 105.695 102.784 104.883 103.018 103.782C102.441 103.764 101.973 103.295 101.973 102.718C101.973 102.303 102.207 101.96 102.531 101.78C102.081 101.239 101.415 100.896 100.659 100.896Z" fill="black"/>
<path d="M103.126 51.2869L116.286 26.8974C114.72 27.0237 113.298 27.8174 112.109 28.8096C111.659 29.1884 111.245 29.6214 110.867 30.0543C110.525 28.99 109.535 28.2143 108.347 28.2143C106.906 28.1963 105.682 29.4049 105.664 30.8481C105.646 32.3453 106.852 33.554 108.329 33.554C108.383 33.554 107.86 34.6725 107.428 35.3399C106.042 37.5047 104.44 38.8757 102.135 38.8757C99.0748 38.8757 96.6083 36.3862 96.6083 33.3375C96.6083 32.4355 96.7703 31.0104 97.4364 29.7116C97.7065 29.1704 98.2286 28.7916 98.8047 28.5931C100.011 28.1782 100.875 27.0237 100.875 25.6707C100.875 23.7585 99.1468 22.2612 97.1664 22.6401C95.9781 22.8746 95.006 23.8126 94.7719 25.0033C94.6099 25.7609 94.7359 26.4825 95.042 27.0778C95.33 27.619 95.42 28.2504 95.276 28.8457C94.4118 32.201 91.8013 34.7807 88.8127 34.7446C83.5017 34.6544 81.8994 30.5053 81.7374 27.0778C82.4755 27.4206 83.3397 27.5649 84.2398 27.3664C85.8422 27.0417 87.1204 25.7068 87.3545 24.0652C87.7145 21.702 85.9862 19.6455 83.7177 19.4651C83.7357 19.2126 83.7537 18.96 83.7537 18.7074C83.7537 15.6948 82.4395 12.9889 80.3511 11.1128C78.2627 12.9889 76.9484 15.6948 76.9484 18.7074C76.9484 18.96 76.9664 19.2126 76.9844 19.4651C74.734 19.6455 73.0056 21.702 73.3477 24.0652C73.5817 25.6888 74.86 27.0237 76.4623 27.3664C77.3625 27.5468 78.2267 27.4206 78.9648 27.0778C78.8028 30.5234 77.2185 34.6725 71.8894 34.7446C68.9008 34.7987 66.2903 32.201 65.4261 28.8457C65.2641 28.2504 65.3721 27.637 65.6602 27.0778C65.9662 26.4825 66.0923 25.7609 65.9302 25.0033C65.6782 23.8126 64.724 22.8746 63.5358 22.6401C61.5554 22.2612 59.827 23.7585 59.827 25.6707C59.827 27.0237 60.6912 28.1782 61.8974 28.5931C62.4736 28.7916 62.9957 29.1704 63.2657 29.7116C63.9138 31.0104 64.0939 32.4355 64.0939 33.3375C64.0939 36.4042 61.6094 38.8757 58.5668 38.8757C56.2623 38.8757 54.678 37.4866 53.2738 35.3399C52.8417 34.6725 52.3196 33.554 52.3736 33.554C53.8679 33.554 55.0561 32.3273 55.0381 30.8481C55.0201 29.4049 53.7959 28.1963 52.3556 28.2143C51.1853 28.2143 50.1952 28.99 49.8351 30.0543C49.457 29.6214 49.0609 29.1884 48.5928 28.8096C47.4046 27.8174 46.0003 27.0056 44.416 26.8974L57.1265 51.2869C68.5408 45.5323 86.9584 43.6381 103.126 51.2869Z" fill="black"/>
<defs>
<filter id="filter0_i_942_8372" x="0" y="0" width="158" height="247" filterUnits="userSpaceOnUse" color-interpolation-filters="sRGB">
<feFlood flood-opacity="0" result="BackgroundImageFix"/>
<feBlend mode="normal" in="SourceGraphic" in2="BackgroundImageFix" result="shape"/>
<feColorMatrix in="SourceAlpha" type="matrix" values="0 0 0 0 0 0 0 0 0 0 0 0 0 0 0 0 0 0 127 0" result="hardAlpha"/>
<feOffset dy="25"/>
<feGaussianBlur stdDeviation="20"/>
<feComposite in2="hardAlpha" operator="arithmetic" k2="-1" k3="1"/>
<feColorMatrix type="matrix" values="0 0 0 0 0.450868 0 0 0 0 0.189365 0 0 0 0 0 0 0 0 1 0"/>
<feBlend mode="normal" in2="shape" result="effect1_innerShadow_942_8372"/>
</filter>
<linearGradient id="paint0_linear_942_8372" x1="73.1157" y1="5.81429" x2="73.1157" y2="247.941" gradientUnits="userSpaceOnUse">
<stop stop-color="#2D0B00"/>
<stop offset="0.804147" stop-color="#330A00"/>
</linearGradient>
<linearGradient id="paint1_linear_942_8372" x1="73.1156" y1="28.8706" x2="73.1156" y2="242.389" gradientUnits="userSpaceOnUse">
<stop stop-color="#D8C200"/>
<stop offset="0.5" stop-color="#EB8508" stop-opacity="0"/>
<stop offset="1" stop-color="#FE480F"/>
</linearGradient>
<linearGradient id="paint2_linear_942_8372" x1="80.4998" y1="208" x2="80.4998" y2="233.2" gradientUnits="userSpaceOnUse">
<stop stop-color="#FF5301"/>
<stop offset="1" stop-color="#FFD901"/>
</linearGradient>
<linearGradient id="paint3_linear_942_8372" x1="80.5" y1="208" x2="80.5" y2="235" gradientUnits="userSpaceOnUse">
<stop stop-color="#571100"/>
<stop offset="1" stop-color="#CE2800"/>
</linearGradient>
</defs>
</svg>
