<svg width="158" height="235" viewBox="0 0 158 235" fill="none" xmlns="http://www.w3.org/2000/svg">
<g filter="url(#filter0_i_974_518)">
<rect width="158" height="222" rx="10" fill="url(#paint0_linear_974_518)"/>
</g>
<rect x="0.5" y="0.5" width="157" height="221" rx="9.5" stroke="url(#paint1_linear_974_518)"/>
<rect x="32.5" y="208.5" width="96" height="26" rx="3.5" fill="url(#paint2_linear_974_518)" stroke="url(#paint3_linear_974_518)"/>
<mask id="path-4-outside-1_974_518" maskUnits="userSpaceOnUse" x="48" y="214" width="64" height="18" fill="black">
<rect fill="white" x="48" y="214" width="64" height="18"/>
<path d="M53.072 222.792C52.7733 222.792 52.5547 222.787 52.416 222.776C51.9893 224.717 51.776 226.019 51.776 226.68C51.1787 226.957 50.3947 227.096 49.424 227.096C49.1573 227.096 48.9013 227.08 48.656 227.048C48.656 226.376 48.9493 224.819 49.536 222.376C50.1227 219.923 50.416 218.403 50.416 217.816C50.416 217.635 50.352 217.427 50.224 217.192C50.1067 216.957 49.984 216.771 49.856 216.632L49.68 216.408L49.744 216.024C50.1493 215.949 50.832 215.869 51.792 215.784C52.7627 215.688 53.6533 215.64 54.464 215.64C55.6587 215.64 56.544 215.885 57.12 216.376C57.696 216.867 57.984 217.528 57.984 218.36C57.984 219.651 57.568 220.712 56.736 221.544C55.9147 222.376 54.6933 222.792 53.072 222.792ZM53.04 221.416C53.6373 221.416 54.096 221.075 54.416 220.392C54.7467 219.709 54.912 218.888 54.912 217.928C54.912 217.149 54.656 216.76 54.144 216.76L53.632 216.824C53.632 217.24 53.3333 218.771 52.736 221.416H53.04ZM62.1281 226.104C61.7868 226.403 61.3388 226.659 60.7841 226.872C60.2295 227.085 59.7228 227.192 59.2641 227.192C58.8161 227.192 58.4481 227.064 58.1601 226.808C57.8721 226.541 57.7281 226.163 57.7281 225.672C57.7281 225.181 57.9948 223.816 58.5281 221.576C59.0721 219.325 59.3441 217.656 59.3441 216.568C59.3441 216.333 59.3121 216.035 59.2481 215.672C60.2508 215.395 61.2215 215.256 62.1601 215.256C62.2561 215.427 62.3041 215.704 62.3041 216.088C62.3041 216.813 62.0321 218.397 61.4881 220.84C60.9548 223.272 60.6881 224.675 60.6881 225.048C60.6881 225.421 60.7521 225.608 60.8801 225.608C60.9868 225.608 61.2161 225.539 61.5681 225.4L61.7441 225.32L62.1281 226.104ZM70.3661 220.52C70.1421 221.213 69.9501 222.04 69.7901 223C69.6301 223.949 69.5501 224.616 69.5501 225C69.5501 225.373 69.6088 225.56 69.7261 225.56L70.5261 225.336L70.8141 226.136C70.4728 226.403 70.0355 226.648 69.5021 226.872C68.9795 227.085 68.5155 227.192 68.1101 227.192C67.4168 227.192 66.9795 226.893 66.7981 226.296C65.9555 226.893 65.2088 227.192 64.5581 227.192C63.9181 227.192 63.4221 226.957 63.0701 226.488C62.7181 226.019 62.5421 225.347 62.5421 224.472C62.5421 223.267 62.8515 222.205 63.4701 221.288C64.0888 220.371 64.9048 219.912 65.9181 219.912C66.4728 219.912 67.0381 220.067 67.6141 220.376C67.6995 220.184 67.7688 220.045 67.8221 219.96C68.5901 219.96 69.4381 220.147 70.3661 220.52ZM65.5501 224.28C65.5501 224.813 65.5875 225.149 65.6621 225.288C65.7368 225.427 65.8755 225.496 66.0781 225.496C66.2808 225.496 66.4781 225.416 66.6701 225.256C66.7128 224.019 66.9155 222.723 67.2781 221.368C67.1181 221.272 66.9315 221.224 66.7181 221.224C66.5155 221.224 66.3288 221.341 66.1581 221.576C65.9981 221.811 65.8755 222.104 65.7901 222.456C65.6301 223.128 65.5501 223.736 65.5501 224.28ZM78.5621 220.024H78.6901C78.6368 220.301 78.5461 220.899 78.4181 221.816C78.1301 223.907 77.8208 225.485 77.4901 226.552C76.6688 229.24 75.3515 230.584 73.5381 230.584C72.9941 230.584 72.5515 230.467 72.2101 230.232C71.8795 230.008 71.7141 229.709 71.7141 229.336C71.7141 228.973 71.7995 228.669 71.9701 228.424C72.1515 228.189 72.4075 227.992 72.7381 227.832C73.3035 227.555 73.9968 227.325 74.8181 227.144C74.9035 226.739 74.9568 226.477 74.9781 226.36C74.1461 226.808 73.3568 227.032 72.6101 227.032C71.5861 227.032 71.0741 226.531 71.0741 225.528C71.0741 225.176 71.1915 224.488 71.4261 223.464C71.6608 222.429 71.7781 221.715 71.7781 221.32C71.7781 220.925 71.7515 220.632 71.6981 220.44C72.9568 220.173 73.9328 220.04 74.6261 220.04C74.7115 220.168 74.7541 220.424 74.7541 220.808C74.7541 221.181 74.6315 221.912 74.3861 223C74.1515 224.088 74.0341 224.728 74.0341 224.92C74.0341 225.251 74.1941 225.416 74.5141 225.416C74.6955 225.416 74.9035 225.368 75.1381 225.272C75.2235 224.728 75.3408 223.901 75.4901 222.792C75.6501 221.672 75.7621 220.904 75.8261 220.488C76.1035 220.36 76.5195 220.253 77.0741 220.168C77.6395 220.072 78.1355 220.024 78.5621 220.024ZM72.8501 229.032C72.8501 229.277 73.0101 229.4 73.3301 229.4C73.4901 229.4 73.6981 229.288 73.9541 229.064C74.2208 228.851 74.4341 228.531 74.5941 228.104C73.4315 228.307 72.8501 228.616 72.8501 229.032ZM82.7874 227.096H82.5154C82.5154 226.456 82.814 224.824 83.4114 222.2C84.0087 219.576 84.3074 218.056 84.3074 217.64C84.3074 217.459 84.2487 217.256 84.1314 217.032C84.0247 216.808 83.918 216.632 83.8114 216.504L83.6514 216.296L83.6994 215.976C84.3607 215.752 85.5127 215.64 87.1554 215.64C87.3474 216.045 87.4434 216.504 87.4434 217.016V217.048C88.7234 216.109 89.8434 215.64 90.8034 215.64C91.3687 215.64 91.8327 215.811 92.1954 216.152C92.558 216.483 92.7394 216.963 92.7394 217.592C92.7394 218.211 92.494 219.464 92.0034 221.352C91.5127 223.24 91.2674 224.392 91.2674 224.808C91.2674 225.213 91.3367 225.416 91.4754 225.416C91.6674 225.416 91.9554 225.347 92.3394 225.208L92.6754 226.12C91.63 226.835 90.6594 227.192 89.7634 227.192C89.2514 227.192 88.8567 227.059 88.5794 226.792C88.3127 226.515 88.1794 226.061 88.1794 225.432C88.1794 224.803 88.4087 223.608 88.8674 221.848C89.3367 220.077 89.5714 218.979 89.5714 218.552C89.5714 218.008 89.3314 217.736 88.8514 217.736C88.4994 217.736 87.9714 217.955 87.2674 218.392C87.1714 218.904 86.9687 219.789 86.6594 221.048C85.9767 223.917 85.6354 225.795 85.6354 226.68C85.166 226.957 84.2167 227.096 82.7874 227.096ZM95.8986 227.192C95.0666 227.192 94.4106 226.931 93.9306 226.408C93.4506 225.875 93.2106 225.128 93.2106 224.168C93.2106 222.995 93.5573 222.003 94.2506 221.192C94.944 220.371 95.856 219.96 96.9866 219.96L97.7066 220.024C97.9626 219.949 98.2026 219.912 98.4266 219.912C98.96 219.912 99.3386 220.093 99.5626 220.456C99.7973 220.819 99.9306 221.336 99.9626 222.008C100.411 221.987 100.837 221.917 101.243 221.8L101.467 221.736C101.541 221.811 101.595 222.035 101.627 222.408L101.643 222.584C101.163 222.829 100.576 223.021 99.8826 223.16C99.648 224.291 99.184 225.245 98.4906 226.024C97.7973 226.803 96.9333 227.192 95.8986 227.192ZM96.2186 224.104C96.2186 225.096 96.4693 225.592 96.9706 225.592C97.3226 225.592 97.68 225.368 98.0426 224.92C98.416 224.472 98.672 223.928 98.8106 223.288C97.7226 223.288 97.1786 222.765 97.1786 221.72C97.1786 221.539 97.1946 221.352 97.2266 221.16C97.12 221.16 97.04 221.176 96.9866 221.208C96.8053 221.4 96.6293 221.789 96.4586 222.376C96.2986 222.952 96.2186 223.528 96.2186 224.104ZM100.815 225.256L100.975 221.736C100.975 221.512 100.943 221.32 100.879 221.16C100.815 220.989 100.661 220.76 100.415 220.472L100.463 220.216C101.274 220.013 101.946 219.912 102.479 219.912C103.013 219.912 103.391 220.04 103.615 220.296C103.85 220.552 103.967 220.909 103.967 221.368C103.967 221.816 103.887 222.477 103.727 223.352C103.567 224.227 103.487 224.819 103.487 225.128C103.487 225.427 103.573 225.576 103.743 225.576C103.978 225.576 104.271 225.437 104.623 225.16C104.634 224.979 104.682 224.456 104.767 223.592C104.853 222.728 104.895 222.088 104.895 221.672C104.895 221.245 104.863 220.872 104.799 220.552C105.045 220.424 105.471 220.307 106.079 220.2C106.687 220.093 107.199 220.04 107.615 220.04C107.711 220.232 107.759 220.536 107.759 220.952C107.759 221.357 107.669 222.072 107.487 223.096C107.306 224.109 107.215 224.776 107.215 225.096C107.215 225.405 107.301 225.56 107.471 225.56C107.727 225.56 108.058 225.309 108.463 224.808C108.869 224.296 109.135 223.832 109.263 223.416L108.095 222.264C108.138 221.827 108.234 221.416 108.383 221.032C108.533 220.637 108.671 220.355 108.799 220.184L108.975 219.928C110.266 219.928 110.911 220.451 110.911 221.496C110.911 221.997 110.773 222.579 110.495 223.24C110.229 223.901 109.887 224.525 109.471 225.112C109.055 225.688 108.559 226.179 107.983 226.584C107.407 226.989 106.847 227.192 106.303 227.192C105.546 227.192 105.029 226.867 104.751 226.216C103.973 226.856 103.173 227.176 102.351 227.176C101.861 227.176 101.482 227.032 101.215 226.744C100.949 226.456 100.815 225.96 100.815 225.256Z"/>
</mask>
<path d="M53.072 222.792C52.7733 222.792 52.5547 222.787 52.416 222.776C51.9893 224.717 51.776 226.019 51.776 226.68C51.1787 226.957 50.3947 227.096 49.424 227.096C49.1573 227.096 48.9013 227.08 48.656 227.048C48.656 226.376 48.9493 224.819 49.536 222.376C50.1227 219.923 50.416 218.403 50.416 217.816C50.416 217.635 50.352 217.427 50.224 217.192C50.1067 216.957 49.984 216.771 49.856 216.632L49.68 216.408L49.744 216.024C50.1493 215.949 50.832 215.869 51.792 215.784C52.7627 215.688 53.6533 215.64 54.464 215.64C55.6587 215.64 56.544 215.885 57.12 216.376C57.696 216.867 57.984 217.528 57.984 218.36C57.984 219.651 57.568 220.712 56.736 221.544C55.9147 222.376 54.6933 222.792 53.072 222.792ZM53.04 221.416C53.6373 221.416 54.096 221.075 54.416 220.392C54.7467 219.709 54.912 218.888 54.912 217.928C54.912 217.149 54.656 216.76 54.144 216.76L53.632 216.824C53.632 217.24 53.3333 218.771 52.736 221.416H53.04ZM62.1281 226.104C61.7868 226.403 61.3388 226.659 60.7841 226.872C60.2295 227.085 59.7228 227.192 59.2641 227.192C58.8161 227.192 58.4481 227.064 58.1601 226.808C57.8721 226.541 57.7281 226.163 57.7281 225.672C57.7281 225.181 57.9948 223.816 58.5281 221.576C59.0721 219.325 59.3441 217.656 59.3441 216.568C59.3441 216.333 59.3121 216.035 59.2481 215.672C60.2508 215.395 61.2215 215.256 62.1601 215.256C62.2561 215.427 62.3041 215.704 62.3041 216.088C62.3041 216.813 62.0321 218.397 61.4881 220.84C60.9548 223.272 60.6881 224.675 60.6881 225.048C60.6881 225.421 60.7521 225.608 60.8801 225.608C60.9868 225.608 61.2161 225.539 61.5681 225.4L61.7441 225.32L62.1281 226.104ZM70.3661 220.52C70.1421 221.213 69.9501 222.04 69.7901 223C69.6301 223.949 69.5501 224.616 69.5501 225C69.5501 225.373 69.6088 225.56 69.7261 225.56L70.5261 225.336L70.8141 226.136C70.4728 226.403 70.0355 226.648 69.5021 226.872C68.9795 227.085 68.5155 227.192 68.1101 227.192C67.4168 227.192 66.9795 226.893 66.7981 226.296C65.9555 226.893 65.2088 227.192 64.5581 227.192C63.9181 227.192 63.4221 226.957 63.0701 226.488C62.7181 226.019 62.5421 225.347 62.5421 224.472C62.5421 223.267 62.8515 222.205 63.4701 221.288C64.0888 220.371 64.9048 219.912 65.9181 219.912C66.4728 219.912 67.0381 220.067 67.6141 220.376C67.6995 220.184 67.7688 220.045 67.8221 219.96C68.5901 219.96 69.4381 220.147 70.3661 220.52ZM65.5501 224.28C65.5501 224.813 65.5875 225.149 65.6621 225.288C65.7368 225.427 65.8755 225.496 66.0781 225.496C66.2808 225.496 66.4781 225.416 66.6701 225.256C66.7128 224.019 66.9155 222.723 67.2781 221.368C67.1181 221.272 66.9315 221.224 66.7181 221.224C66.5155 221.224 66.3288 221.341 66.1581 221.576C65.9981 221.811 65.8755 222.104 65.7901 222.456C65.6301 223.128 65.5501 223.736 65.5501 224.28ZM78.5621 220.024H78.6901C78.6368 220.301 78.5461 220.899 78.4181 221.816C78.1301 223.907 77.8208 225.485 77.4901 226.552C76.6688 229.24 75.3515 230.584 73.5381 230.584C72.9941 230.584 72.5515 230.467 72.2101 230.232C71.8795 230.008 71.7141 229.709 71.7141 229.336C71.7141 228.973 71.7995 228.669 71.9701 228.424C72.1515 228.189 72.4075 227.992 72.7381 227.832C73.3035 227.555 73.9968 227.325 74.8181 227.144C74.9035 226.739 74.9568 226.477 74.9781 226.36C74.1461 226.808 73.3568 227.032 72.6101 227.032C71.5861 227.032 71.0741 226.531 71.0741 225.528C71.0741 225.176 71.1915 224.488 71.4261 223.464C71.6608 222.429 71.7781 221.715 71.7781 221.32C71.7781 220.925 71.7515 220.632 71.6981 220.44C72.9568 220.173 73.9328 220.04 74.6261 220.04C74.7115 220.168 74.7541 220.424 74.7541 220.808C74.7541 221.181 74.6315 221.912 74.3861 223C74.1515 224.088 74.0341 224.728 74.0341 224.92C74.0341 225.251 74.1941 225.416 74.5141 225.416C74.6955 225.416 74.9035 225.368 75.1381 225.272C75.2235 224.728 75.3408 223.901 75.4901 222.792C75.6501 221.672 75.7621 220.904 75.8261 220.488C76.1035 220.36 76.5195 220.253 77.0741 220.168C77.6395 220.072 78.1355 220.024 78.5621 220.024ZM72.8501 229.032C72.8501 229.277 73.0101 229.4 73.3301 229.4C73.4901 229.4 73.6981 229.288 73.9541 229.064C74.2208 228.851 74.4341 228.531 74.5941 228.104C73.4315 228.307 72.8501 228.616 72.8501 229.032ZM82.7874 227.096H82.5154C82.5154 226.456 82.814 224.824 83.4114 222.2C84.0087 219.576 84.3074 218.056 84.3074 217.64C84.3074 217.459 84.2487 217.256 84.1314 217.032C84.0247 216.808 83.918 216.632 83.8114 216.504L83.6514 216.296L83.6994 215.976C84.3607 215.752 85.5127 215.64 87.1554 215.64C87.3474 216.045 87.4434 216.504 87.4434 217.016V217.048C88.7234 216.109 89.8434 215.64 90.8034 215.64C91.3687 215.64 91.8327 215.811 92.1954 216.152C92.558 216.483 92.7394 216.963 92.7394 217.592C92.7394 218.211 92.494 219.464 92.0034 221.352C91.5127 223.24 91.2674 224.392 91.2674 224.808C91.2674 225.213 91.3367 225.416 91.4754 225.416C91.6674 225.416 91.9554 225.347 92.3394 225.208L92.6754 226.12C91.63 226.835 90.6594 227.192 89.7634 227.192C89.2514 227.192 88.8567 227.059 88.5794 226.792C88.3127 226.515 88.1794 226.061 88.1794 225.432C88.1794 224.803 88.4087 223.608 88.8674 221.848C89.3367 220.077 89.5714 218.979 89.5714 218.552C89.5714 218.008 89.3314 217.736 88.8514 217.736C88.4994 217.736 87.9714 217.955 87.2674 218.392C87.1714 218.904 86.9687 219.789 86.6594 221.048C85.9767 223.917 85.6354 225.795 85.6354 226.68C85.166 226.957 84.2167 227.096 82.7874 227.096ZM95.8986 227.192C95.0666 227.192 94.4106 226.931 93.9306 226.408C93.4506 225.875 93.2106 225.128 93.2106 224.168C93.2106 222.995 93.5573 222.003 94.2506 221.192C94.944 220.371 95.856 219.96 96.9866 219.96L97.7066 220.024C97.9626 219.949 98.2026 219.912 98.4266 219.912C98.96 219.912 99.3386 220.093 99.5626 220.456C99.7973 220.819 99.9306 221.336 99.9626 222.008C100.411 221.987 100.837 221.917 101.243 221.8L101.467 221.736C101.541 221.811 101.595 222.035 101.627 222.408L101.643 222.584C101.163 222.829 100.576 223.021 99.8826 223.16C99.648 224.291 99.184 225.245 98.4906 226.024C97.7973 226.803 96.9333 227.192 95.8986 227.192ZM96.2186 224.104C96.2186 225.096 96.4693 225.592 96.9706 225.592C97.3226 225.592 97.68 225.368 98.0426 224.92C98.416 224.472 98.672 223.928 98.8106 223.288C97.7226 223.288 97.1786 222.765 97.1786 221.72C97.1786 221.539 97.1946 221.352 97.2266 221.16C97.12 221.16 97.04 221.176 96.9866 221.208C96.8053 221.4 96.6293 221.789 96.4586 222.376C96.2986 222.952 96.2186 223.528 96.2186 224.104ZM100.815 225.256L100.975 221.736C100.975 221.512 100.943 221.32 100.879 221.16C100.815 220.989 100.661 220.76 100.415 220.472L100.463 220.216C101.274 220.013 101.946 219.912 102.479 219.912C103.013 219.912 103.391 220.04 103.615 220.296C103.85 220.552 103.967 220.909 103.967 221.368C103.967 221.816 103.887 222.477 103.727 223.352C103.567 224.227 103.487 224.819 103.487 225.128C103.487 225.427 103.573 225.576 103.743 225.576C103.978 225.576 104.271 225.437 104.623 225.16C104.634 224.979 104.682 224.456 104.767 223.592C104.853 222.728 104.895 222.088 104.895 221.672C104.895 221.245 104.863 220.872 104.799 220.552C105.045 220.424 105.471 220.307 106.079 220.2C106.687 220.093 107.199 220.04 107.615 220.04C107.711 220.232 107.759 220.536 107.759 220.952C107.759 221.357 107.669 222.072 107.487 223.096C107.306 224.109 107.215 224.776 107.215 225.096C107.215 225.405 107.301 225.56 107.471 225.56C107.727 225.56 108.058 225.309 108.463 224.808C108.869 224.296 109.135 223.832 109.263 223.416L108.095 222.264C108.138 221.827 108.234 221.416 108.383 221.032C108.533 220.637 108.671 220.355 108.799 220.184L108.975 219.928C110.266 219.928 110.911 220.451 110.911 221.496C110.911 221.997 110.773 222.579 110.495 223.24C110.229 223.901 109.887 224.525 109.471 225.112C109.055 225.688 108.559 226.179 107.983 226.584C107.407 226.989 106.847 227.192 106.303 227.192C105.546 227.192 105.029 226.867 104.751 226.216C103.973 226.856 103.173 227.176 102.351 227.176C101.861 227.176 101.482 227.032 101.215 226.744C100.949 226.456 100.815 225.96 100.815 225.256Z" fill="white"/>
<path d="M52.416 222.776L52.462 222.178L51.942 222.138L51.83 222.647L52.416 222.776ZM51.776 226.68L52.0287 227.224L52.376 227.063V226.68H51.776ZM48.656 227.048H48.056V227.575L48.5784 227.643L48.656 227.048ZM49.536 222.376L50.1194 222.516L50.1195 222.516L49.536 222.376ZM50.224 217.192L49.6873 217.46L49.6921 217.47L49.6973 217.479L50.224 217.192ZM49.856 216.632L49.3842 217.003L49.3989 217.021L49.4151 217.039L49.856 216.632ZM49.68 216.408L49.0882 216.309L49.0446 216.571L49.2082 216.779L49.68 216.408ZM49.744 216.024L49.6353 215.434L49.2214 215.51L49.1522 215.925L49.744 216.024ZM51.792 215.784L51.8451 216.382L51.8511 216.381L51.792 215.784ZM57.12 216.376L57.5091 215.919V215.919L57.12 216.376ZM56.736 221.544L56.3117 221.12L56.309 221.122L56.736 221.544ZM54.416 220.392L53.876 220.13L53.8727 220.137L54.416 220.392ZM54.144 216.76V216.16H54.1066L54.0696 216.165L54.144 216.76ZM53.632 216.824L53.5576 216.229L53.032 216.294V216.824H53.632ZM52.736 221.416L52.1507 221.284L51.9854 222.016H52.736V221.416ZM53.072 222.192C52.7754 222.192 52.5762 222.187 52.462 222.178L52.37 223.374C52.5331 223.387 52.7712 223.392 53.072 223.392V222.192ZM51.83 222.647C51.4057 224.577 51.176 225.943 51.176 226.68H52.376C52.376 226.095 52.5729 224.857 53.002 222.905L51.83 222.647ZM51.5233 226.136C51.0336 226.363 50.3453 226.496 49.424 226.496V227.696C50.444 227.696 51.3238 227.551 52.0287 227.224L51.5233 226.136ZM49.424 226.496C49.1813 226.496 48.9513 226.481 48.7336 226.453L48.5784 227.643C48.8514 227.679 49.1334 227.696 49.424 227.696V226.496ZM49.256 227.048C49.256 226.773 49.3191 226.265 49.4656 225.487C49.6097 224.722 49.8272 223.733 50.1194 222.516L48.9526 222.236C48.6581 223.462 48.4356 224.473 48.2864 225.265C48.1396 226.044 48.056 226.651 48.056 227.048H49.256ZM50.1195 222.516C50.4138 221.285 50.6361 220.282 50.7851 219.51C50.931 218.754 51.016 218.174 51.016 217.816H49.816C49.816 218.044 49.7543 218.518 49.6069 219.282C49.4626 220.03 49.2448 221.014 48.9525 222.236L50.1195 222.516ZM51.016 217.816C51.016 217.498 50.9057 217.189 50.7507 216.905L49.6973 217.479C49.7983 217.665 49.816 217.771 49.816 217.816H51.016ZM50.7607 216.924C50.6271 216.657 50.4748 216.418 50.2969 216.225L49.4151 217.039C49.4932 217.124 49.5862 217.258 49.6873 217.46L50.7607 216.924ZM50.3278 216.261L50.1518 216.037L49.2082 216.779L49.3842 217.003L50.3278 216.261ZM50.2718 216.507L50.3358 216.123L49.1522 215.925L49.0882 216.309L50.2718 216.507ZM49.8527 216.614C50.2278 216.545 50.8858 216.467 51.8451 216.382L51.7389 215.186C50.7782 215.272 50.0708 215.354 49.6353 215.434L49.8527 216.614ZM51.8511 216.381C52.8059 216.287 53.6765 216.24 54.464 216.24V215.04C53.6301 215.04 52.7194 215.089 51.7329 215.187L51.8511 216.381ZM54.464 216.24C55.5942 216.24 56.3109 216.475 56.7309 216.833L57.5091 215.919C56.7771 215.296 55.7232 215.04 54.464 215.04V216.24ZM56.7309 216.833C57.1588 217.197 57.384 217.684 57.384 218.36H58.584C58.584 217.372 58.2332 216.536 57.5091 215.919L56.7309 216.833ZM57.384 218.36C57.384 219.508 57.0198 220.412 56.3117 221.12L57.1603 221.968C58.1162 221.012 58.584 219.793 58.584 218.36H57.384ZM56.309 221.122C55.6382 221.802 54.5962 222.192 53.072 222.192V223.392C54.7905 223.392 56.1911 222.95 57.163 221.966L56.309 221.122ZM53.04 222.016C53.4615 222.016 53.8525 221.893 54.1902 221.641C54.5203 221.396 54.7702 221.05 54.9593 220.647L53.8727 220.137C53.7418 220.417 53.6024 220.583 53.4738 220.679C53.3528 220.769 53.2158 220.816 53.04 220.816V222.016ZM54.956 220.654C55.3352 219.871 55.512 218.955 55.512 217.928H54.312C54.312 218.821 54.1581 219.548 53.876 220.13L54.956 220.654ZM55.512 217.928C55.512 217.492 55.4438 217.061 55.2213 216.722C54.97 216.34 54.5784 216.16 54.144 216.16V217.36C54.1701 217.36 54.187 217.362 54.1966 217.365C54.2014 217.366 54.2045 217.367 54.2063 217.367C54.2072 217.368 54.2078 217.368 54.2082 217.368C54.2085 217.368 54.2087 217.368 54.2087 217.368C54.2087 217.368 54.2087 217.368 54.2086 217.368C54.2086 217.368 54.2085 217.368 54.2084 217.368C54.2082 217.368 54.208 217.368 54.2078 217.368C54.2074 217.367 54.2072 217.367 54.2076 217.367C54.208 217.368 54.2121 217.372 54.2187 217.382C54.2522 217.433 54.312 217.585 54.312 217.928H55.512ZM54.0696 216.165L53.5576 216.229L53.7064 217.419L54.2184 217.355L54.0696 216.165ZM53.032 216.824C53.032 216.962 52.9721 217.385 52.8191 218.169C52.6714 218.926 52.4489 219.963 52.1507 221.284L53.3213 221.548C53.6204 220.223 53.8459 219.173 53.9969 218.399C54.1425 217.653 54.232 217.102 54.232 216.824H53.032ZM52.736 222.016H53.04V220.816H52.736V222.016ZM62.1281 226.104L62.5232 226.556L62.8691 226.253L62.667 225.84L62.1281 226.104ZM60.7841 226.872L60.5687 226.312L60.7841 226.872ZM58.1601 226.808L57.7524 227.248L57.7615 227.256L58.1601 226.808ZM58.5281 221.576L57.9449 221.435L57.9444 221.437L58.5281 221.576ZM59.2481 215.672L59.0882 215.094L58.5625 215.239L58.6573 215.776L59.2481 215.672ZM62.1601 215.256L62.6831 214.962L62.511 214.656H62.1601V215.256ZM61.4881 220.84L60.9025 220.71L60.9021 220.711L61.4881 220.84ZM61.5681 225.4L61.788 225.958L61.8024 225.953L61.8164 225.946L61.5681 225.4ZM61.7441 225.32L62.283 225.056L62.0265 224.533L61.4958 224.774L61.7441 225.32ZM61.733 225.652C61.4584 225.893 61.0769 226.117 60.5687 226.312L60.9995 227.432C61.6007 227.201 62.1152 226.913 62.5232 226.556L61.733 225.652ZM60.5687 226.312C60.0635 226.506 59.6309 226.592 59.2641 226.592V227.792C59.8146 227.792 60.3954 227.664 60.9995 227.432L60.5687 226.312ZM59.2641 226.592C58.9377 226.592 58.7193 226.502 58.5587 226.36L57.7615 227.256C58.1769 227.626 58.6946 227.792 59.2641 227.792V226.592ZM58.5678 226.368C58.4318 226.242 58.3281 226.04 58.3281 225.672H57.1281C57.1281 226.285 57.3125 226.841 57.7525 227.248L58.5678 226.368ZM58.3281 225.672C58.3281 225.494 58.3822 225.085 58.517 224.395C58.6481 223.724 58.846 222.831 59.1118 221.715L57.9444 221.437C57.6769 222.561 57.4748 223.471 57.3393 224.165C57.2073 224.84 57.1281 225.36 57.1281 225.672H58.3281ZM59.1113 221.717C59.6569 219.46 59.9441 217.732 59.9441 216.568H58.7441C58.7441 217.58 58.4874 219.191 57.9449 221.435L59.1113 221.717ZM59.9441 216.568C59.9441 216.285 59.9061 215.948 59.839 215.568L58.6573 215.776C58.7182 216.122 58.7441 216.382 58.7441 216.568H59.9441ZM59.4081 216.25C60.3642 215.986 61.281 215.856 62.1601 215.856V214.656C61.1619 214.656 60.1374 214.804 59.0882 215.094L59.4081 216.25ZM61.6372 215.55C61.6539 215.58 61.7041 215.726 61.7041 216.088H62.9041C62.9041 215.682 62.8584 215.273 62.6831 214.962L61.6372 215.55ZM61.7041 216.088C61.7041 216.734 61.4504 218.249 60.9025 220.71L62.0738 220.97C62.6138 218.545 62.9041 216.892 62.9041 216.088H61.7041ZM60.9021 220.711C60.6349 221.93 60.4336 222.895 60.2987 223.604C60.169 224.286 60.0881 224.792 60.0881 225.048H61.2881C61.2881 224.93 61.3406 224.549 61.4776 223.828C61.6094 223.135 61.808 222.182 62.0742 220.969L60.9021 220.711ZM60.0881 225.048C60.0881 225.253 60.1037 225.473 60.1686 225.663C60.2306 225.844 60.4275 226.208 60.8801 226.208V225.008C60.9389 225.008 61.0028 225.019 61.0659 225.045C61.1285 225.071 61.1778 225.107 61.2144 225.143C61.2823 225.209 61.3025 225.27 61.3037 225.273C61.3063 225.281 61.3012 225.268 61.2962 225.225C61.2915 225.183 61.2881 225.125 61.2881 225.048H60.0881ZM60.8801 226.208C61.0293 226.208 61.1871 226.166 61.3058 226.13C61.4423 226.089 61.6044 226.031 61.788 225.958L61.3482 224.842C61.1798 224.908 61.0513 224.954 60.9585 224.982C60.9122 224.996 60.8809 225.003 60.8619 225.007C60.8388 225.012 60.8491 225.008 60.8801 225.008V226.208ZM61.8164 225.946L61.9924 225.866L61.4958 224.774L61.3198 224.854L61.8164 225.946ZM61.2053 225.584L61.5893 226.368L62.667 225.84L62.283 225.056L61.2053 225.584ZM70.3661 220.52L70.9371 220.704L71.109 220.172L70.5901 219.963L70.3661 220.52ZM69.7901 223L70.3818 223.1L70.382 223.099L69.7901 223ZM69.7261 225.56V226.16H69.8085L69.8879 226.138L69.7261 225.56ZM70.5261 225.336L71.0907 225.133L70.9017 224.608L70.3643 224.758L70.5261 225.336ZM70.8141 226.136L71.1835 226.609L71.5258 226.341L71.3787 225.933L70.8141 226.136ZM69.5021 226.872L69.7289 227.428L69.7345 227.425L69.5021 226.872ZM66.7981 226.296L67.3723 226.122L67.1304 225.325L66.4511 225.807L66.7981 226.296ZM63.0701 226.488L62.5901 226.848L63.0701 226.488ZM63.4701 221.288L62.9727 220.953L63.4701 221.288ZM67.6141 220.376L67.3302 220.905L67.8998 221.21L68.1624 220.62L67.6141 220.376ZM67.8221 219.96V219.36H67.4896L67.3133 219.642L67.8221 219.96ZM65.6621 225.288L66.1904 225.004L65.6621 225.288ZM66.6701 225.256L67.0542 225.717L67.2605 225.545L67.2698 225.277L66.6701 225.256ZM67.2781 221.368L67.8577 221.523L67.9747 221.086L67.5868 220.854L67.2781 221.368ZM66.1581 221.576L65.6729 221.223L65.6675 221.23L65.6624 221.238L66.1581 221.576ZM65.7901 222.456L65.207 222.315L65.2064 222.317L65.7901 222.456ZM69.7952 220.336C69.5597 221.064 69.3616 221.921 69.1983 222.901L70.382 223.099C70.5386 222.159 70.7246 221.362 70.9371 220.704L69.7952 220.336ZM69.1985 222.9C69.0387 223.848 68.9501 224.56 68.9501 225H70.1501C70.1501 224.672 70.2215 224.051 70.3818 223.1L69.1985 222.9ZM68.9501 225C68.9501 225.203 68.9643 225.417 69.0217 225.6C69.0692 225.751 69.2484 226.16 69.7261 226.16V224.96C69.7936 224.96 69.8649 224.974 69.9332 225.005C70.0003 225.036 70.0505 225.076 70.0857 225.113C70.1198 225.15 70.1398 225.183 70.1504 225.203C70.1611 225.223 70.1656 225.237 70.1665 225.24C70.1678 225.244 70.1627 225.228 70.1579 225.182C70.1533 225.139 70.1501 225.079 70.1501 225H68.9501ZM69.8879 226.138L70.6879 225.914L70.3643 224.758L69.5643 224.982L69.8879 226.138ZM69.9616 225.539L70.2496 226.339L71.3787 225.933L71.0907 225.133L69.9616 225.539ZM70.4447 225.663C70.1566 225.888 69.7694 226.109 69.2698 226.319L69.7345 227.425C70.3015 227.187 70.7889 226.917 71.1835 226.609L70.4447 225.663ZM69.2754 226.316C68.7984 226.511 68.4136 226.592 68.1101 226.592V227.792C68.6173 227.792 69.1605 227.659 69.7289 227.428L69.2754 226.316ZM68.1101 226.592C67.8473 226.592 67.6928 226.536 67.6005 226.473C67.5141 226.414 67.4306 226.314 67.3723 226.122L66.224 226.47C66.347 226.875 66.5728 227.224 66.9237 227.463C67.2688 227.699 67.6796 227.792 68.1101 227.792V226.592ZM66.4511 225.807C65.6549 226.371 65.0308 226.592 64.5581 226.592V227.792C65.3868 227.792 66.256 227.416 67.1451 226.785L66.4511 225.807ZM64.5581 226.592C64.0871 226.592 63.7774 226.431 63.5501 226.128L62.5901 226.848C63.0668 227.484 63.7491 227.792 64.5581 227.792V226.592ZM63.5501 226.128C63.3059 225.802 63.1421 225.278 63.1421 224.472H61.9421C61.9421 225.416 62.1303 226.235 62.5901 226.848L63.5501 226.128ZM63.1421 224.472C63.1421 223.375 63.4217 222.433 63.9676 221.623L62.9727 220.953C62.2812 221.978 61.9421 223.158 61.9421 224.472H63.1421ZM63.9676 221.623C64.4868 220.854 65.125 220.512 65.9181 220.512V219.312C64.6846 219.312 63.6908 219.888 62.9727 220.953L63.9676 221.623ZM65.9181 220.512C66.3574 220.512 66.8259 220.634 67.3302 220.905L67.898 219.847C67.2503 219.5 66.5882 219.312 65.9181 219.312V220.512ZM68.1624 220.62C68.2458 220.432 68.3011 220.326 68.3309 220.278L67.3133 219.642C67.2364 219.765 67.1531 219.936 67.0658 220.132L68.1624 220.62ZM67.8221 220.56C68.494 220.56 69.2649 220.724 70.1422 221.077L70.5901 219.963C69.6114 219.57 68.6862 219.36 67.8221 219.36V220.56ZM64.9501 224.28C64.9501 224.558 64.9597 224.799 64.9818 224.998C65.0015 225.175 65.0378 225.394 65.1338 225.572L66.1904 225.004C66.2063 225.033 66.2048 225.042 66.1971 225.009C66.1903 224.98 66.1821 224.934 66.1745 224.866C66.1592 224.729 66.1501 224.536 66.1501 224.28H64.9501ZM65.1338 225.572C65.3441 225.963 65.7287 226.096 66.0781 226.096V224.896C66.0424 224.896 66.0549 224.89 66.0905 224.907C66.1089 224.917 66.1295 224.93 66.149 224.949C66.1684 224.968 66.1818 224.988 66.1904 225.004L65.1338 225.572ZM66.0781 226.096C66.4516 226.096 66.7804 225.945 67.0542 225.717L66.286 224.795C66.1759 224.887 66.11 224.896 66.0781 224.896V226.096ZM67.2698 225.277C67.3107 224.09 67.5053 222.84 67.8577 221.523L66.6985 221.213C66.3256 222.606 66.1149 223.947 66.0705 225.235L67.2698 225.277ZM67.5868 220.854C67.3208 220.694 67.0243 220.624 66.7181 220.624V221.824C66.8386 221.824 66.9154 221.85 66.9694 221.882L67.5868 220.854ZM66.7181 220.624C66.2498 220.624 65.9047 220.904 65.6729 221.223L66.6434 221.929C66.6972 221.855 66.7337 221.827 66.7454 221.82C66.7504 221.817 66.7492 221.818 66.7423 221.82C66.735 221.823 66.7263 221.824 66.7181 221.824V220.624ZM65.6624 221.238C65.4522 221.546 65.3049 221.911 65.207 222.315L66.3732 222.597C66.446 222.297 66.5441 222.075 66.6539 221.914L65.6624 221.238ZM65.2064 222.317C65.0384 223.023 64.9501 223.679 64.9501 224.28H66.1501C66.1501 223.793 66.2219 223.233 66.3738 222.595L65.2064 222.317ZM78.6901 220.024L79.2793 220.137L79.4165 219.424H78.6901V220.024ZM78.4181 221.816L77.8239 221.733L77.8237 221.734L78.4181 221.816ZM77.4901 226.552L76.917 226.374L76.9163 226.377L77.4901 226.552ZM72.2101 230.232L72.5501 229.738L72.5466 229.735L72.2101 230.232ZM71.9701 228.424L71.4954 228.057L71.4862 228.069L71.4776 228.081L71.9701 228.424ZM72.7381 227.832L72.9995 228.372L73.0024 228.371L72.7381 227.832ZM74.8181 227.144L74.9475 227.73L75.3255 227.646L75.4053 227.268L74.8181 227.144ZM74.9781 226.36L75.5684 226.467L75.7915 225.241L74.6937 225.832L74.9781 226.36ZM71.4261 223.464L72.011 223.598L72.0113 223.597L71.4261 223.464ZM71.6981 220.44L71.5738 219.853L70.9491 219.985L71.12 220.601L71.6981 220.44ZM74.6261 220.04L75.1254 219.707L74.9472 219.44H74.6261V220.04ZM74.3861 223L73.8008 222.868L73.7996 222.873L74.3861 223ZM75.1381 225.272L75.3653 225.827L75.6784 225.699L75.7309 225.365L75.1381 225.272ZM75.4901 222.792L74.8961 222.707L74.8955 222.712L75.4901 222.792ZM75.8261 220.488L75.5747 219.943L75.2821 220.078L75.2331 220.397L75.8261 220.488ZM77.0741 220.168L77.1654 220.761L77.1746 220.76L77.0741 220.168ZM73.9541 229.064L73.5793 228.595L73.569 228.604L73.559 228.612L73.9541 229.064ZM74.5941 228.104L75.1559 228.315L75.5241 227.333L74.4911 227.513L74.5941 228.104ZM78.5621 220.624H78.6901V219.424H78.5621V220.624ZM78.1009 219.911C78.0441 220.206 77.9514 220.819 77.8239 221.733L79.0124 221.899C79.1409 220.978 79.2295 220.397 79.2793 220.137L78.1009 219.911ZM77.8237 221.734C77.537 223.816 77.2329 225.355 76.917 226.374L78.0632 226.73C78.4087 225.615 78.7232 223.998 79.0125 221.898L77.8237 221.734ZM76.9163 226.377C76.521 227.67 76.0239 228.578 75.4576 229.156C74.907 229.718 74.2769 229.984 73.5381 229.984V231.184C74.6127 231.184 75.5479 230.778 76.3146 229.996C77.0657 229.23 77.6379 228.122 78.0639 226.727L76.9163 226.377ZM73.5381 229.984C73.0779 229.984 72.7643 229.885 72.55 229.738L71.8702 230.726C72.3386 231.048 72.9103 231.184 73.5381 231.184V229.984ZM72.5466 229.735C72.3671 229.614 72.3141 229.494 72.3141 229.336H71.1141C71.1141 229.924 71.3918 230.402 71.8736 230.729L72.5466 229.735ZM72.3141 229.336C72.3141 229.069 72.3757 228.892 72.4627 228.767L71.4776 228.081C71.2232 228.447 71.1141 228.877 71.1141 229.336H72.3141ZM72.4449 228.791C72.5575 228.645 72.7328 228.501 72.9995 228.372L72.4768 227.292C72.0821 227.483 71.7454 227.734 71.4954 228.057L72.4449 228.791ZM73.0024 228.371C73.5132 228.12 74.1583 227.904 74.9475 227.73L74.6888 226.558C73.8353 226.747 73.0937 226.989 72.4739 227.293L73.0024 228.371ZM75.4053 227.268C75.4901 226.865 75.5453 226.594 75.5684 226.467L74.3878 226.253C74.3682 226.36 74.3168 226.613 74.231 227.02L75.4053 227.268ZM74.6937 225.832C73.9264 226.245 73.2346 226.432 72.6101 226.432V227.632C73.479 227.632 74.3659 227.371 75.2626 226.888L74.6937 225.832ZM72.6101 226.432C72.1875 226.432 71.9813 226.329 71.8779 226.227C71.7768 226.128 71.6741 225.934 71.6741 225.528H70.4741C70.4741 226.125 70.6274 226.682 71.0384 227.085C71.447 227.485 72.0088 227.632 72.6101 227.632V226.432ZM71.6741 225.528C71.6741 225.255 71.7737 224.633 72.011 223.598L70.8413 223.33C70.6092 224.343 70.4741 225.097 70.4741 225.528H71.6741ZM72.0113 223.597C72.2446 222.568 72.3781 221.791 72.3781 221.32H71.1781C71.1781 221.638 71.077 222.291 70.841 223.331L72.0113 223.597ZM72.3781 221.32C72.3781 220.913 72.3522 220.553 72.2762 220.279L71.12 220.601C71.1507 220.711 71.1781 220.937 71.1781 221.32H72.3781ZM71.8225 221.027C73.0687 220.763 73.996 220.64 74.6261 220.64V219.44C73.8695 219.44 72.8449 219.584 71.5738 219.853L71.8225 221.027ZM74.1269 220.373C74.1008 220.334 74.1146 220.332 74.1303 220.427C74.1443 220.511 74.1541 220.635 74.1541 220.808H75.3541C75.3541 220.597 75.3426 220.401 75.314 220.229C75.287 220.068 75.2368 219.874 75.1254 219.707L74.1269 220.373ZM74.1541 220.808C74.1541 221.103 74.0486 221.769 73.8008 222.868L74.9714 223.132C75.2143 222.055 75.3541 221.259 75.3541 220.808H74.1541ZM73.7996 222.873C73.6817 223.42 73.5923 223.859 73.532 224.188C73.4759 224.494 73.4341 224.759 73.4341 224.92H74.6341C74.6341 224.923 74.6341 224.913 74.6369 224.885C74.6394 224.858 74.6437 224.822 74.6502 224.776C74.6633 224.683 74.6837 224.56 74.7123 224.404C74.7693 224.093 74.8558 223.668 74.9726 223.127L73.7996 222.873ZM73.4341 224.92C73.4341 225.173 73.4951 225.474 73.723 225.709C73.9544 225.948 74.2565 226.016 74.5141 226.016V224.816C74.4841 224.816 74.4827 224.812 74.4995 224.818C74.5195 224.825 74.553 224.841 74.5853 224.875C74.6531 224.945 74.6341 224.998 74.6341 224.92H73.4341ZM74.5141 226.016C74.7978 226.016 75.0852 225.942 75.3653 225.827L74.9109 224.717C74.7217 224.794 74.5932 224.816 74.5141 224.816V226.016ZM75.7309 225.365C75.8173 224.814 75.9353 223.982 76.0848 222.872L74.8955 222.712C74.7463 223.82 74.6297 224.642 74.5454 225.179L75.7309 225.365ZM76.0841 222.877C76.2441 221.757 76.3557 220.992 76.4191 220.579L75.2331 220.397C75.1685 220.816 75.0561 221.587 74.8962 222.707L76.0841 222.877ZM76.0776 221.033C76.278 220.94 76.628 220.844 77.1654 220.761L76.9829 219.575C76.4109 219.663 75.9289 219.78 75.5747 219.943L76.0776 221.033ZM77.1746 220.76C77.7172 220.667 78.1783 220.624 78.5621 220.624V219.424C78.0926 219.424 77.5617 219.477 76.9737 219.576L77.1746 220.76ZM72.2501 229.032C72.2501 229.296 72.3445 229.584 72.6051 229.784C72.8355 229.961 73.1103 230 73.3301 230V228.8C73.2865 228.8 73.2684 228.796 73.2687 228.796C73.2697 228.796 73.2979 228.803 73.3352 228.832C73.3756 228.863 73.4095 228.906 73.4304 228.954C73.4496 228.998 73.4501 229.029 73.4501 229.032H72.2501ZM73.3301 230C73.5455 230 73.7377 229.927 73.8906 229.844C74.0474 229.76 74.2008 229.645 74.3492 229.516L73.559 228.612C73.4515 228.707 73.3729 228.76 73.3217 228.788C73.2665 228.817 73.2747 228.8 73.3301 228.8V230ZM74.3289 229.533C74.7037 229.233 74.9703 228.81 75.1559 228.315L74.0323 227.893C73.898 228.252 73.7379 228.469 73.5793 228.595L74.3289 229.533ZM74.4911 227.513C73.8885 227.618 73.3787 227.759 73.0043 227.958C72.6409 228.152 72.2501 228.491 72.2501 229.032H73.4501C73.4501 229.157 73.35 229.134 73.568 229.018C73.7749 228.908 74.1371 228.793 74.6972 228.695L74.4911 227.513ZM82.5154 227.096H81.9154V227.696H82.5154V227.096ZM83.4114 222.2L82.8263 222.067L83.4114 222.2ZM84.1314 217.032L83.5897 217.29L83.5946 217.3L83.5999 217.31L84.1314 217.032ZM83.8114 216.504L83.3358 216.87L83.3429 216.879L83.3504 216.888L83.8114 216.504ZM83.6514 216.296L83.058 216.207L83.0201 216.459L83.1758 216.662L83.6514 216.296ZM83.6994 215.976L83.5069 215.408L83.1603 215.525L83.106 215.887L83.6994 215.976ZM87.1554 215.64L87.6976 215.383L87.5351 215.04H87.1554V215.64ZM87.4434 217.048H86.8434V218.232L87.7982 217.532L87.4434 217.048ZM92.1954 216.152L91.7841 216.589L91.7911 216.595L92.1954 216.152ZM92.0034 221.352L92.5841 221.503L92.0034 221.352ZM92.3394 225.208L92.9024 225.001L92.6963 224.441L92.1356 224.644L92.3394 225.208ZM92.6754 226.12L93.014 226.615L93.4 226.351L93.2384 225.913L92.6754 226.12ZM88.5794 226.792L88.1469 227.208L88.155 227.216L88.1635 227.225L88.5794 226.792ZM88.8674 221.848L88.2874 221.694L88.2868 221.697L88.8674 221.848ZM87.2674 218.392L86.9508 217.882L86.7263 218.022L86.6777 218.281L87.2674 218.392ZM86.6594 221.048L86.0767 220.905L86.0757 220.909L86.6594 221.048ZM85.6354 226.68L85.9406 227.197L86.2354 227.022V226.68H85.6354ZM82.7874 226.496H82.5154V227.696H82.7874V226.496ZM83.1154 227.096C83.1154 226.837 83.1797 226.319 83.3296 225.5C83.4767 224.696 83.6986 223.641 83.9964 222.333L82.8263 222.067C82.5268 223.383 82.3007 224.456 82.1492 225.284C82.0004 226.097 81.9154 226.715 81.9154 227.096H83.1154ZM83.9964 222.333C84.2956 221.019 84.5211 219.976 84.6721 219.208C84.8178 218.466 84.9074 217.919 84.9074 217.64H83.7074C83.7074 217.777 83.6477 218.198 83.4946 218.976C83.347 219.728 83.1245 220.757 82.8263 222.067L83.9964 222.333ZM84.9074 217.64C84.9074 217.331 84.8084 217.032 84.6629 216.754L83.5999 217.31C83.689 217.48 83.7074 217.586 83.7074 217.64H84.9074ZM84.6731 216.774C84.5543 216.525 84.4226 216.3 84.2723 216.12L83.3504 216.888C83.4135 216.964 83.4951 217.091 83.5897 217.29L84.6731 216.774ZM84.2869 216.138L84.1269 215.93L83.1758 216.662L83.3358 216.87L84.2869 216.138ZM84.2447 216.385L84.2927 216.065L83.106 215.887L83.058 216.207L84.2447 216.385ZM83.8919 216.544C84.4505 216.355 85.5136 216.24 87.1554 216.24V215.04C85.5119 215.04 84.2709 215.149 83.5069 215.408L83.8919 216.544ZM86.6131 215.897C86.7621 216.211 86.8434 216.58 86.8434 217.016H88.0434C88.0434 216.428 87.9327 215.879 87.6976 215.383L86.6131 215.897ZM86.8434 217.016V217.048H88.0434V217.016H86.8434ZM87.7982 217.532C89.0365 216.624 90.0303 216.24 90.8034 216.24V215.04C89.6564 215.04 88.4102 215.595 87.0886 216.564L87.7982 217.532ZM90.8034 216.24C91.2381 216.24 91.548 216.367 91.7842 216.589L92.6066 215.715C92.1174 215.255 91.4993 215.04 90.8034 215.04V216.24ZM91.7911 216.595C91.996 216.782 92.1394 217.081 92.1394 217.592H93.3394C93.3394 216.845 93.12 216.183 92.5996 215.709L91.7911 216.595ZM92.1394 217.592C92.1394 218.12 91.9174 219.297 91.4227 221.201L92.5841 221.503C93.0707 219.631 93.3394 218.301 93.3394 217.592H92.1394ZM91.4227 221.201C91.1763 222.149 90.9899 222.919 90.8645 223.507C90.7436 224.075 90.6674 224.527 90.6674 224.808H91.8674C91.8674 224.673 91.9139 224.341 92.0382 223.757C92.1582 223.193 92.3397 222.443 92.5841 221.503L91.4227 221.201ZM90.6674 224.808C90.6674 225.029 90.6842 225.261 90.7517 225.458C90.8161 225.647 91.0166 226.016 91.4754 226.016V224.816C91.533 224.816 91.5958 224.827 91.6578 224.853C91.7193 224.879 91.7676 224.914 91.8031 224.948C91.8375 224.982 91.8584 225.013 91.8699 225.033C91.8813 225.053 91.8861 225.067 91.8871 225.07C91.8883 225.073 91.8822 225.056 91.8765 225.006C91.8711 224.958 91.8674 224.893 91.8674 224.808H90.6674ZM91.4754 226.016C91.7788 226.016 92.1505 225.914 92.5432 225.772L92.1356 224.644C91.7602 224.779 91.556 224.816 91.4754 224.816V226.016ZM91.7764 225.415L92.1124 226.327L93.2384 225.913L92.9024 225.001L91.7764 225.415ZM92.3367 225.625C91.3515 226.298 90.4981 226.592 89.7634 226.592V227.792C90.8207 227.792 91.9086 227.371 93.014 226.615L92.3367 225.625ZM89.7634 226.592C89.3537 226.592 89.1278 226.487 88.9952 226.359L88.1635 227.225C88.5856 227.63 89.149 227.792 89.7634 227.792V226.592ZM89.0119 226.376C88.9035 226.263 88.7794 226 88.7794 225.432H87.5794C87.5794 226.123 87.7219 226.766 88.1469 227.208L89.0119 226.376ZM88.7794 225.432C88.7794 224.892 88.9865 223.77 89.448 221.999L88.2868 221.697C87.8309 223.446 87.5794 224.714 87.5794 225.432H88.7794ZM89.4473 222.002C89.6832 221.112 89.8619 220.384 89.9821 219.821C90.0985 219.276 90.1714 218.837 90.1714 218.552H88.9714C88.9714 218.694 88.9269 219.017 88.8086 219.571C88.6942 220.106 88.5209 220.813 88.2874 221.694L89.4473 222.002ZM90.1714 218.552C90.1714 218.205 90.0964 217.832 89.8413 217.543C89.5735 217.24 89.2047 217.136 88.8514 217.136V218.336C88.9162 218.336 88.9465 218.345 88.9543 218.348C88.9586 218.35 88.9501 218.347 88.9415 218.337C88.9264 218.32 88.9714 218.355 88.9714 218.552H90.1714ZM88.8514 217.136C88.5627 217.136 88.2588 217.223 87.9618 217.346C87.6575 217.472 87.3193 217.653 86.9508 217.882L87.584 218.902C87.9194 218.693 88.1973 218.547 88.421 218.454C88.652 218.359 88.7881 218.336 88.8514 218.336V217.136ZM86.6777 218.281C86.5851 218.775 86.3861 219.646 86.0767 220.905L87.242 221.191C87.5513 219.933 87.7577 219.033 87.8571 218.503L86.6777 218.281ZM86.0757 220.909C85.3971 223.761 85.0354 225.711 85.0354 226.68H86.2354C86.2354 225.879 86.5563 224.073 87.2431 221.187L86.0757 220.909ZM85.3301 226.163C85.1954 226.243 84.9318 226.333 84.4847 226.398C84.0489 226.462 83.4856 226.496 82.7874 226.496V227.696C83.5185 227.696 84.1445 227.661 84.6581 227.586C85.1603 227.512 85.6061 227.394 85.9406 227.197L85.3301 226.163ZM93.9306 226.408L93.4846 226.809L93.4887 226.814L93.9306 226.408ZM94.2506 221.192L94.7066 221.582L94.7091 221.579L94.2506 221.192ZM96.9866 219.96L97.0397 219.362L97.0132 219.36H96.9866V219.96ZM97.7066 220.024L97.6535 220.622L97.7661 220.632L97.8746 220.6L97.7066 220.024ZM99.5626 220.456L99.052 220.771L99.0589 220.782L99.5626 220.456ZM99.9626 222.008L99.3633 222.037L99.3918 222.636L99.9912 222.607L99.9626 222.008ZM101.243 221.8L101.078 221.223L101.076 221.224L101.243 221.8ZM101.467 221.736L101.891 221.312L101.641 221.062L101.302 221.159L101.467 221.736ZM101.627 222.408L101.029 222.459L101.029 222.462L101.627 222.408ZM101.643 222.584L101.916 223.118L102.277 222.934L102.24 222.53L101.643 222.584ZM99.8826 223.16L99.765 222.572L99.3758 222.649L99.2951 223.038L99.8826 223.16ZM98.4906 226.024L98.0425 225.625L98.4906 226.024ZM98.0426 224.92L97.5816 224.536L97.5763 224.542L98.0426 224.92ZM98.8106 223.288L99.397 223.415L99.5545 222.688H98.8106V223.288ZM97.2266 221.16L97.8185 221.259L97.9349 220.56H97.2266V221.16ZM96.9866 221.208L96.6779 220.694L96.6071 220.736L96.5504 220.796L96.9866 221.208ZM96.4586 222.376L95.8825 222.208L95.8805 222.215L96.4586 222.376ZM95.8986 226.592C95.203 226.592 94.7191 226.38 94.3725 226.002L93.4887 226.814C94.1021 227.482 94.9303 227.792 95.8986 227.792V226.592ZM94.3766 226.007C94.0252 225.616 93.8106 225.031 93.8106 224.168H92.6106C92.6106 225.225 92.876 226.133 93.4846 226.809L94.3766 226.007ZM93.8106 224.168C93.8106 223.122 94.1157 222.273 94.7066 221.582L93.7946 220.802C92.9989 221.732 92.6106 222.867 92.6106 224.168H93.8106ZM94.7091 221.579C95.2818 220.901 96.0222 220.56 96.9866 220.56V219.36C95.6897 219.36 94.6061 219.841 93.7921 220.805L94.7091 221.579ZM96.9335 220.558L97.6535 220.622L97.7598 219.426L97.0397 219.362L96.9335 220.558ZM97.8746 220.6C98.0861 220.538 98.2691 220.512 98.4266 220.512V219.312C98.1362 219.312 97.8391 219.36 97.5386 219.448L97.8746 220.6ZM98.4266 220.512C98.812 220.512 98.9657 220.631 99.0521 220.771L100.073 220.141C99.7116 219.555 99.1079 219.312 98.4266 219.312V220.512ZM99.0589 220.782C99.2125 221.019 99.3338 221.417 99.3633 222.037L100.562 221.979C100.527 221.255 100.382 220.618 100.066 220.13L99.0589 220.782ZM99.9912 222.607C100.483 222.584 100.956 222.508 101.409 222.376L101.076 221.224C100.718 221.327 100.338 221.389 99.9341 221.409L99.9912 222.607ZM101.407 222.377L101.631 222.313L101.302 221.159L101.078 221.223L101.407 222.377ZM101.042 222.16C101.012 222.13 100.993 222.103 100.983 222.087C100.973 222.07 100.968 222.059 100.967 222.056C100.965 222.052 100.971 222.064 100.979 222.099C100.996 222.17 101.014 222.286 101.029 222.459L102.224 222.357C102.207 222.156 102.183 221.974 102.146 221.821C102.118 221.701 102.057 221.478 101.891 221.312L101.042 222.16ZM101.029 222.462L101.045 222.638L102.24 222.53L102.224 222.354L101.029 222.462ZM101.37 222.05C100.951 222.264 100.42 222.441 99.765 222.572L100 223.748C100.732 223.602 101.374 223.395 101.916 223.118L101.37 222.05ZM99.2951 223.038C99.0795 224.077 98.6586 224.933 98.0425 225.625L98.9387 226.423C99.7093 225.558 100.216 224.504 100.47 223.282L99.2951 223.038ZM98.0425 225.625C97.462 226.277 96.7606 226.592 95.8986 226.592V227.792C97.106 227.792 98.1325 227.328 98.9387 226.423L98.0425 225.625ZM95.6186 224.104C95.6186 224.631 95.682 225.116 95.8711 225.491C95.97 225.686 96.1118 225.868 96.3113 226C96.5142 226.134 96.7416 226.192 96.9706 226.192V224.992C96.949 224.992 96.957 224.988 96.972 224.998C96.9835 225.006 96.9686 225.002 96.9421 224.949C96.8806 224.828 96.8186 224.569 96.8186 224.104H95.6186ZM96.9706 226.192C97.593 226.192 98.104 225.798 98.509 225.298L97.5763 224.542C97.256 224.938 97.0523 224.992 96.9706 224.992V226.192ZM98.5036 225.304C98.9461 224.773 99.2404 224.138 99.397 223.415L98.2242 223.161C98.1035 223.718 97.8858 224.171 97.5817 224.536L98.5036 225.304ZM98.8106 222.688C98.3532 222.688 98.1214 222.578 98.0023 222.463C97.8877 222.353 97.7786 222.144 97.7786 221.72H96.5786C96.5786 222.341 96.7416 222.916 97.1709 223.329C97.5958 223.737 98.18 223.888 98.8106 223.888V222.688ZM97.7786 221.72C97.7786 221.574 97.7915 221.42 97.8185 221.259L96.6348 221.061C96.5977 221.284 96.5786 221.503 96.5786 221.72H97.7786ZM97.2266 220.56C97.0795 220.56 96.8695 220.579 96.6779 220.694L97.2953 221.722C97.2479 221.751 97.2119 221.759 97.2043 221.76C97.1958 221.762 97.2015 221.76 97.2266 221.76V220.56ZM96.5504 220.796C96.2605 221.103 96.0535 221.62 95.8825 222.208L97.0347 222.544C97.205 221.958 97.35 221.697 97.4228 221.62L96.5504 220.796ZM95.8805 222.215C95.7065 222.842 95.6186 223.472 95.6186 224.104H96.8186C96.8186 223.584 96.8907 223.062 97.0367 222.537L95.8805 222.215ZM100.815 225.256L100.216 225.229L100.215 225.242V225.256H100.815ZM100.975 221.736L101.575 221.763L101.575 221.75V221.736H100.975ZM100.879 221.16L100.317 221.371L100.322 221.383L100.879 221.16ZM100.415 220.472L99.8255 220.361L99.7727 220.643L99.9585 220.861L100.415 220.472ZM100.463 220.216L100.318 219.634L99.9444 219.727L99.8735 220.105L100.463 220.216ZM103.615 220.296L103.164 220.691L103.173 220.701L103.615 220.296ZM103.727 223.352L103.137 223.244L103.727 223.352ZM104.623 225.16L104.995 225.631L105.206 225.464L105.222 225.195L104.623 225.16ZM104.767 223.592L104.17 223.533L104.767 223.592ZM104.799 220.552L104.522 220.02L104.123 220.228L104.211 220.67L104.799 220.552ZM106.079 220.2L106.183 220.791L106.079 220.2ZM107.615 220.04L108.152 219.772L107.986 219.44H107.615V220.04ZM107.487 223.096L108.078 223.202L108.078 223.201L107.487 223.096ZM108.463 224.808L108.93 225.185L108.934 225.18L108.463 224.808ZM109.263 223.416L109.837 223.592L109.944 223.244L109.685 222.989L109.263 223.416ZM108.095 222.264L107.498 222.206L107.47 222.49L107.674 222.691L108.095 222.264ZM108.383 221.032L108.942 221.249L108.944 221.244L108.383 221.032ZM108.799 220.184L109.279 220.544L109.287 220.534L109.294 220.524L108.799 220.184ZM108.975 219.928V219.328H108.66L108.481 219.588L108.975 219.928ZM110.495 223.24L109.942 223.008L109.939 223.016L110.495 223.24ZM109.471 225.112L109.958 225.463L109.961 225.459L109.471 225.112ZM107.983 226.584L108.329 227.075L107.983 226.584ZM104.751 226.216L105.303 225.981L104.989 225.244L104.37 225.752L104.751 226.216ZM101.215 226.744L100.775 227.152L101.215 226.744ZM101.415 225.283L101.575 221.763L100.376 221.709L100.216 225.229L101.415 225.283ZM101.575 221.736C101.575 221.457 101.536 221.186 101.436 220.937L100.322 221.383C100.351 221.454 100.375 221.567 100.375 221.736H101.575ZM101.441 220.949C101.338 220.675 101.125 220.379 100.872 220.083L99.9585 220.861C100.197 221.141 100.292 221.303 100.317 221.371L101.441 220.949ZM101.005 220.583L101.053 220.327L99.8735 220.105L99.8255 220.361L101.005 220.583ZM100.609 220.798C101.395 220.601 102.014 220.512 102.479 220.512V219.312C101.877 219.312 101.152 219.425 100.318 219.634L100.609 220.798ZM102.479 220.512C102.937 220.512 103.105 220.624 103.164 220.691L104.067 219.901C103.677 219.456 103.088 219.312 102.479 219.312V220.512ZM103.173 220.701C103.277 220.815 103.367 221.01 103.367 221.368H104.567C104.567 220.808 104.423 220.289 104.058 219.891L103.173 220.701ZM103.367 221.368C103.367 221.76 103.296 222.377 103.137 223.244L104.317 223.46C104.479 222.577 104.567 221.872 104.567 221.368H103.367ZM103.137 223.244C102.978 224.111 102.887 224.756 102.887 225.128H104.087C104.087 224.882 104.156 224.342 104.317 223.46L103.137 223.244ZM102.887 225.128C102.887 225.315 102.91 225.552 103.03 225.762C103.179 226.021 103.441 226.176 103.743 226.176V224.976C103.79 224.976 103.861 224.987 103.934 225.03C104.006 225.072 104.05 225.127 104.072 225.166C104.093 225.202 104.095 225.223 104.093 225.212C104.091 225.202 104.087 225.176 104.087 225.128H102.887ZM103.743 226.176C104.19 226.176 104.62 225.927 104.995 225.631L104.252 224.689C104.099 224.809 103.976 224.885 103.883 224.93C103.837 224.951 103.802 224.963 103.778 224.97C103.754 224.976 103.743 224.976 103.743 224.976V226.176ZM105.222 225.195C105.232 225.029 105.278 224.521 105.364 223.651L104.17 223.533C104.085 224.391 104.036 224.929 104.024 225.125L105.222 225.195ZM105.364 223.651C105.45 222.784 105.495 222.119 105.495 221.672H104.295C104.295 222.057 104.255 222.672 104.17 223.533L105.364 223.651ZM105.495 221.672C105.495 221.217 105.461 220.803 105.388 220.434L104.211 220.67C104.265 220.941 104.295 221.274 104.295 221.672H105.495ZM105.077 221.084C105.233 221.002 105.58 220.897 106.183 220.791L105.976 219.609C105.363 219.717 104.856 219.846 104.522 220.02L105.077 221.084ZM106.183 220.791C106.771 220.688 107.246 220.64 107.615 220.64V219.44C107.152 219.44 106.603 219.499 105.976 219.609L106.183 220.791ZM107.079 220.308C107.11 220.371 107.159 220.558 107.159 220.952H108.359C108.359 220.514 108.313 220.093 108.152 219.772L107.079 220.308ZM107.159 220.952C107.159 221.298 107.078 221.965 106.896 222.991L108.078 223.201C108.259 222.179 108.359 221.417 108.359 220.952H107.159ZM106.897 222.99C106.717 223.992 106.615 224.713 106.615 225.096H107.815C107.815 224.839 107.894 224.227 108.078 223.202L106.897 222.99ZM106.615 225.096C106.615 225.286 106.638 225.524 106.754 225.734C106.817 225.848 106.912 225.962 107.049 226.045C107.187 226.128 107.335 226.16 107.471 226.16V224.96C107.522 224.96 107.595 224.973 107.67 225.017C107.743 225.062 107.784 225.117 107.805 225.154C107.823 225.187 107.824 225.205 107.821 225.19C107.819 225.177 107.815 225.147 107.815 225.096H106.615ZM107.471 226.16C107.789 226.16 108.064 226.009 108.274 225.85C108.493 225.684 108.711 225.455 108.93 225.185L107.997 224.431C107.81 224.662 107.66 224.809 107.549 224.894C107.428 224.985 107.409 224.96 107.471 224.96V226.16ZM108.934 225.18C109.364 224.636 109.679 224.106 109.837 223.592L108.69 223.24C108.592 223.558 108.373 223.956 107.993 224.436L108.934 225.18ZM109.685 222.989L108.517 221.837L107.674 222.691L108.842 223.843L109.685 222.989ZM108.692 222.322C108.73 221.936 108.814 221.579 108.942 221.249L107.824 220.815C107.654 221.253 107.546 221.717 107.498 222.206L108.692 222.322ZM108.944 221.244C109.089 220.862 109.204 220.644 109.279 220.544L108.319 219.824C108.139 220.065 107.976 220.413 107.822 220.82L108.944 221.244ZM109.294 220.524L109.47 220.268L108.481 219.588L108.305 219.844L109.294 220.524ZM108.975 220.528C109.555 220.528 109.879 220.648 110.05 220.786C110.196 220.905 110.311 221.103 110.311 221.496H111.511C111.511 220.843 111.304 220.258 110.805 219.854C110.33 219.469 109.686 219.328 108.975 219.328V220.528ZM110.311 221.496C110.311 221.891 110.201 222.391 109.942 223.008L111.049 223.472C111.344 222.766 111.511 222.103 111.511 221.496H110.311ZM109.939 223.016C109.69 223.633 109.371 224.216 108.982 224.765L109.961 225.459C110.403 224.835 110.767 224.169 111.052 223.464L109.939 223.016ZM108.985 224.761C108.607 225.283 108.159 225.727 107.638 226.093L108.329 227.075C108.959 226.631 109.503 226.093 109.958 225.463L108.985 224.761ZM107.638 226.093C107.133 226.448 106.692 226.592 106.303 226.592V227.792C107.003 227.792 107.681 227.53 108.329 227.075L107.638 226.093ZM106.303 226.592C106.011 226.592 105.809 226.53 105.667 226.44C105.527 226.352 105.402 226.212 105.303 225.981L104.199 226.451C104.378 226.871 104.65 227.218 105.028 227.456C105.403 227.692 105.839 227.792 106.303 227.792V226.592ZM104.37 225.752C103.674 226.325 103.004 226.576 102.351 226.576V227.776C103.341 227.776 104.271 227.387 105.132 226.68L104.37 225.752ZM102.351 226.576C101.983 226.576 101.781 226.472 101.656 226.336L100.775 227.152C101.182 227.592 101.738 227.776 102.351 227.776V226.576ZM101.656 226.336C101.547 226.219 101.415 225.917 101.415 225.256H100.215C100.215 226.003 100.35 226.693 100.775 227.152L101.656 226.336Z" fill="black" mask="url(#path-4-outside-1_974_518)"/>
<path d="M48.64 193.192C47.488 193.192 46.5547 192.776 45.84 191.944C45.1253 191.112 44.768 189.944 44.768 188.44C44.768 187.235 44.9973 186.12 45.456 185.096C45.9253 184.061 46.5973 183.229 47.472 182.6C48.3573 181.96 49.3067 181.64 50.32 181.64C51.344 181.64 52.1867 181.843 52.848 182.248C53.52 182.653 53.856 183.187 53.856 183.848C53.856 184.499 53.6747 185.016 53.312 185.4C52.8853 185.4 52.3947 185.315 51.84 185.144C51.2853 184.973 50.8693 184.765 50.592 184.52L50.896 182.968C50.672 182.861 50.4533 182.808 50.24 182.808C49.6213 182.808 49.0773 183.347 48.608 184.424C48.1387 185.491 47.904 186.744 47.904 188.184C47.904 190.339 48.512 191.416 49.728 191.416C50.4533 191.416 51.264 191.021 52.16 190.232L52.912 190.984C52.8267 191.123 52.608 191.352 52.256 191.672C51.904 191.981 51.568 192.232 51.248 192.424C50.9387 192.616 50.544 192.792 50.064 192.952C49.5947 193.112 49.12 193.192 48.64 193.192ZM58.05 192.104C57.7087 192.403 57.2607 192.659 56.706 192.872C56.1513 193.085 55.6447 193.192 55.186 193.192C54.738 193.192 54.37 193.064 54.082 192.808C53.794 192.541 53.65 192.163 53.65 191.672C53.65 191.181 53.9167 189.816 54.45 187.576C54.994 185.325 55.266 183.656 55.266 182.568C55.266 182.333 55.234 182.035 55.17 181.672C56.1727 181.395 57.1433 181.256 58.082 181.256C58.178 181.427 58.226 181.704 58.226 182.088C58.226 182.813 57.954 184.397 57.41 186.84C56.8767 189.272 56.61 190.675 56.61 191.048C56.61 191.421 56.674 191.608 56.802 191.608C56.9087 191.608 57.138 191.539 57.49 191.4L57.666 191.32L58.05 192.104ZM58.56 191.704C58.56 191.256 58.6987 190.52 58.976 189.496C59.264 188.472 59.408 187.843 59.408 187.608C59.408 187.373 59.216 187.032 58.832 186.584L58.864 186.344C59.8347 186.131 60.9707 186.024 62.272 186.024C62.3573 186.205 62.4 186.493 62.4 186.888C62.4 187.283 62.2507 188.029 61.952 189.128C61.664 190.227 61.52 190.877 61.52 191.08C61.52 191.357 61.6533 191.496 61.92 191.496C62.1013 191.496 62.3307 191.427 62.608 191.288C62.64 191.117 62.736 190.669 62.896 189.944C63.2693 188.333 63.456 187.128 63.456 186.328C63.9467 186.115 64.784 186.008 65.968 186.008H66.4C66.4 186.488 66.256 187.427 65.968 188.824C65.6907 190.221 65.5467 191.027 65.536 191.24C65.536 191.453 65.584 191.56 65.68 191.56L66.464 191.352L66.752 192.152C66.4427 192.397 65.9947 192.632 65.408 192.856C64.8213 193.08 64.304 193.192 63.856 193.192C63.1947 193.192 62.784 192.925 62.624 192.392C61.7387 192.925 60.8907 193.192 60.08 193.192C59.0667 193.192 58.56 192.696 58.56 191.704ZM71.9039 181.928C71.9039 182.707 71.6425 184.221 71.1199 186.472C71.7385 186.099 72.3092 185.912 72.8319 185.912C73.3545 185.912 73.8132 186.131 74.2079 186.568C74.6025 187.005 74.7999 187.805 74.7999 188.968C74.7999 190.12 74.4799 191.112 73.8399 191.944C73.2105 192.776 72.4319 193.192 71.5039 193.192C70.9492 193.192 70.3999 193.043 69.8559 192.744C68.7892 193 67.8879 193.128 67.1519 193.128C67.0985 193.096 67.0719 192.915 67.0719 192.584C67.0719 191.805 67.3812 190.136 67.9999 187.576C68.6292 185.016 68.9439 183.277 68.9439 182.36C68.9439 182.125 68.9332 181.901 68.9119 181.688C69.9465 181.4 70.9119 181.256 71.8079 181.256C71.8719 181.363 71.9039 181.587 71.9039 181.928ZM71.4079 187.512C71.2585 187.512 71.0665 187.571 70.8319 187.688C70.3732 189.661 70.1065 190.989 70.0319 191.672C70.2239 191.768 70.3999 191.816 70.5599 191.816C70.9225 191.816 71.2159 191.427 71.4399 190.648C71.6745 189.869 71.7919 189.155 71.7919 188.504C71.7919 187.843 71.6639 187.512 71.4079 187.512ZM83.2595 188.792C82.9608 188.792 82.7422 188.787 82.6035 188.776C82.1768 190.717 81.9635 192.019 81.9635 192.68C81.3662 192.957 80.5822 193.096 79.6115 193.096C79.3448 193.096 79.0888 193.08 78.8435 193.048C78.8435 192.376 79.1368 190.819 79.7235 188.376C80.3102 185.923 80.6035 184.403 80.6035 183.816C80.6035 183.635 80.5395 183.427 80.4115 183.192C80.2942 182.957 80.1715 182.771 80.0435 182.632L79.8675 182.408L79.9315 182.024C80.3368 181.949 81.0195 181.869 81.9795 181.784C82.9502 181.688 83.8408 181.64 84.6515 181.64C85.8462 181.64 86.7315 181.885 87.3075 182.376C87.8835 182.867 88.1715 183.528 88.1715 184.36C88.1715 185.651 87.7555 186.712 86.9235 187.544C86.1022 188.376 84.8808 188.792 83.2595 188.792ZM83.2275 187.416C83.8248 187.416 84.2835 187.075 84.6035 186.392C84.9342 185.709 85.0995 184.888 85.0995 183.928C85.0995 183.149 84.8435 182.76 84.3315 182.76L83.8195 182.824C83.8195 183.24 83.5208 184.771 82.9235 187.416H83.2275ZM87.7006 191.704C87.7006 191.256 87.8393 190.52 88.1166 189.496C88.4046 188.472 88.5486 187.843 88.5486 187.608C88.5486 187.373 88.3566 187.032 87.9726 186.584L88.0046 186.344C88.9753 186.131 90.1113 186.024 91.4126 186.024C91.498 186.205 91.5406 186.493 91.5406 186.888C91.5406 187.283 91.3913 188.029 91.0926 189.128C90.8046 190.227 90.6606 190.877 90.6606 191.08C90.6606 191.357 90.794 191.496 91.0606 191.496C91.242 191.496 91.4713 191.427 91.7486 191.288C91.7806 191.117 91.8766 190.669 92.0366 189.944C92.41 188.333 92.5966 187.128 92.5966 186.328C93.0873 186.115 93.9246 186.008 95.1086 186.008H95.5406C95.5406 186.488 95.3966 187.427 95.1086 188.824C94.8313 190.221 94.6873 191.027 94.6766 191.24C94.6766 191.453 94.7246 191.56 94.8206 191.56L95.6046 191.352L95.8926 192.152C95.5833 192.397 95.1353 192.632 94.5486 192.856C93.962 193.08 93.4446 193.192 92.9966 193.192C92.3353 193.192 91.9246 192.925 91.7646 192.392C90.8793 192.925 90.0313 193.192 89.2206 193.192C88.2073 193.192 87.7006 192.696 87.7006 191.704ZM96.7725 193.096H96.3725C96.3725 192.339 96.5165 191.283 96.8045 189.928C97.1032 188.563 97.2525 187.805 97.2525 187.656C97.2525 187.507 97.2045 187.341 97.1085 187.16C97.0125 186.979 96.9165 186.84 96.8205 186.744L96.6765 186.6L96.7085 186.36C97.3272 186.157 98.4205 186.056 99.9885 186.056C100.106 186.301 100.186 186.563 100.229 186.84C101.157 186.232 101.941 185.928 102.581 185.928C102.922 185.928 103.21 186.019 103.445 186.2C103.69 186.381 103.861 186.621 103.957 186.92C104.842 186.259 105.653 185.928 106.389 185.928C106.869 185.928 107.242 186.077 107.509 186.376C107.786 186.664 107.925 187.016 107.925 187.432C107.925 187.837 107.807 188.499 107.573 189.416C107.338 190.333 107.221 190.925 107.221 191.192C107.221 191.448 107.263 191.576 107.349 191.576L108.181 191.368L108.469 192.168C108.149 192.424 107.706 192.659 107.141 192.872C106.586 193.085 106.085 193.192 105.637 193.192C104.719 193.192 104.26 192.728 104.26 191.8C104.26 191.405 104.373 190.733 104.597 189.784C104.821 188.835 104.933 188.259 104.933 188.056C104.933 187.843 104.853 187.736 104.693 187.736C104.469 187.736 104.229 187.827 103.973 188.008C103.941 188.168 103.855 188.552 103.717 189.16C103.418 190.525 103.269 191.736 103.269 192.792C102.778 192.973 101.823 193.064 100.405 193.064C100.373 192.947 100.357 192.669 100.357 192.232C100.357 191.795 100.474 191.021 100.709 189.912C100.943 188.803 101.061 188.163 101.061 187.992C101.061 187.821 100.986 187.736 100.837 187.736C100.655 187.736 100.421 187.821 100.133 187.992C100.101 188.173 99.9992 188.637 99.8285 189.384C99.4658 190.952 99.2845 192.093 99.2845 192.808C98.7832 193 97.9458 193.096 96.7725 193.096ZM116.741 186.52C116.517 187.213 116.325 188.04 116.165 189C116.005 189.949 115.925 190.616 115.925 191C115.925 191.373 115.984 191.56 116.101 191.56L116.901 191.336L117.189 192.136C116.848 192.403 116.41 192.648 115.877 192.872C115.354 193.085 114.89 193.192 114.485 193.192C113.792 193.192 113.354 192.893 113.173 192.296C112.33 192.893 111.584 193.192 110.933 193.192C110.293 193.192 109.797 192.957 109.445 192.488C109.093 192.019 108.917 191.347 108.917 190.472C108.917 189.267 109.226 188.205 109.845 187.288C110.464 186.371 111.28 185.912 112.293 185.912C112.848 185.912 113.413 186.067 113.989 186.376C114.074 186.184 114.144 186.045 114.197 185.96C114.965 185.96 115.813 186.147 116.741 186.52ZM111.925 190.28C111.925 190.813 111.962 191.149 112.037 191.288C112.112 191.427 112.25 191.496 112.453 191.496C112.656 191.496 112.853 191.416 113.045 191.256C113.088 190.019 113.29 188.723 113.653 187.368C113.493 187.272 113.306 187.224 113.093 187.224C112.89 187.224 112.704 187.341 112.533 187.576C112.373 187.811 112.25 188.104 112.165 188.456C112.005 189.128 111.925 189.736 111.925 190.28Z" fill="white"/>
<path d="M99.6689 56.2793L110.782 35.7581C109.459 35.8463 108.254 36.5225 107.254 37.3751C106.872 37.6985 106.519 38.0513 106.225 38.4335C105.931 37.5515 105.108 36.8753 104.108 36.8753C102.903 36.8753 101.844 37.8749 101.844 39.0803C101.815 40.3445 102.844 41.3735 104.108 41.3735C104.167 41.3735 103.697 42.3143 103.344 42.8729C102.168 44.6957 100.815 45.8423 98.8751 45.8423C96.2879 45.8423 94.2005 43.7549 94.2005 41.1677C94.2005 40.4033 94.3475 39.1979 94.9061 38.1101C95.1413 37.6397 95.5823 37.3457 96.0527 37.1693C97.0817 36.8165 97.7873 35.8463 97.7873 34.6997C97.7873 33.0827 96.3173 31.8185 94.6709 32.1419C93.6713 32.3477 92.8481 33.1415 92.6423 34.1411C92.4953 34.7879 92.6129 35.3759 92.8775 35.9051C93.1127 36.3755 93.2009 36.8753 93.0833 37.3751C92.3483 40.1975 90.1433 42.3731 87.6443 42.3437C83.1755 42.2849 81.8231 38.7863 81.6761 35.8757C82.2935 36.1697 83.0285 36.2873 83.7929 36.1109C85.1453 35.8169 86.2037 34.6997 86.4095 33.3473C86.7035 31.3481 85.2629 29.6135 83.3519 29.4665C83.3813 29.2607 83.3813 29.0549 83.3813 28.8197C83.3813 26.2913 82.2641 23.9981 80.5295 22.4399C78.7655 24.0275 77.6777 26.2913 77.6777 28.8197C77.6777 29.0255 77.6777 29.2607 77.7071 29.4665C75.7961 29.6135 74.3555 31.3481 74.6495 33.3473C74.8553 34.7291 75.9137 35.8463 77.2661 36.1109C78.0305 36.2579 78.7655 36.1697 79.3829 35.8757C79.2359 38.7569 77.9129 42.2555 73.4147 42.3437C70.8863 42.3731 68.6813 40.1975 67.9757 37.3751C67.8581 36.8753 67.9463 36.3461 68.1815 35.9051C68.4461 35.4053 68.5343 34.7879 68.4167 34.1411C68.2109 33.1415 67.3877 32.3477 66.3881 32.1419C64.7123 31.8185 63.2717 33.0827 63.2717 34.6997C63.2717 35.8463 64.0067 36.8165 65.0063 37.1693C65.5061 37.3457 65.9177 37.6397 66.1529 38.1101C66.7115 39.1979 66.8585 40.4033 66.8585 41.1677C66.8585 43.7549 64.7711 45.8423 62.1839 45.8423C60.2435 45.8423 58.8911 44.6663 57.7151 42.8729C57.3623 42.3143 56.9213 41.3735 56.9507 41.3735C58.2149 41.3735 59.2145 40.3445 59.2145 39.0803C59.1851 37.8749 58.1561 36.8459 56.9507 36.8753C55.9511 36.8753 55.1279 37.5221 54.8339 38.4335C54.5105 38.0513 54.1871 37.6985 53.8049 37.3751C52.8053 36.5225 51.5999 35.8463 50.2769 35.7581L61.0079 56.2793C71.4743 51.6047 87.7031 50.6933 99.6689 56.2793Z" fill="url(#paint4_linear_974_518)"/>
<path d="M99.4043 59.337C103.109 49.341 110.635 40.8444 120.073 35.9052C123.689 34.0236 127.864 32.6124 131.862 33.5826C137.536 34.935 141.211 40.9032 141.652 46.7244C142.093 52.5456 139.947 58.2492 137.536 63.5706C135.125 68.892 132.332 74.1546 131.333 79.917C130.95 82.122 130.833 84.4152 130.069 86.532C129.304 88.6488 127.717 90.6186 125.512 91.089C119.279 78.3 112.017 65.805 99.4043 59.337Z" fill="url(#paint5_linear_974_518)"/>
<path d="M105.696 62.8355C107.636 54.2213 112.693 46.3421 119.69 40.9913C121.66 39.4919 123.836 38.1395 126.217 37.4633C128.598 36.7871 131.274 36.8459 133.479 37.9925C136.213 39.4331 137.889 42.3437 138.536 45.3719C139.182 48.3707 138.947 51.5165 138.712 54.5741C138.506 52.4573 138.183 50.3405 137.536 48.3119C136.889 46.2833 135.772 44.3723 134.037 43.1375C131.509 41.3147 127.952 41.3147 125.129 42.6671C122.307 44.0195 120.19 46.5479 118.838 49.3409C117.456 52.1339 116.75 55.2209 116.162 58.2785C117.25 57.8081 119.22 57.6905 120.278 58.2491C121.983 59.1605 123.336 60.7187 123.983 62.5415C124.629 64.3643 124.541 66.4517 123.747 68.2157C125.6 66.1283 127.07 63.5999 127.981 60.9539C128.04 63.7763 127.834 66.5987 127.364 69.3917C129.333 66.6575 130.627 63.4235 131.039 60.0719C132.744 68.6567 126.57 77.2121 127.364 85.9439C123.218 76.3889 114.663 68.1275 105.696 62.8355Z" fill="url(#paint6_linear_974_518)"/>
<path d="M60.9197 59.337C57.2153 49.341 49.6889 40.8444 40.2515 35.9052C36.6353 34.0236 32.4605 32.6124 28.4621 33.5826C22.7879 34.935 19.1129 40.9032 18.6719 46.7244C18.2309 52.5456 20.3771 58.2492 22.7879 63.5706C25.1987 68.892 27.9917 74.1546 28.9913 79.917C29.3735 82.122 29.4911 84.4152 30.2555 86.532C31.0199 88.6488 32.6075 90.6186 34.8125 91.089C41.0453 78.3 48.3071 65.805 60.9197 59.337Z" fill="url(#paint7_linear_974_518)"/>
<path d="M54.628 62.8355C52.6876 54.2213 47.6308 46.3421 40.6336 40.9913C38.6638 39.4919 36.4882 38.1395 34.1068 37.4633C31.7254 36.7871 29.05 36.8459 26.845 37.9925C24.1108 39.4331 22.435 42.3437 21.7882 45.3719C21.1414 48.3707 21.3766 51.5165 21.6118 54.5741C21.8176 52.4573 22.141 50.3405 22.7878 48.3119C23.4346 46.2833 24.5518 44.3723 26.2864 43.1375C28.8148 41.3147 32.3722 41.3147 35.1946 42.6671C38.017 44.0195 40.1338 46.5479 41.4862 49.3409C42.868 52.1339 43.5736 55.2209 44.1616 58.2785C43.0738 57.8081 41.104 57.6905 40.0456 58.2491C38.3404 59.1605 36.988 60.7187 36.3412 62.5415C35.6944 64.3643 35.7826 66.4517 36.5764 68.2157C34.7242 66.1283 33.2542 63.5999 32.3428 60.9539C32.284 63.7763 32.4898 66.5987 32.9602 69.3917C30.9904 66.6575 29.6968 63.4235 29.2852 60.0719C27.5506 68.6861 33.754 77.2121 32.9308 85.9439C37.0762 76.3889 45.661 68.1275 54.628 62.8355Z" fill="url(#paint8_linear_974_518)"/>
<path d="M115.075 66.0694C105.52 57.9844 92.9364 53.8978 80.412 53.545V53.5156C80.3238 53.5156 80.265 53.5156 80.1768 53.5156C80.0886 53.5156 80.0298 53.5156 79.9416 53.5156V53.545C67.4172 53.8978 54.834 57.9844 45.279 66.0694C35.577 74.272 29.3148 86.7376 29.7558 99.409C30.1968 112.08 37.8702 124.546 49.4832 129.603C53.2758 135.924 53.511 144.332 57.7446 150.359C61.8312 156.18 72.8268 160.884 80.2062 159.297C87.5562 160.884 98.5518 156.18 102.668 150.359C106.901 144.332 107.137 135.924 110.929 129.603C122.572 124.546 130.216 112.08 130.657 99.409C131.039 86.7376 124.777 74.272 115.075 66.0694Z" fill="url(#paint9_linear_974_518)"/>
<path d="M121.19 95.734C120.719 88.9132 116.868 82.3864 111.106 78.7114C101.962 72.8902 90.8489 69.8914 80.1473 71.0674C69.4457 69.8914 58.3325 72.8608 49.1891 78.7114C43.4267 82.3864 39.5753 88.9132 39.1049 95.734C38.6345 102.555 41.5745 109.523 46.8077 113.962C48.9245 115.755 51.4529 117.225 52.8935 119.607C54.7163 122.606 54.3929 126.398 53.9225 129.897C53.4521 133.366 52.8935 137.07 54.3341 140.275C56.3333 144.685 61.6841 146.772 66.5057 146.42C71.3273 146.067 75.7961 143.803 80.0885 141.569C80.1179 141.569 80.1179 141.539 80.1473 141.539C80.1767 141.539 80.1767 141.569 80.2061 141.569C84.4985 143.803 88.9673 146.067 93.7889 146.42C98.6105 146.772 103.991 144.685 105.961 140.275C107.401 137.07 106.843 133.366 106.372 129.897C105.902 126.428 105.578 122.635 107.401 119.607C108.842 117.225 111.37 115.755 113.487 113.962C118.72 109.523 121.66 102.555 121.19 95.734Z" fill="url(#paint10_linear_974_518)"/>
<path d="M62.4484 140.951C59.185 136.865 58.597 131.014 60.1258 126.016C61.684 121.018 65.1532 116.99 69.2104 113.668C66.0352 114.197 63.301 116.285 61.3018 118.813C59.3026 121.341 57.9208 124.281 56.4508 127.133C55.5982 128.78 54.6868 130.426 53.6284 131.955C53.2756 134.807 53.158 137.717 54.3046 140.275C56.3038 144.685 61.6546 146.772 66.4762 146.42C67.6228 146.331 68.7694 146.126 69.8866 145.861C67.0054 144.95 64.3594 143.333 62.4484 140.951Z" fill="url(#paint11_linear_974_518)"/>
<path d="M98.9926 118.813C96.9934 116.285 94.2592 114.197 91.084 113.668C95.1412 116.99 98.6398 121.018 100.169 126.016C101.727 131.014 101.109 136.835 97.846 140.951C95.935 143.333 93.289 144.95 90.3784 145.861C91.4956 146.126 92.6422 146.331 93.7888 146.42C98.6104 146.772 103.991 144.685 105.96 140.275C107.136 137.688 106.989 134.807 106.637 131.955C105.578 130.426 104.667 128.78 103.814 127.133C102.374 124.252 100.992 121.312 98.9926 118.813Z" fill="url(#paint12_linear_974_518)"/>
<path d="M69.5633 105.789C70.6217 101.291 68.9753 96.3517 65.7707 93.0001C62.5661 89.6485 58.0091 87.7669 53.3933 87.3553C48.7775 86.9437 44.1029 87.8551 39.7517 89.4721C41.7803 90.3541 44.2205 91.6183 46.0139 92.9119C44.3675 92.4415 42.6035 92.4709 40.9865 93.0001C43.8089 94.2349 46.3079 96.2047 48.1601 98.6449C50.0123 101.085 51.5117 104.172 54.4223 105.113C56.0393 105.642 57.8621 105.348 59.4203 104.672C60.9785 103.996 62.3603 102.937 63.7127 101.908C65.0063 101.85 66.2999 102.761 67.2113 103.672C68.1227 104.554 68.9459 104.643 69.5633 105.789Z" fill="url(#paint13_linear_974_518)"/>
<path d="M90.7314 105.789C89.673 101.291 91.3194 96.3517 94.524 93.0001C97.7286 89.6485 102.286 87.7669 106.901 87.3553C111.517 86.9437 116.192 87.8551 120.543 89.4721C118.514 90.3541 116.074 91.6183 114.281 92.9119C115.927 92.4415 117.691 92.4709 119.308 93.0001C116.486 94.2349 113.987 96.2047 112.135 98.6449C110.282 101.085 108.783 104.172 105.872 105.113C104.255 105.642 102.433 105.348 100.874 104.672C99.3162 103.996 97.9344 102.937 96.582 101.908C95.2884 101.85 93.9948 102.761 93.0834 103.672C92.2014 104.554 91.3782 104.643 90.7314 105.789Z" fill="url(#paint14_linear_974_518)"/>
<path d="M68.4462 102.232C67.9464 97.3805 64.1244 93.2939 59.5968 91.5299C55.0692 89.7659 49.9536 90.0305 45.2202 91.2065C47.2488 91.4417 49.0716 92.2649 50.8062 93.3233C50.0124 95.3519 49.9242 97.8803 51.2472 99.6443C52.5408 101.408 54.7752 102.408 56.9508 102.261C59.1264 102.085 61.1844 100.732 62.184 98.7917C64.5066 98.7035 67.0644 100.321 68.4462 102.232Z" fill="url(#paint15_linear_974_518)"/>
<path d="M91.8779 102.232C92.3777 97.3805 96.1997 93.2939 100.727 91.5299C105.255 89.7659 110.371 90.0305 115.104 91.2065C113.075 91.4417 111.253 92.2649 109.518 93.3233C110.312 95.3519 110.4 97.8803 109.077 99.6443C107.783 101.408 105.549 102.408 103.373 102.261C101.198 102.085 99.1397 100.732 98.1401 98.7917C95.7881 98.7035 93.2597 100.321 91.8779 102.232Z" fill="url(#paint16_linear_974_518)"/>
<path d="M34.4892 135.836C34.3128 135.836 34.107 135.748 34.0188 135.571C33.8718 135.307 33.96 134.983 34.2246 134.836C46.2492 127.721 64.6536 128.809 64.83 128.809C65.124 128.839 65.3592 129.074 65.3298 129.397C65.3004 129.691 65.0652 129.926 64.7418 129.897C64.5654 129.897 46.4844 128.809 34.7538 135.777C34.695 135.806 34.6068 135.836 34.4892 135.836Z" fill="url(#paint17_linear_974_518)"/>
<path d="M37.4292 139.952C37.2528 139.952 37.0764 139.864 36.9588 139.717C36.7824 139.452 36.8706 139.129 37.1058 138.952C47.9838 131.808 64.1538 132.867 64.83 132.925C65.124 132.955 65.3592 133.219 65.3298 133.513C65.3004 133.807 65.0358 134.043 64.7418 134.013C64.5654 134.013 48.2778 132.955 37.6938 139.864C37.635 139.923 37.5174 139.952 37.4292 139.952Z" fill="url(#paint18_linear_974_518)"/>
<path d="M41.6921 144.068C41.5157 144.068 41.3687 144.009 41.2511 143.862C41.0747 143.627 41.1041 143.274 41.3393 143.097C50.5709 135.924 64.2419 136.982 64.8299 137.041C65.1239 137.07 65.3591 137.335 65.3297 137.629C65.3003 137.923 65.0357 138.158 64.7417 138.129C64.5947 138.129 50.8943 137.07 42.0155 143.95C41.9273 144.038 41.8097 144.068 41.6921 144.068Z" fill="url(#paint19_linear_974_518)"/>
<path d="M48.2485 148.184C48.1015 148.184 47.9839 148.125 47.8663 148.037C47.6311 147.831 47.6311 147.478 47.8369 147.272C54.5107 140.04 64.4479 141.098 64.8595 141.157C65.1535 141.186 65.3593 141.451 65.3299 141.774C65.3005 142.068 65.0359 142.304 64.7125 142.245C64.6243 142.245 54.9223 141.186 48.6013 148.007C48.5425 148.125 48.3955 148.184 48.2485 148.184Z" fill="url(#paint20_linear_974_518)"/>
<path d="M125.806 135.836C125.982 135.836 126.188 135.748 126.276 135.571C126.423 135.307 126.335 134.983 126.07 134.836C114.046 127.721 95.6413 128.809 95.4649 128.809C95.1709 128.839 94.9357 129.074 94.9651 129.397C94.9945 129.691 95.2297 129.926 95.5531 129.897C95.7295 129.897 113.811 128.809 125.541 135.777C125.629 135.806 125.718 135.836 125.806 135.836Z" fill="url(#paint21_linear_974_518)"/>
<path d="M122.895 139.952C123.071 139.952 123.248 139.864 123.365 139.717C123.542 139.452 123.454 139.129 123.218 138.952C112.34 131.808 96.1704 132.867 95.4942 132.925C95.2002 132.955 94.965 133.219 94.9944 133.513C95.0238 133.807 95.2884 134.043 95.5824 134.013C95.7588 134.013 112.046 132.955 122.63 139.864C122.689 139.923 122.807 139.952 122.895 139.952Z" fill="url(#paint22_linear_974_518)"/>
<path d="M118.632 144.068C118.808 144.068 118.955 144.009 119.073 143.862C119.249 143.627 119.22 143.274 118.985 143.097C109.753 135.924 96.0822 136.982 95.4942 137.041C95.2002 137.07 94.965 137.335 94.9944 137.629C95.0238 137.923 95.2884 138.158 95.5824 138.129C95.7294 138.129 109.43 137.07 118.309 143.95C118.397 144.038 118.514 144.068 118.632 144.068Z" fill="url(#paint23_linear_974_518)"/>
<path d="M112.076 148.184C112.223 148.184 112.341 148.125 112.458 148.037C112.693 147.831 112.693 147.478 112.487 147.272C105.814 140.04 95.8765 141.098 95.4649 141.157C95.1709 141.186 94.9651 141.451 94.9945 141.774C95.0239 142.068 95.2885 142.304 95.6119 142.245C95.7001 142.245 105.402 141.186 111.723 148.007C111.782 148.125 111.929 148.184 112.076 148.184Z" fill="url(#paint24_linear_974_518)"/>
<path d="M90.849 125.281C89.5848 124.281 87.9678 123.811 86.3802 123.693C84.2634 123.517 81.8232 124.252 80.1768 125.575C78.5304 124.252 76.0902 123.517 73.9734 123.693C72.3564 123.811 70.7394 124.281 69.5046 125.281C68.2404 126.281 67.4172 127.898 67.5936 129.485C67.7994 131.073 69.1812 132.543 70.7688 132.543C70.3866 132.337 70.3572 132.366 70.1514 131.984C69.9162 131.631 69.9162 131.102 70.2396 130.808C70.5336 130.544 70.9746 130.602 71.3568 130.72C73.0032 131.161 74.4438 132.308 75.2376 133.807C75.3258 133.983 75.414 134.189 75.414 134.395C75.3846 134.777 74.973 135.042 74.5908 135.042C74.2086 135.042 73.8558 134.865 73.503 134.718C75.9726 136.453 78.1482 139.128 79.8534 141.716C79.9416 141.657 80.0298 141.627 80.1474 141.569C80.1768 141.569 80.1768 141.539 80.2062 141.539C80.2356 141.539 80.2356 141.569 80.265 141.569C80.3532 141.627 80.4414 141.657 80.559 141.716C82.2642 139.128 84.4398 136.453 86.9094 134.718C86.5566 134.895 86.2038 135.071 85.8216 135.042C85.4394 135.042 85.0278 134.777 84.9984 134.395C84.969 134.189 85.0572 133.983 85.1748 133.807C85.9686 132.308 87.4092 131.161 89.0556 130.72C89.4378 130.632 89.8788 130.573 90.1728 130.808C90.4962 131.073 90.4668 131.631 90.261 131.984C90.0258 132.337 89.9964 132.308 89.6436 132.543C91.2606 132.543 92.6424 131.073 92.8188 129.485C92.9364 127.898 92.1132 126.281 90.849 125.281Z" fill="url(#paint25_linear_974_518)"/>
<path d="M55.6865 124.899C56.8625 122.577 58.0679 120.078 57.8033 117.49C57.4505 114.051 54.6281 111.405 51.6587 109.611C48.6893 107.818 45.3965 106.554 42.8975 104.172C41.1629 102.526 39.9575 100.468 39.1343 98.2334C39.4577 104.202 42.2801 110.052 46.8371 113.933C48.9539 115.726 51.4823 117.196 52.9229 119.578C54.3929 122.018 54.4517 124.958 54.1871 127.839C54.6575 126.869 55.1573 125.869 55.6865 124.899Z" fill="url(#paint26_linear_974_518)"/>
<path d="M117.456 104.172C114.957 106.553 111.635 107.847 108.695 109.611C105.725 111.404 102.903 114.05 102.55 117.49C102.285 120.077 103.461 122.576 104.667 124.899C105.167 125.899 105.696 126.869 106.166 127.868C105.902 124.987 105.96 122.047 107.43 119.607C108.871 117.226 111.399 115.756 113.516 113.962C118.073 110.081 120.896 104.231 121.219 98.2627C120.396 100.497 119.161 102.526 117.456 104.172Z" fill="url(#paint27_linear_974_518)"/>
<path d="M119.69 70.6263C118.25 69.0093 116.721 67.4805 115.074 66.0987C105.519 58.0137 92.9363 53.9271 80.4119 53.5743V53.5449C80.3237 53.5449 80.2649 53.5449 80.1767 53.5449C80.0885 53.5449 80.0297 53.5449 79.9415 53.5449V53.5743C67.4171 53.9271 54.8339 58.0137 45.2789 66.0987C43.6325 67.4805 42.0743 69.0093 40.6631 70.6263C42.9563 72.6255 45.8081 74.1837 48.6599 75.1539C54.9515 77.3001 61.7429 77.5941 68.0345 79.7403C72.2975 81.2103 76.5017 83.9151 78.9125 87.5901C79.2065 88.0311 79.6769 88.2663 80.2061 88.2663C80.7353 88.2663 81.2057 88.0017 81.4997 87.5901C83.9105 83.9151 88.1147 81.1809 92.3777 79.7403C98.6693 77.5941 105.461 77.3001 111.752 75.1539C114.575 74.1543 117.397 72.6255 119.69 70.6263Z" fill="url(#paint28_linear_974_518)"/>
<path d="M78.8537 72.3021C79.1477 72.7431 79.6181 72.9783 80.1473 72.9783C80.6765 72.9783 81.1469 72.7137 81.4409 72.3021C83.8517 68.6271 88.0559 65.8929 92.3189 64.4523C97.2875 62.7471 102.609 62.1885 107.724 60.9831C99.4925 56.2791 89.9081 53.8389 80.3825 53.5743V53.5449C80.2943 53.5449 80.2355 53.5449 80.1473 53.5449C80.0591 53.5449 80.0003 53.5449 79.9121 53.5449V53.5743C70.3865 53.8389 60.8315 56.2791 52.5701 60.9831C57.6857 62.1885 63.0071 62.7471 67.9757 64.4523C72.2681 65.8929 76.4429 68.6271 78.8537 72.3021Z" fill="url(#paint29_linear_974_518)"/>
<path d="M102.403 98.8505C102.844 98.1449 103.079 97.3511 103.079 96.4985C103.079 95.6459 102.844 94.8521 102.403 94.1465C101.962 94.8521 101.727 95.6459 101.727 96.4985C101.727 97.3511 101.992 98.1449 102.403 98.8505Z" fill="url(#paint30_linear_974_518)"/>
<path d="M57.8915 98.8505C58.3325 98.1449 58.5677 97.3511 58.5677 96.4985C58.5677 95.6459 58.3325 94.8521 57.8915 94.1465C57.4505 94.8521 57.2153 95.6459 57.2153 96.4985C57.2153 97.3511 57.4799 98.1449 57.8915 98.8505Z" fill="url(#paint31_linear_974_518)"/>
<path d="M86.2919 144.509C84.2045 143.656 82.2053 142.627 80.2061 141.598C80.1767 141.598 80.1767 141.569 80.1473 141.569C80.1179 141.569 80.1179 141.598 80.0885 141.598C78.0893 142.627 76.0901 143.656 74.0027 144.509C75.8843 144.244 77.9423 144.068 80.1473 144.068C82.3523 144.068 84.4103 144.215 86.2919 144.509Z" fill="url(#paint32_linear_974_518)"/>
<path d="M47.3662 128.633C43.1326 123.4 40.2514 117.02 39.193 110.375C38.752 112.639 38.752 114.962 39.1342 117.226C36.1648 111.845 34.9888 105.495 35.7826 99.4092C34.5184 102.026 33.5482 104.789 32.9014 107.612C31.549 97.6158 32.4604 87.3258 35.4592 77.6826C31.5784 84.2682 29.4028 91.824 29.6968 99.4386C30.1378 111.316 36.8998 123.047 47.3662 128.633Z" fill="url(#paint33_linear_974_518)"/>
<path d="M130.598 99.4386C130.862 91.824 128.687 84.2682 124.835 77.6826C127.834 87.3258 128.745 97.6158 127.393 107.612C126.776 104.789 125.805 102.026 124.512 99.4092C125.306 105.495 124.13 111.845 121.16 117.226C121.572 114.962 121.542 112.639 121.101 110.375C120.043 117.049 117.191 123.4 112.928 128.633C123.424 123.047 130.186 111.316 130.598 99.4386Z" fill="url(#paint34_linear_974_518)"/>
<path d="M102.609 150.389C103.667 148.889 104.461 147.243 105.137 145.538C101.168 150.389 95.4941 153.858 89.3201 154.887C90.3197 153.74 91.1135 152.358 91.5839 150.918C88.4675 153.387 84.1457 154.857 80.1767 154.916C76.2077 154.857 71.8565 153.387 68.7695 150.918C69.2399 152.388 70.0337 153.74 71.0333 154.887C64.8593 153.858 59.1851 150.389 55.2161 145.538C55.8923 147.243 56.6861 148.889 57.7445 150.389C61.8311 156.21 72.8267 160.914 80.2061 159.326C87.5267 160.914 98.5223 156.21 102.609 150.389Z" fill="url(#paint35_linear_974_518)"/>
<defs>
<filter id="filter0_i_974_518" x="0" y="0" width="158" height="247" filterUnits="userSpaceOnUse" color-interpolation-filters="sRGB">
<feFlood flood-opacity="0" result="BackgroundImageFix"/>
<feBlend mode="normal" in="SourceGraphic" in2="BackgroundImageFix" result="shape"/>
<feColorMatrix in="SourceAlpha" type="matrix" values="0 0 0 0 0 0 0 0 0 0 0 0 0 0 0 0 0 0 127 0" result="hardAlpha"/>
<feOffset dy="25"/>
<feGaussianBlur stdDeviation="20"/>
<feComposite in2="hardAlpha" operator="arithmetic" k2="-1" k3="1"/>
<feColorMatrix type="matrix" values="0 0 0 0 0.450868 0 0 0 0 0.189365 0 0 0 0 0 0 0 0 1 0"/>
<feBlend mode="normal" in2="shape" result="effect1_innerShadow_974_518"/>
</filter>
<linearGradient id="paint0_linear_974_518" x1="73.1157" y1="5.81429" x2="73.1157" y2="247.941" gradientUnits="userSpaceOnUse">
<stop stop-color="#2D0B00"/>
<stop offset="0.804147" stop-color="#330A00"/>
</linearGradient>
<linearGradient id="paint1_linear_974_518" x1="73.1156" y1="28.8706" x2="73.1156" y2="242.389" gradientUnits="userSpaceOnUse">
<stop stop-color="#D8C200"/>
<stop offset="0.5" stop-color="#EB8508" stop-opacity="0"/>
<stop offset="1" stop-color="#FE480F"/>
</linearGradient>
<linearGradient id="paint2_linear_974_518" x1="80.4998" y1="208" x2="80.4998" y2="233.2" gradientUnits="userSpaceOnUse">
<stop stop-color="#FF5301"/>
<stop offset="1" stop-color="#FFD901"/>
</linearGradient>
<linearGradient id="paint3_linear_974_518" x1="80.5" y1="208" x2="80.5" y2="235" gradientUnits="userSpaceOnUse">
<stop stop-color="#571100"/>
<stop offset="1" stop-color="#CE2800"/>
</linearGradient>
<linearGradient id="paint4_linear_974_518" x1="80.5001" y1="50.8784" x2="80.5001" y2="27.9613" gradientUnits="userSpaceOnUse">
<stop stop-color="#FFCE5C"/>
<stop offset="1" stop-color="#FF4D12"/>
</linearGradient>
<linearGradient id="paint5_linear_974_518" x1="141.688" y1="62.1581" x2="99.4001" y2="62.1581" gradientUnits="userSpaceOnUse">
<stop stop-color="#FFCE5C"/>
<stop offset="1" stop-color="#FF4D12"/>
</linearGradient>
<linearGradient id="paint6_linear_974_518" x1="138.956" y1="61.4806" x2="105.699" y2="61.4806" gradientUnits="userSpaceOnUse">
<stop stop-color="#FFCE5C"/>
<stop offset="1" stop-color="#FF4D12"/>
</linearGradient>
<linearGradient id="paint7_linear_974_518" x1="18.6326" y1="62.1581" x2="60.9203" y2="62.1581" gradientUnits="userSpaceOnUse">
<stop stop-color="#FFCE5C"/>
<stop offset="1" stop-color="#FF4D12"/>
</linearGradient>
<linearGradient id="paint8_linear_974_518" x1="21.3638" y1="61.4806" x2="54.6211" y2="61.4806" gradientUnits="userSpaceOnUse">
<stop stop-color="#FFCE5C"/>
<stop offset="1" stop-color="#FF4D12"/>
</linearGradient>
<linearGradient id="paint9_linear_974_518" x1="80.1603" y1="159.631" x2="80.1603" y2="53.5291" gradientUnits="userSpaceOnUse">
<stop stop-color="#FFCE5C"/>
<stop offset="1" stop-color="#FF4D12"/>
</linearGradient>
<linearGradient id="paint10_linear_974_518" x1="80.1603" y1="146.467" x2="80.1603" y2="70.8145" gradientUnits="userSpaceOnUse">
<stop stop-color="#FFCE5C"/>
<stop offset="0.0708504" stop-color="#DFB451"/>
<stop offset="0.215" stop-color="#A5853C"/>
<stop offset="0.3591" stop-color="#735D29"/>
<stop offset="0.4997" stop-color="#493B1A"/>
<stop offset="0.6363" stop-color="#29210F"/>
<stop offset="0.7676" stop-color="#120F07"/>
<stop offset="0.8914" stop-color="#050402"/>
<stop offset="1"/>
</linearGradient>
<linearGradient id="paint11_linear_974_518" x1="61.6732" y1="146.467" x2="61.6732" y2="113.653" gradientUnits="userSpaceOnUse">
<stop stop-color="#FFCE5C"/>
<stop offset="0.0160855" stop-color="#F3C458"/>
<stop offset="0.0907857" stop-color="#C19C46"/>
<stop offset="0.1709" stop-color="#937735"/>
<stop offset="0.2546" stop-color="#6B5727"/>
<stop offset="0.3429" stop-color="#4A3C1B"/>
<stop offset="0.437" stop-color="#2F2611"/>
<stop offset="0.539" stop-color="#1A1509"/>
<stop offset="0.6528" stop-color="#0B0904"/>
<stop offset="0.7881" stop-color="#030201"/>
<stop offset="1"/>
</linearGradient>
<linearGradient id="paint12_linear_974_518" x1="98.6471" y1="146.467" x2="98.6471" y2="113.653" gradientUnits="userSpaceOnUse">
<stop stop-color="#FFCE5C"/>
<stop offset="0.0160855" stop-color="#F3C458"/>
<stop offset="0.0907857" stop-color="#C19C46"/>
<stop offset="0.1709" stop-color="#937735"/>
<stop offset="0.2546" stop-color="#6B5727"/>
<stop offset="0.3429" stop-color="#4A3C1B"/>
<stop offset="0.437" stop-color="#2F2611"/>
<stop offset="0.539" stop-color="#1A1509"/>
<stop offset="0.6528" stop-color="#0B0904"/>
<stop offset="0.7881" stop-color="#030201"/>
<stop offset="1"/>
</linearGradient>
<linearGradient id="paint13_linear_974_518" x1="39.7772" y1="96.5025" x2="69.897" y2="96.5025" gradientUnits="userSpaceOnUse">
<stop stop-color="#FFCE5C"/>
<stop offset="0.0708504" stop-color="#DFB451"/>
<stop offset="0.215" stop-color="#A5853C"/>
<stop offset="0.3591" stop-color="#735D29"/>
<stop offset="0.4997" stop-color="#493B1A"/>
<stop offset="0.6363" stop-color="#29210F"/>
<stop offset="0.7676" stop-color="#120F07"/>
<stop offset="0.8914" stop-color="#050402"/>
<stop offset="1"/>
</linearGradient>
<linearGradient id="paint14_linear_974_518" x1="120.543" y1="96.5025" x2="90.4236" y2="96.5025" gradientUnits="userSpaceOnUse">
<stop stop-color="#FFCE5C"/>
<stop offset="0.0708504" stop-color="#DFB451"/>
<stop offset="0.215" stop-color="#A5853C"/>
<stop offset="0.3591" stop-color="#735D29"/>
<stop offset="0.4997" stop-color="#493B1A"/>
<stop offset="0.6363" stop-color="#29210F"/>
<stop offset="0.7676" stop-color="#120F07"/>
<stop offset="0.8914" stop-color="#050402"/>
<stop offset="1"/>
</linearGradient>
<linearGradient id="paint15_linear_974_518" x1="45.1967" y1="96.2682" x2="68.4382" y2="96.2682" gradientUnits="userSpaceOnUse">
<stop stop-color="#707070"/>
<stop offset="1" stop-color="#9E9E9E"/>
</linearGradient>
<linearGradient id="paint16_linear_974_518" x1="115.124" y1="96.2682" x2="91.8824" y2="96.2682" gradientUnits="userSpaceOnUse">
<stop stop-color="#707070"/>
<stop offset="1" stop-color="#9E9E9E"/>
</linearGradient>
<linearGradient id="paint17_linear_974_518" x1="49.6521" y1="135.842" x2="49.6521" y2="128.74" gradientUnits="userSpaceOnUse">
<stop stop-color="#FF4D12"/>
<stop offset="1" stop-color="#FFCE5C"/>
</linearGradient>
<linearGradient id="paint18_linear_974_518" x1="51.1118" y1="139.954" x2="51.1118" y2="132.838" gradientUnits="userSpaceOnUse">
<stop stop-color="#FF4D12"/>
<stop offset="1" stop-color="#FFCE5C"/>
</linearGradient>
<linearGradient id="paint19_linear_974_518" x1="53.252" y1="144.066" x2="53.252" y2="136.95" gradientUnits="userSpaceOnUse">
<stop stop-color="#FF4D12"/>
<stop offset="1" stop-color="#FFCE5C"/>
</linearGradient>
<linearGradient id="paint20_linear_974_518" x1="56.5205" y1="148.178" x2="56.5205" y2="141.063" gradientUnits="userSpaceOnUse">
<stop stop-color="#FF4D12"/>
<stop offset="1" stop-color="#FFCE5C"/>
</linearGradient>
<linearGradient id="paint21_linear_974_518" x1="110.669" y1="135.842" x2="110.669" y2="128.74" gradientUnits="userSpaceOnUse">
<stop stop-color="#FF4D12"/>
<stop offset="1" stop-color="#FFCE5C"/>
</linearGradient>
<linearGradient id="paint22_linear_974_518" x1="109.209" y1="139.954" x2="109.209" y2="132.838" gradientUnits="userSpaceOnUse">
<stop stop-color="#FF4D12"/>
<stop offset="1" stop-color="#FFCE5C"/>
</linearGradient>
<linearGradient id="paint23_linear_974_518" x1="107.069" y1="144.066" x2="107.069" y2="136.95" gradientUnits="userSpaceOnUse">
<stop stop-color="#FF4D12"/>
<stop offset="1" stop-color="#FFCE5C"/>
</linearGradient>
<linearGradient id="paint24_linear_974_518" x1="103.8" y1="148.178" x2="103.8" y2="141.063" gradientUnits="userSpaceOnUse">
<stop stop-color="#FF4D12"/>
<stop offset="1" stop-color="#FFCE5C"/>
</linearGradient>
<linearGradient id="paint25_linear_974_518" x1="80.1603" y1="141.718" x2="80.1603" y2="123.647" gradientUnits="userSpaceOnUse">
<stop stop-color="#FF4D12"/>
<stop offset="1" stop-color="#FFE45C"/>
</linearGradient>
<linearGradient id="paint26_linear_974_518" x1="48.4619" y1="127.855" x2="48.4619" y2="98.2483" gradientUnits="userSpaceOnUse">
<stop stop-color="#FFCE5C"/>
<stop offset="0.0160855" stop-color="#F3C458"/>
<stop offset="0.0907857" stop-color="#C19C46"/>
<stop offset="0.1709" stop-color="#937735"/>
<stop offset="0.2546" stop-color="#6B5727"/>
<stop offset="0.3429" stop-color="#4A3C1B"/>
<stop offset="0.437" stop-color="#2F2611"/>
<stop offset="0.539" stop-color="#1A1509"/>
<stop offset="0.6528" stop-color="#0B0904"/>
<stop offset="0.7881" stop-color="#030201"/>
<stop offset="1"/>
</linearGradient>
<linearGradient id="paint27_linear_974_518" x1="111.859" y1="127.855" x2="111.859" y2="98.2482" gradientUnits="userSpaceOnUse">
<stop stop-color="#FFCE5C"/>
<stop offset="0.0160855" stop-color="#F3C458"/>
<stop offset="0.0907857" stop-color="#C19C46"/>
<stop offset="0.1709" stop-color="#937735"/>
<stop offset="0.2546" stop-color="#6B5727"/>
<stop offset="0.3429" stop-color="#4A3C1B"/>
<stop offset="0.437" stop-color="#2F2611"/>
<stop offset="0.539" stop-color="#1A1509"/>
<stop offset="0.6528" stop-color="#0B0904"/>
<stop offset="0.7881" stop-color="#030201"/>
<stop offset="1"/>
</linearGradient>
<linearGradient id="paint28_linear_974_518" x1="80.1602" y1="88.2744" x2="80.1602" y2="53.529" gradientUnits="userSpaceOnUse">
<stop stop-color="#FFCE5C"/>
<stop offset="0.0708504" stop-color="#DFB451"/>
<stop offset="0.215" stop-color="#A5853C"/>
<stop offset="0.3591" stop-color="#735D29"/>
<stop offset="0.4997" stop-color="#493B1A"/>
<stop offset="0.6363" stop-color="#29210F"/>
<stop offset="0.7676" stop-color="#120F07"/>
<stop offset="0.8914" stop-color="#050402"/>
<stop offset="1"/>
</linearGradient>
<linearGradient id="paint29_linear_974_518" x1="80.1602" y1="72.9852" x2="80.1602" y2="53.529" gradientUnits="userSpaceOnUse">
<stop stop-color="#FFCE5C"/>
<stop offset="0.0708504" stop-color="#DFB451"/>
<stop offset="0.215" stop-color="#A5853C"/>
<stop offset="0.3591" stop-color="#735D29"/>
<stop offset="0.4997" stop-color="#493B1A"/>
<stop offset="0.6363" stop-color="#29210F"/>
<stop offset="0.7676" stop-color="#120F07"/>
<stop offset="0.8914" stop-color="#050402"/>
<stop offset="1"/>
</linearGradient>
<linearGradient id="paint30_linear_974_518" x1="102.416" y1="98.8612" x2="102.416" y2="94.1433" gradientUnits="userSpaceOnUse">
<stop stop-color="#707070"/>
<stop offset="1" stop-color="#9E9E9E"/>
</linearGradient>
<linearGradient id="paint31_linear_974_518" x1="57.9049" y1="98.8612" x2="57.9049" y2="94.1433" gradientUnits="userSpaceOnUse">
<stop stop-color="#707070"/>
<stop offset="1" stop-color="#9E9E9E"/>
</linearGradient>
<linearGradient id="paint32_linear_974_518" x1="74.0299" y1="143.019" x2="86.2906" y2="143.019" gradientUnits="userSpaceOnUse">
<stop stop-color="#707070"/>
<stop offset="1" stop-color="#9E9E9E"/>
</linearGradient>
<linearGradient id="paint33_linear_974_518" x1="38.5239" y1="128.618" x2="38.5239" y2="77.6673" gradientUnits="userSpaceOnUse">
<stop stop-color="#FFCE5C"/>
<stop offset="0.0708504" stop-color="#DFB451"/>
<stop offset="0.215" stop-color="#A5853C"/>
<stop offset="0.3591" stop-color="#735D29"/>
<stop offset="0.4997" stop-color="#493B1A"/>
<stop offset="0.6363" stop-color="#29210F"/>
<stop offset="0.7676" stop-color="#120F07"/>
<stop offset="0.8914" stop-color="#050402"/>
<stop offset="1"/>
</linearGradient>
<linearGradient id="paint34_linear_974_518" x1="121.796" y1="128.618" x2="121.796" y2="77.6672" gradientUnits="userSpaceOnUse">
<stop stop-color="#FFCE5C"/>
<stop offset="0.0708504" stop-color="#DFB451"/>
<stop offset="0.215" stop-color="#A5853C"/>
<stop offset="0.3591" stop-color="#735D29"/>
<stop offset="0.4997" stop-color="#493B1A"/>
<stop offset="0.6363" stop-color="#29210F"/>
<stop offset="0.7676" stop-color="#120F07"/>
<stop offset="0.8914" stop-color="#050402"/>
<stop offset="1"/>
</linearGradient>
<linearGradient id="paint35_linear_974_518" x1="80.1602" y1="159.631" x2="80.1602" y2="145.532" gradientUnits="userSpaceOnUse">
<stop stop-color="#FFCE5C"/>
<stop offset="0.0708504" stop-color="#DFB451"/>
<stop offset="0.215" stop-color="#A5853C"/>
<stop offset="0.3591" stop-color="#735D29"/>
<stop offset="0.4997" stop-color="#493B1A"/>
<stop offset="0.6363" stop-color="#29210F"/>
<stop offset="0.7676" stop-color="#120F07"/>
<stop offset="0.8914" stop-color="#050402"/>
<stop offset="1"/>
</linearGradient>
</defs>
</svg>
