<svg version="1.1" id="Layer_1" xmlns="http://www.w3.org/2000/svg" xmlns:xlink="http://www.w3.org/1999/xlink" x="0px" y="0px"
	 width="100%" viewBox="0 0 53 58" enable-background="new 0 0 53 58" xml:space="preserve">
<path fill="#000000" opacity="1.000000" stroke="none" 
	d="
M38.007366,59.000000 
	C25.339512,59.000000 13.172987,59.000000 1.004848,59.000000 
	C1.003232,39.669048 1.003232,20.338097 1.001616,1.005358 
	C18.664078,1.003572 36.328156,1.003572 53.994175,1.001786 
	C53.996117,20.330517 53.996117,39.661034 53.998062,58.995773 
	C48.836235,59.000000 43.672466,59.000000 38.007366,59.000000 
M43.973148,34.962318 
	C43.973148,34.962318 44.050770,34.987671 43.873970,34.472275 
	C43.570667,34.287457 43.267365,34.102638 43.033237,33.996620 
	C43.033237,33.996620 43.111389,33.926716 42.993279,33.187534 
	C42.656311,31.429726 42.319344,29.671917 42.423832,27.103580 
	C43.717934,26.011101 45.012035,24.918619 47.344177,22.949825 
	C43.884808,22.949825 42.034210,22.949825 40.044270,22.632734 
	C40.044270,22.632734 39.794983,22.392281 40.018986,21.476662 
	C39.771511,20.469666 39.524033,19.462669 39.192158,18.477898 
	C39.192158,18.477898 38.946373,18.446445 38.163410,18.075455 
	C36.975021,16.879574 35.786633,15.683693 35.116074,15.008906 
	C33.259789,15.764320 31.620642,16.431370 29.200083,16.151684 
	C26.909369,12.334580 26.397751,16.064976 24.434513,16.874954 
	C23.144489,15.532161 21.854465,14.189366 20.954464,13.252550 
	C19.979954,14.526024 18.957970,15.861534 17.424164,17.223673 
	C17.261583,17.277607 17.099005,17.331539 16.096989,17.196054 
	C15.415573,17.598686 14.734157,18.001318 15.343532,19.271391 
	C15.680651,18.877586 16.017771,18.483780 16.310455,18.087919 
	C16.310455,18.087919 16.275352,18.050373 14.804913,17.617212 
	C14.243434,18.263405 13.138607,18.989218 13.219505,19.541281 
	C13.492811,21.406382 14.186802,23.209839 13.866938,24.361237 
	C13.573367,26.881536 13.279797,29.401834 12.359092,32.225857 
	C11.303112,34.149933 10.247133,36.074009 8.607785,38.494503 
	C8.372033,39.982037 8.136280,41.469570 7.263258,43.051151 
	C6.857014,43.680882 6.450769,44.310616 5.301270,45.222313 
	C5.579305,47.020756 5.857341,48.819195 5.887226,50.760658 
	C5.887226,50.760658 6.029340,51.009335 6.086030,51.691162 
	C7.356953,52.610527 8.627875,53.529888 10.517702,54.760674 
	C10.971312,54.835857 11.424921,54.911045 12.352424,55.649120 
	C15.864268,55.999031 19.376112,56.348938 23.472975,56.838093 
	C23.669477,56.798492 23.865980,56.758888 24.954678,56.821751 
	C27.948845,56.768188 30.943012,56.714622 34.631050,56.911213 
	C35.452694,56.621666 36.274338,56.332119 37.926449,55.955856 
	C39.974724,55.660797 42.022995,55.365734 45.013290,54.861786 
	C46.044975,54.182247 47.275845,53.659737 48.001640,52.739059 
	C48.259991,52.411346 47.416721,51.012806 46.827747,50.311966 
	C46.565765,50.000210 45.688301,50.205681 45.090199,50.176384 
	C45.094475,51.025925 45.098751,51.875462 45.102551,52.638756 
	C45.102551,52.638756 45.148232,52.565601 45.265804,53.180691 
	C46.434631,52.828262 47.603455,52.475838 49.308655,52.077816 
	C49.258476,50.035336 49.208298,47.992851 49.028820,45.184910 
	C48.313580,43.121380 47.598335,41.057850 46.716072,38.535110 
	C46.504963,38.270412 46.239677,38.081898 45.967728,37.351669 
	C45.655190,36.877865 45.342651,36.404060 45.008442,35.995441 
	C45.008442,35.995441 45.076138,36.007095 44.903793,35.480618 
	C44.601654,35.281857 44.299515,35.083099 43.973148,34.962318 
z"/>
<path fill="#E95925" opacity="1.000000" stroke="none" 
	d="
M48.772282,52.123413 
	C47.603455,52.475838 46.434631,52.828262 44.678146,52.791870 
	C43.066574,52.276814 42.042667,52.150578 40.652840,52.072998 
	C38.843479,52.431683 37.400032,52.741714 35.534225,53.036186 
	C33.417088,53.056652 31.722313,53.092674 29.606453,53.095268 
	C27.778751,53.083778 26.372137,53.105717 24.520927,53.099121 
	C21.695837,53.099522 19.315338,53.128452 16.634907,52.931625 
	C14.860711,52.355064 13.386450,52.004265 11.562412,51.550240 
	C9.484871,51.301125 7.757105,51.155231 6.029340,51.009335 
	C6.029340,51.009335 5.887226,50.760658 5.971262,50.290733 
	C6.051707,48.193989 6.048116,46.567165 6.044525,44.940346 
	C6.450769,44.310616 6.857014,43.680882 7.931448,43.172195 
	C15.870113,46.338974 20.162916,45.704678 23.447477,41.124992 
	C26.615328,41.023449 29.332430,40.962872 32.457169,40.930557 
	C34.230545,40.956970 35.596283,40.955112 37.312950,40.907986 
	C38.798710,40.544941 39.933540,40.227165 41.445702,39.935116 
	C42.582787,39.979469 43.342545,39.998100 44.335930,40.004951 
	C44.569553,39.993176 45.036552,39.965103 45.206490,39.834095 
	C45.600567,39.524662 45.818737,39.339214 46.244049,39.109028 
	C46.457157,39.071312 46.883095,38.994320 46.883095,38.994320 
	C47.598335,41.057850 48.313580,43.121380 49.023991,46.167648 
	C48.936867,48.808060 48.854576,50.465736 48.772282,52.123413 
z"/>
<path fill="#EA5826" opacity="1.000000" stroke="none" 
	d="
M12.986226,31.922134 
	C13.279797,29.401834 13.573367,26.881536 14.545356,24.619701 
	C15.481564,24.636835 15.739353,24.395506 16.368937,24.112991 
	C18.513168,23.364347 20.285608,22.656891 22.273682,21.706257 
	C23.195793,21.126785 23.902269,20.790493 24.930437,20.673782 
	C25.464706,21.042431 25.677286,21.191498 26.013885,21.581440 
	C26.519739,22.207666 26.901575,22.593016 27.555653,22.978241 
	C28.190161,23.000992 28.552429,23.023869 29.058346,23.249130 
	C29.421743,23.705338 29.681376,23.908087 29.997145,24.262245 
	C30.013395,24.464729 30.054308,24.868937 30.023636,25.237381 
	C28.994453,27.387678 27.995941,29.169531 26.817989,31.111626 
	C26.403814,31.490778 26.185928,31.725338 25.755207,31.981560 
	C25.525520,31.987570 25.066196,32.001385 24.738377,32.032055 
	C23.607534,32.375160 22.804512,32.687595 21.667936,32.991707 
	C20.889528,32.983421 20.444670,32.983456 19.800552,32.740524 
	C18.069372,32.324024 16.537449,32.150490 14.668624,31.969482 
	C13.883223,31.948719 13.434724,31.935427 12.986226,31.922134 
z"/>
<path fill="#E7582B" opacity="1.000000" stroke="none" 
	d="
M22.996731,41.165955 
	C20.162916,45.704678 15.870113,46.338974 8.250082,43.125172 
	C8.136280,41.469570 8.372033,39.982037 9.048988,38.256851 
	C9.490191,38.019199 9.789843,38.012470 9.976658,38.314743 
	C11.439629,39.023636 12.715785,39.430260 14.353359,39.922577 
	C16.151920,40.298637 17.589066,40.588997 19.391270,40.918644 
	C20.489302,40.955544 21.222275,40.953152 22.215332,41.005936 
	C22.649191,41.096058 22.822962,41.131008 22.996731,41.165955 
z"/>
<path fill="#EBA033" opacity="1.000000" stroke="none" 
	d="
M30.054308,24.868937 
	C30.054308,24.868937 30.013395,24.464729 30.003670,23.997406 
	C29.995777,23.353989 29.997610,23.177895 30.122780,22.755852 
	C30.496910,22.020123 30.747702,21.530338 31.373039,21.042168 
	C32.496132,21.041231 33.244682,21.038685 34.329819,21.195240 
	C36.375931,21.700323 38.085457,22.046303 39.794983,22.392281 
	C39.794983,22.392281 40.044270,22.632734 39.780399,22.854359 
	C38.678986,23.718891 37.841442,24.361801 37.002502,25.330950 
	C36.999348,26.092072 36.997585,26.526953 36.628426,26.941669 
	C34.192116,26.237316 32.123211,25.553127 30.054308,24.868937 
z"/>
<path fill="#D85F2F" opacity="1.000000" stroke="none" 
	d="
M33.937180,56.661057 
	C30.943012,56.714622 27.948845,56.768188 24.364727,56.590683 
	C23.528555,56.172119 23.264700,56.014042 22.986664,55.587978 
	C22.993200,54.894012 22.996288,54.497452 23.326389,54.054325 
	C24.091547,53.963577 24.529696,53.919403 25.389038,53.908333 
	C27.215429,53.921783 28.620623,53.902119 30.400612,53.911896 
	C31.524584,54.009060 32.273758,54.076782 33.141243,54.386700 
	C33.485428,55.306282 33.711304,55.983669 33.937180,56.661057 
z"/>
<path fill="#D06235" opacity="1.000000" stroke="none" 
	d="
M22.999376,54.100895 
	C22.996288,54.497452 22.993200,54.894012 22.947039,55.790085 
	C22.903965,56.289604 22.887957,56.698849 22.887957,56.698849 
	C19.376112,56.348938 15.864268,55.999031 12.457605,55.142742 
	C13.811302,54.371407 15.059817,54.106449 16.446449,53.770073 
	C16.584564,53.698650 16.868752,53.561626 17.297668,53.663017 
	C19.484182,53.876572 21.241779,53.988735 22.999376,54.100895 
z"/>
<path fill="#B66B3D" opacity="1.000000" stroke="none" 
	d="
M16.354889,18.089973 
	C16.017771,18.483780 15.680651,18.877586 15.450415,18.845543 
	C16.032375,18.258919 16.507456,18.098143 17.155682,17.832455 
	C17.551384,17.573793 17.753771,17.396961 17.935987,17.197044 
	C18.957970,15.861534 19.979954,14.526024 20.954464,13.252550 
	C21.854465,14.189366 23.144489,15.532161 24.765751,17.251534 
	C25.032452,17.998718 24.967913,18.369324 24.809574,19.155640 
	C24.684278,19.853712 24.652782,20.136072 24.294262,20.710468 
	C22.314337,20.665483 20.661436,20.328461 18.832279,19.828987 
	C18.405996,19.462568 18.132252,19.298054 17.452015,18.919731 
	C16.831121,18.474306 16.593006,18.282141 16.354889,18.089973 
z"/>
<path fill="#FFBA7D" opacity="1.000000" stroke="none" 
	d="
M19.008535,19.991438 
	C20.661436,20.328461 22.314337,20.665483 24.310791,20.710733 
	C24.654343,20.418961 24.608746,20.454201 24.608746,20.454201 
	C23.902269,20.790493 23.195793,21.126785 21.862270,21.682693 
	C19.489197,22.652931 17.743170,23.403553 15.997144,24.154177 
	C15.739353,24.395506 15.481564,24.636835 14.971869,24.957514 
	C14.186802,23.209839 13.492811,21.406382 13.219505,19.541281 
	C13.138607,18.989218 14.243434,18.263405 15.533070,18.222612 
	C16.787905,19.300121 17.314581,19.772232 18.143101,20.227379 
	C18.632805,20.137424 18.820669,20.064430 19.008535,19.991438 
z"/>
<path fill="#EE9922" opacity="1.000000" stroke="none" 
	d="
M37.003899,25.004709 
	C37.841442,24.361801 38.678986,23.718891 39.850071,23.012905 
	C42.034210,22.949825 43.884808,22.949825 47.344177,22.949825 
	C45.012035,24.918619 43.717934,26.011101 41.960594,27.526592 
	C41.012093,27.959423 40.526825,27.969240 40.037590,27.903748 
	C40.033619,27.828438 40.023857,27.677921 39.950348,27.375946 
	C38.919189,26.384218 37.961544,25.694464 37.003899,25.004709 
z"/>
<path fill="#D96028" opacity="1.000000" stroke="none" 
	d="
M9.789843,38.012466 
	C9.789843,38.012470 9.490191,38.019199 9.340672,38.008644 
	C10.247133,36.074009 11.303112,34.149933 12.672659,32.073997 
	C13.434724,31.935427 13.883223,31.948719 14.666891,32.175091 
	C15.002062,32.388168 15.000086,32.798828 14.825792,32.991524 
	C14.436383,33.453785 14.221268,33.723351 13.843554,34.219254 
	C13.786431,35.297283 13.891906,36.148979 13.770698,37.226646 
	C13.216471,37.729988 12.888926,38.007351 12.215044,38.312340 
	C11.175754,38.230801 10.482799,38.121635 9.789843,38.012466 
z"/>
<path fill="#DE611D" opacity="1.000000" stroke="none" 
	d="
M45.036552,39.965103 
	C45.036552,39.965103 44.569553,39.993176 44.071232,39.805183 
	C42.725536,39.437954 41.878159,39.258724 41.030903,39.008911 
	C41.031021,38.938324 41.018257,38.797733 41.013565,38.453209 
	C41.002682,37.415024 40.996498,36.721363 41.007927,35.796833 
	C41.025539,35.565960 41.060696,35.104202 41.240990,34.922791 
	C41.658077,34.494873 41.894875,34.248363 42.376617,33.983299 
	C42.621563,33.964745 43.111389,33.926716 43.111389,33.926716 
	C43.111389,33.926716 43.033237,33.996620 43.200352,34.114124 
	C43.595234,34.483643 43.823002,34.735657 44.050770,34.987671 
	C44.050770,34.987671 43.973148,34.962318 44.149879,35.125404 
	C44.576450,35.528027 44.826294,35.767563 45.076138,36.007095 
	C45.076138,36.007095 45.008442,35.995441 45.077728,36.239437 
	C45.404751,36.978813 45.662483,37.474194 45.920216,37.969574 
	C46.239677,38.081898 46.504963,38.270412 46.799583,38.764717 
	C46.883095,38.994320 46.457157,39.071312 46.061108,39.223732 
	C45.435413,39.550976 45.225910,39.747292 45.036552,39.965103 
z"/>
<path fill="#DC5C2F" opacity="1.000000" stroke="none" 
	d="
M29.981495,17.098421 
	C31.620642,16.431370 33.259789,15.764320 35.116074,15.008906 
	C35.786633,15.683693 36.975021,16.879574 37.952019,18.349651 
	C35.787220,18.753231 33.833805,18.882614 31.655380,18.975925 
	C31.430370,18.939854 30.980061,18.859718 30.837772,18.708361 
	C30.500385,18.360573 30.293447,18.177525 30.046635,17.780987 
	C30.018597,17.554113 29.981495,17.098421 29.981495,17.098421 
z"/>
<path fill="#D06345" opacity="1.000000" stroke="none" 
	d="
M6.057685,51.350250 
	C7.757105,51.155231 9.484871,51.301125 11.465159,51.888962 
	C11.684465,52.562931 11.651247,52.794956 11.403198,53.106335 
	C10.758511,53.606876 10.328654,54.028065 9.898798,54.449253 
	C8.627875,53.529888 7.356953,52.610527 6.057685,51.350250 
z"/>
<path fill="#D45F32" opacity="1.000000" stroke="none" 
	d="
M44.071270,55.070671 
	C42.022995,55.365734 39.974724,55.660797 37.272175,55.843231 
	C36.071106,55.206482 35.524311,54.682362 35.222740,54.101944 
	C35.632442,54.013618 35.796925,53.981583 36.363686,53.965485 
	C37.838688,53.977146 38.911411,53.972870 40.221355,54.095016 
	C41.662807,54.504520 42.867039,54.787598 44.071270,55.070671 
z"/>
<path fill="#DB5F34" opacity="1.000000" stroke="none" 
	d="
M44.542282,54.966228 
	C42.867039,54.787598 41.662807,54.504520 40.383514,53.923603 
	C40.535473,53.407112 40.770462,53.197392 41.515911,52.984043 
	C43.046612,52.889320 44.074818,52.807159 45.103027,52.724998 
	C45.098751,51.875462 45.094475,51.025925 45.090199,50.176384 
	C45.688301,50.205681 46.565765,50.000210 46.827747,50.311966 
	C47.416721,51.012806 48.259991,52.411346 48.001640,52.739059 
	C47.275845,53.659737 46.044975,54.182247 44.542282,54.966228 
z"/>
<path fill="#DD6222" opacity="1.000000" stroke="none" 
	d="
M43.052334,33.557125 
	C43.111389,33.926716 42.621563,33.964745 42.187836,33.782379 
	C41.496914,33.338104 41.239719,33.076191 40.793434,32.611084 
	C40.416748,30.931608 40.229156,29.455334 40.041561,27.979057 
	C40.526825,27.969240 41.012093,27.959423 41.739868,27.931856 
	C42.319344,29.671917 42.656311,31.429726 43.052334,33.557125 
z"/>
<path fill="#DC6027" opacity="1.000000" stroke="none" 
	d="
M29.590790,16.625053 
	C29.981495,17.098421 30.018597,17.554113 30.024488,17.994797 
	C30.030380,18.435478 30.000084,18.865156 29.706161,18.941006 
	C28.895502,19.313368 28.378767,19.609884 27.558159,19.816160 
	C26.470652,19.397255 25.687012,19.068592 24.903374,18.739927 
	C24.967913,18.369324 25.032452,17.998718 25.171944,17.355822 
	C26.397751,16.064976 26.909369,12.334580 29.590790,16.625053 
z"/>
<path fill="#FFB074" opacity="1.000000" stroke="none" 
	d="
M39.906982,21.934471 
	C38.085457,22.046303 36.375931,21.700323 34.327690,20.975733 
	C33.988979,20.597122 33.982121,20.159346 34.547501,20.110420 
	C36.500774,19.526222 37.888664,18.990948 39.276558,18.455673 
	C39.524033,19.462669 39.771511,20.469666 39.906982,21.934471 
z"/>
<path fill="#DC5A2E" opacity="1.000000" stroke="none" 
	d="
M10.208250,54.604965 
	C10.328654,54.028065 10.758511,53.606876 11.813692,53.106918 
	C13.728789,53.299263 15.018561,53.570377 16.308332,53.841492 
	C15.059817,54.106449 13.811302,54.371407 12.220659,54.811298 
	C11.424921,54.911045 10.971312,54.835857 10.208250,54.604965 
z"/>
<path fill="#D8633A" opacity="1.000000" stroke="none" 
	d="
M34.977516,54.158241 
	C35.524311,54.682362 36.071106,55.206482 36.856941,55.886589 
	C36.274338,56.332119 35.452694,56.621666 34.284115,56.786133 
	C33.711304,55.983669 33.485428,55.306282 33.466789,54.363392 
	C34.108521,54.118008 34.543018,54.138126 34.977516,54.158241 
z"/>
<path fill="#CE6532" opacity="1.000000" stroke="none" 
	d="
M39.234360,18.466785 
	C37.888664,18.990948 36.500774,19.526222 34.236389,20.048218 
	C32.939728,19.986660 32.519558,19.938379 32.045406,19.670380 
	C31.991428,19.450663 31.880392,19.011995 31.880392,19.011995 
	C33.833805,18.882614 35.787220,18.753231 38.343502,18.535147 
	C38.946373,18.446445 39.192158,18.477898 39.234360,18.466785 
z"/>
<path fill="#FFD1B8" opacity="1.000000" stroke="none" 
	d="
M5.672897,45.081329 
	C6.048116,46.567165 6.051707,48.193989 6.095337,50.219223 
	C5.857341,48.819195 5.579305,47.020756 5.672897,45.081329 
z"/>
<path fill="#DFAA9A" opacity="1.000000" stroke="none" 
	d="
M49.040466,52.100613 
	C48.854576,50.465736 48.936867,48.808060 49.088638,46.550377 
	C49.208298,47.992851 49.258476,50.035336 49.040466,52.100613 
z"/>
<path fill="#B5360A" opacity="1.000000" stroke="none" 
	d="
M45.102791,52.681877 
	C44.074818,52.807159 43.046612,52.889320 41.510471,52.740952 
	C41.002541,52.510418 41.018757,52.024345 41.018757,52.024345 
	C42.042667,52.150578 43.066574,52.276814 44.619358,52.484322 
	C45.148232,52.565601 45.102551,52.638756 45.102791,52.681877 
z"/>
<path fill="#D76230" opacity="1.000000" stroke="none" 
	d="
M45.943970,37.660622 
	C45.662483,37.474194 45.404751,36.978813 45.088562,36.206848 
	C45.342651,36.404060 45.655190,36.877865 45.943970,37.660622 
z"/>
<path fill="#C77940" opacity="1.000000" stroke="none" 
	d="
M14.805019,18.411823 
	C14.734157,18.001318 15.415573,17.598686 16.509060,17.430344 
	C16.921131,17.664633 16.982534,17.937368 16.982534,17.937366 
	C16.507456,18.098143 16.032375,18.258919 14.805019,18.411823 
z"/>
<path fill="#D98C47" opacity="1.000000" stroke="none" 
	d="
M17.841259,20.244341 
	C17.314581,19.772232 16.787905,19.300121 16.268290,18.439194 
	C16.275352,18.050373 16.310455,18.087919 16.332672,18.088947 
	C16.593006,18.282141 16.831121,18.474306 17.462307,19.186911 
	C17.850672,19.886347 17.845964,20.065344 17.841259,20.244341 
z"/>
<path fill="#94431F" opacity="1.000000" stroke="none" 
	d="
M23.180466,56.768471 
	C22.887957,56.698849 22.903965,56.289604 22.943590,56.087494 
	C23.264700,56.014042 23.528555,56.172119 23.918633,56.539452 
	C23.865980,56.758888 23.669477,56.798492 23.180466,56.768471 
z"/>
<path fill="#B1702E" opacity="1.000000" stroke="none" 
	d="
M17.155682,17.832455 
	C16.982534,17.937368 16.921131,17.664633 16.928778,17.525051 
	C17.099005,17.331539 17.261583,17.277607 17.680077,17.210358 
	C17.753771,17.396961 17.551384,17.573793 17.155682,17.832455 
z"/>
<path fill="#F07323" opacity="1.000000" stroke="none" 
	d="
M43.962372,34.729973 
	C43.823002,34.735657 43.595234,34.483643 43.165764,34.074722 
	C43.267365,34.102638 43.570667,34.287457 43.962372,34.729973 
z"/>
<path fill="#D76230" opacity="1.000000" stroke="none" 
	d="
M44.989967,35.743858 
	C44.826294,35.767563 44.576450,35.528027 44.161991,35.086418 
	C44.299515,35.083099 44.601654,35.281857 44.989967,35.743858 
z"/>
<path fill="#C34311" opacity="1.000000" stroke="none" 
	d="
M23.447477,41.124992 
	C22.822962,41.131008 22.649191,41.096058 22.225864,40.787750 
	C21.976307,40.514389 21.958313,40.076813 22.254417,39.992874 
	C23.113852,39.669991 23.677183,39.431053 24.384970,39.178032 
	C24.529425,39.163944 24.818499,39.137524 25.046137,39.141586 
	C25.273775,39.145653 25.727827,39.111309 26.020515,39.290131 
	C27.190887,39.592636 28.068569,39.716320 29.333572,39.874176 
	C30.497627,39.974434 31.274364,40.040524 32.048294,40.305527 
	C32.045483,40.504440 32.049534,40.902290 32.049534,40.902290 
	C29.332430,40.962872 26.615328,41.023449 23.447477,41.124992 
z"/>
<path fill="#B33306" opacity="1.000000" stroke="none" 
	d="
M23.326389,54.054325 
	C21.241779,53.988735 19.484182,53.876572 17.309536,53.562180 
	C16.892488,53.359955 16.934841,53.157379 16.934841,53.157379 
	C19.315338,53.128452 21.695837,53.099522 24.523537,53.285603 
	C24.970737,53.500614 24.967842,53.875225 24.967842,53.875225 
	C24.529696,53.919403 24.091547,53.963577 23.326389,54.054325 
z"/>
<path fill="#9C2800" opacity="1.000000" stroke="none" 
	d="
M16.634907,52.931625 
	C16.934841,53.157379 16.892488,53.359955 16.880619,53.460793 
	C16.868752,53.561626 16.584564,53.698650 16.446449,53.770073 
	C15.018561,53.570377 13.728789,53.299263 12.028523,53.027565 
	C11.651247,52.794956 11.684465,52.562931 11.814936,51.992180 
	C13.386450,52.004265 14.860711,52.355064 16.634907,52.931625 
z"/>
<path fill="#CB4915" opacity="1.000000" stroke="none" 
	d="
M40.652840,52.072998 
	C41.018757,52.024345 41.002541,52.510418 41.007980,52.753510 
	C40.770462,53.197392 40.535473,53.407112 40.146294,53.797176 
	C38.911411,53.972870 37.838688,53.977146 36.369221,53.741173 
	C35.972477,53.500923 35.956589,53.051743 35.956589,53.051743 
	C37.400032,52.741714 38.843479,52.431683 40.652840,52.072998 
z"/>
<path fill="#B83405" opacity="1.000000" stroke="none" 
	d="
M35.534225,53.036186 
	C35.956589,53.051743 35.972477,53.500923 35.966942,53.725235 
	C35.796925,53.981583 35.632442,54.013618 35.222740,54.101944 
	C34.543018,54.138126 34.108521,54.118008 33.348476,54.121197 
	C32.273758,54.076782 31.524584,54.009060 30.399391,53.723866 
	C30.023375,53.506393 30.027538,53.128696 30.027538,53.128696 
	C31.722313,53.092674 33.417088,53.056652 35.534225,53.036186 
z"/>
<path fill="#C84719" opacity="1.000000" stroke="none" 
	d="
M41.068375,39.909389 
	C39.933540,40.227165 38.798710,40.544941 37.324879,40.681747 
	C36.985882,40.500782 36.983341,40.046555 37.170925,39.888023 
	C37.603420,39.511406 37.825424,39.272068 38.266346,39.000854 
	C38.508175,38.990231 38.990894,38.953381 39.329517,38.940350 
	C40.118179,38.884125 40.568218,38.840927 41.018257,38.797733 
	C41.018257,38.797733 41.031021,38.938324 41.035290,39.216309 
	C41.039558,39.494297 41.068375,39.909389 41.068375,39.909389 
z"/>
<path fill="#BF390C" opacity="1.000000" stroke="none" 
	d="
M29.606453,53.095268 
	C30.027538,53.128696 30.023375,53.506393 30.024595,53.694427 
	C28.620623,53.902119 27.215429,53.921783 25.389038,53.908333 
	C24.967842,53.875225 24.970737,53.500614 24.968128,53.314133 
	C26.372137,53.105717 27.778751,53.083778 29.606453,53.095268 
z"/>
<path fill="#B13805" opacity="1.000000" stroke="none" 
	d="
M36.983341,40.046555 
	C36.983341,40.046555 36.985882,40.500782 36.973953,40.727020 
	C35.596283,40.955112 34.230545,40.956970 32.457169,40.930557 
	C32.049534,40.902290 32.045483,40.504440 32.438560,40.271507 
	C33.878674,39.977310 34.925713,39.916039 36.224663,39.907768 
	C36.645496,39.989361 36.814419,40.017956 36.983341,40.046555 
z"/>
<path fill="#B43A06" opacity="1.000000" stroke="none" 
	d="
M41.445702,39.935116 
	C41.068375,39.909389 41.039558,39.494297 41.035172,39.286896 
	C41.878159,39.258724 42.725536,39.437954 43.837608,39.816959 
	C43.342545,39.998100 42.582787,39.979469 41.445702,39.935116 
z"/>
<path fill="#DF5A39" opacity="1.000000" stroke="none" 
	d="
M45.206490,39.834095 
	C45.225910,39.747292 45.435413,39.550976 45.848000,39.261452 
	C45.818737,39.339214 45.600567,39.524662 45.206490,39.834095 
z"/>
<path fill="#E85923" opacity="1.000000" stroke="none" 
	d="
M40.037590,27.903748 
	C40.229156,29.455334 40.416748,30.931608 40.777985,32.648712 
	C40.951622,32.889542 40.924454,32.961899 40.618965,32.955978 
	C39.904449,32.957554 39.495426,32.965057 38.877701,33.124935 
	C38.427387,33.521072 38.185776,33.764835 37.703014,34.016083 
	C37.461864,34.023563 36.979927,34.047550 36.986603,34.036766 
	C36.993282,34.025986 36.973003,34.029072 36.759510,33.860413 
	C36.056522,33.466919 35.567028,33.242077 34.730377,33.026062 
	C33.920227,33.038162 33.457230,33.041443 32.602890,33.035637 
	C31.172798,32.999641 30.134048,32.972733 28.963730,32.676270 
	C28.220585,31.921602 27.609009,31.436493 26.997429,30.951382 
	C27.995941,29.169531 28.994453,27.387678 30.023636,25.237381 
	C32.123211,25.553127 34.192116,26.237316 36.896507,27.116962 
	C38.362617,27.434252 39.193237,27.556087 40.023857,27.677921 
	C40.023857,27.677921 40.033619,27.828438 40.037590,27.903748 
z"/>
<path fill="#DD5E22" opacity="1.000000" stroke="none" 
	d="
M15.000086,32.798828 
	C15.000086,32.798828 15.002062,32.388168 15.003795,32.182564 
	C16.537449,32.150490 18.069372,32.324024 19.789204,33.060776 
	C19.959661,34.049942 19.942213,34.475887 19.931881,34.928402 
	C19.939001,34.954967 19.987013,34.976105 19.804306,35.115234 
	C19.398220,35.465366 19.204372,35.700687 19.019897,36.224319 
	C18.984713,36.664169 18.969690,36.840031 18.580816,37.012276 
	C17.459290,36.999302 16.711613,36.989944 15.966306,36.719048 
	C15.966293,36.283020 15.963913,36.108528 15.937489,35.603302 
	C15.608993,34.447987 15.304539,33.623409 15.000086,32.798828 
z"/>
<path fill="#EF7C24" opacity="1.000000" stroke="none" 
	d="
M25.727827,39.111309 
	C25.727827,39.111309 25.273775,39.145653 25.080551,38.857758 
	C24.901409,38.380856 24.915493,38.191853 25.025728,37.727730 
	C25.062403,36.293839 25.002930,35.135067 24.959862,33.646942 
	C25.006243,32.878857 25.036221,32.440121 25.066196,32.001385 
	C25.066196,32.001385 25.525520,31.987570 25.761892,31.992085 
	C25.998264,31.996597 25.987942,31.988150 26.064909,32.194176 
	C26.769485,32.602634 27.397095,32.805061 28.014120,33.002457 
	C28.003536,32.997425 27.984295,32.984043 27.981335,33.337234 
	C27.973568,34.162735 27.968760,34.635040 28.146099,35.323151 
	C28.901360,36.015869 29.474474,36.492786 30.033201,37.304665 
	C30.000555,38.085716 29.982298,38.531807 29.724033,38.992867 
	C29.484028,39.007832 29.003788,39.033844 28.856743,38.860653 
	C28.505726,38.463566 28.292484,38.248878 27.876194,38.174805 
	C27.434984,38.496204 27.203543,38.704006 26.672728,38.972965 
	C26.147518,39.047981 25.937672,39.079643 25.727827,39.111309 
z"/>
<path fill="#EBA346" opacity="1.000000" stroke="none" 
	d="
M24.809574,19.155640 
	C25.687012,19.068592 26.470652,19.397255 27.952881,19.835510 
	C29.435040,19.973042 30.218611,20.000986 30.999777,20.281830 
	C30.997746,20.703339 30.998119,20.871948 30.998493,21.040556 
	C30.747702,21.530338 30.496910,22.020123 29.851479,22.764202 
	C29.276125,23.027916 29.095409,23.037331 28.914696,23.046745 
	C28.552429,23.023869 28.190161,23.000992 27.421032,22.739212 
	C26.639402,22.113728 26.264635,21.727146 25.889868,21.340565 
	C25.677286,21.191498 25.464706,21.042431 24.930437,20.673782 
	C24.608746,20.454201 24.654343,20.418961 24.637814,20.418695 
	C24.652782,20.136072 24.684278,19.853712 24.809574,19.155640 
z"/>
<path fill="#D76224" opacity="1.000000" stroke="none" 
	d="
M16.368937,24.112991 
	C17.743170,23.403553 19.489197,22.652931 21.646635,21.925873 
	C20.285608,22.656891 18.513168,23.364347 16.368937,24.112991 
z"/>
<path fill="#B85311" opacity="1.000000" stroke="none" 
	d="
M19.924763,34.901836 
	C19.942213,34.475887 19.959661,34.049942 19.988462,33.303741 
	C20.444670,32.983456 20.889528,32.983421 21.667231,32.991653 
	C22.000076,32.999920 21.999342,32.998619 22.146248,33.186378 
	C22.501057,33.616798 22.734058,33.832317 22.977619,34.005295 
	C22.963079,33.989891 22.946220,34.028755 22.951469,34.352436 
	C22.962587,35.107861 22.968456,35.539608 22.976990,35.977131 
	C22.979658,35.982910 22.957050,35.954777 22.730724,35.981697 
	C22.504398,36.008614 22.051601,36.061222 21.787182,35.914757 
	C20.990095,35.479473 20.457428,35.190655 19.924763,34.901836 
z"/>
<path fill="#E35E1A" opacity="1.000000" stroke="none" 
	d="
M24.738377,32.032055 
	C25.036221,32.440121 25.006243,32.878857 24.627937,33.656487 
	C23.835144,34.006504 23.390682,34.017628 22.946220,34.028755 
	C22.946220,34.028755 22.963079,33.989891 22.820063,33.827248 
	C22.461521,33.432049 22.235619,33.210056 21.999342,32.998619 
	C21.999342,32.998619 22.000076,32.999920 22.000782,32.999977 
	C22.804512,32.687595 23.607534,32.375160 24.738377,32.032055 
z"/>
<path fill="#EF7C24" opacity="1.000000" stroke="none" 
	d="
M26.817991,31.111628 
	C27.609009,31.436493 28.220585,31.921602 28.938435,32.697388 
	C29.044708,32.988068 29.004204,33.036503 28.749508,33.017910 
	C28.324640,32.994225 28.154467,32.989136 27.984295,32.984043 
	C27.984295,32.984043 28.003536,32.997425 27.787281,32.825096 
	C27.043333,32.431232 26.515636,32.209690 25.987942,31.988150 
	C25.987942,31.988150 25.998264,31.996597 25.991579,31.986073 
	C26.185928,31.725338 26.403814,31.490778 26.817991,31.111628 
z"/>
<path fill="#D76224" opacity="1.000000" stroke="none" 
	d="
M26.013885,21.581440 
	C26.264635,21.727146 26.639402,22.113728 27.148790,22.739338 
	C26.901575,22.593016 26.519739,22.207666 26.013885,21.581440 
z"/>
<path fill="#EF9E3A" opacity="1.000000" stroke="none" 
	d="
M29.058346,23.249130 
	C29.095409,23.037331 29.276125,23.027916 29.728142,23.010151 
	C29.997610,23.177895 29.995777,23.353989 29.987419,23.794922 
	C29.681376,23.908087 29.421743,23.705338 29.058346,23.249130 
z"/>
<path fill="#AA2800" opacity="1.000000" stroke="none" 
	d="
M9.976658,38.314739 
	C10.482799,38.121635 11.175754,38.230801 12.436169,38.481262 
	C13.331810,38.794693 13.659990,38.966827 13.989241,39.313446 
	C13.990311,39.487923 13.991941,39.836884 13.991941,39.836884 
	C12.715785,39.430260 11.439629,39.023636 9.976658,38.314739 
z"/>
<path fill="#AC2E02" opacity="1.000000" stroke="none" 
	d="
M14.353359,39.922577 
	C13.991941,39.836884 13.990311,39.487923 14.355259,39.322277 
	C16.150551,39.475624 17.580894,39.794617 19.013432,40.305077 
	C19.015625,40.496544 19.026211,40.879356 19.026211,40.879356 
	C17.589066,40.588997 16.151920,40.298637 14.353359,39.922577 
z"/>
<path fill="#9C2800" opacity="1.000000" stroke="none" 
	d="
M19.391270,40.918644 
	C19.026211,40.879356 19.015625,40.496544 19.253563,40.224625 
	C19.652884,39.903500 19.814264,39.854290 20.303295,39.869423 
	C21.073400,39.981449 21.515856,40.029133 21.958313,40.076813 
	C21.958313,40.076813 21.976307,40.514389 21.965776,40.732574 
	C21.222275,40.953152 20.489302,40.955544 19.391270,40.918644 
z"/>
<path fill="#F39A2F" opacity="1.000000" stroke="none" 
	d="
M39.950348,27.375946 
	C39.193237,27.556087 38.362617,27.434252 37.263912,27.137127 
	C36.997585,26.526953 36.999348,26.092072 37.002502,25.330950 
	C37.961544,25.694464 38.919189,26.384218 39.950348,27.375946 
z"/>
<path fill="#FFBD77" opacity="1.000000" stroke="none" 
	d="
M31.373039,21.042168 
	C30.998119,20.871948 30.997746,20.703339 31.274525,20.250362 
	C31.734247,19.940695 31.916815,19.915396 32.099384,19.890099 
	C32.519558,19.938379 32.939728,19.986660 33.671013,20.097145 
	C33.982121,20.159346 33.988979,20.597122 33.991104,20.816631 
	C33.244682,21.038685 32.496132,21.041231 31.373039,21.042168 
z"/>
<path fill="#C77940" opacity="1.000000" stroke="none" 
	d="
M18.143101,20.227379 
	C17.845964,20.065344 17.850672,19.886347 17.845085,19.440170 
	C18.132252,19.298054 18.405996,19.462568 18.832279,19.828987 
	C18.820669,20.064430 18.632805,20.137424 18.143101,20.227379 
z"/>
<path fill="#E15C27" opacity="1.000000" stroke="none" 
	d="
M19.975647,39.805077 
	C19.814264,39.854290 19.652884,39.903500 19.251369,40.033157 
	C17.580894,39.794617 16.150551,39.475624 14.354189,39.147797 
	C13.659990,38.966827 13.331810,38.794693 12.782505,38.453636 
	C12.888926,38.007351 13.216471,37.729988 13.757932,37.210754 
	C13.971848,36.968887 13.956241,36.931206 14.291137,36.945015 
	C15.072001,36.966076 15.517969,36.973331 15.963937,36.980583 
	C16.711613,36.989944 17.459290,36.999302 18.765549,37.185104 
	C19.539846,37.621422 19.755564,37.881290 19.971687,38.418686 
	C19.973276,39.065830 19.974463,39.435452 19.975647,39.805077 
z"/>
<path fill="#BB510D" opacity="1.000000" stroke="none" 
	d="
M14.825792,32.991524 
	C15.304539,33.623409 15.608993,34.447987 15.734713,35.418213 
	C15.037265,35.037819 14.518550,34.511787 13.998841,33.991608 
	C13.997847,33.997459 14.006151,33.992916 14.006151,33.992916 
	C14.221268,33.723351 14.436383,33.453785 14.825792,32.991524 
z"/>
<path fill="#BB5614" opacity="1.000000" stroke="none" 
	d="
M13.984614,36.984779 
	C13.891906,36.148979 13.786431,35.297283 13.843554,34.219254 
	C14.006151,33.992916 13.997847,33.997459 13.998945,34.360756 
	C13.985442,35.459774 13.970841,36.195488 13.956241,36.931206 
	C13.956241,36.931206 13.971848,36.968887 13.984614,36.984779 
z"/>
<path fill="#E66224" opacity="1.000000" stroke="none" 
	d="
M41.013565,38.453209 
	C40.568218,38.840927 40.118179,38.884125 39.205349,38.691494 
	C38.484489,37.958168 38.226421,37.460663 37.980377,36.969963 
	C37.992397,36.976761 37.997627,36.997879 38.247139,36.998634 
	C38.496647,36.999390 38.994442,36.992989 39.174057,36.847961 
	C39.586262,36.500046 39.796810,36.276402 39.998055,36.025867 
	C40.010792,36.019733 40.040215,36.014946 40.277771,36.015770 
	C40.515331,36.016594 40.990314,36.027706 40.990314,36.027706 
	C40.996498,36.721363 41.002682,37.415024 41.013565,38.453209 
z"/>
<path fill="#EF7231" opacity="1.000000" stroke="none" 
	d="
M41.007927,35.796833 
	C40.990314,36.027706 40.515331,36.016594 40.340515,35.739922 
	C40.434708,34.970959 40.703716,34.478664 40.992584,34.265999 
	C41.028534,34.731815 41.044617,34.918011 41.060696,35.104202 
	C41.060696,35.104202 41.025539,35.565960 41.007927,35.796833 
z"/>
<path fill="#F07323" opacity="1.000000" stroke="none" 
	d="
M41.240990,34.922791 
	C41.044617,34.918011 41.028534,34.731815 40.983498,34.009781 
	C40.944515,33.303257 40.934483,33.132580 40.924454,32.961899 
	C40.924454,32.961899 40.951622,32.889542 40.967072,32.851913 
	C41.239719,33.076191 41.496914,33.338104 41.942886,33.800934 
	C41.894875,34.248363 41.658077,34.494873 41.240990,34.922791 
z"/>
<path fill="#FB9E5B" opacity="1.000000" stroke="none" 
	d="
M32.045406,19.670380 
	C31.916815,19.915396 31.734247,19.940695 31.276928,19.997461 
	C30.218611,20.000986 29.435040,19.973042 28.256750,19.925751 
	C28.378767,19.609884 28.895502,19.313368 29.951252,18.959558 
	C30.490265,18.902264 30.980061,18.859718 30.980061,18.859718 
	C30.980061,18.859718 31.430370,18.939854 31.655380,18.975925 
	C31.880392,19.011995 31.991428,19.450663 32.045406,19.670380 
z"/>
<path fill="#CE6532" opacity="1.000000" stroke="none" 
	d="
M30.837772,18.708361 
	C30.980061,18.859718 30.490265,18.902264 30.245174,18.883709 
	C30.000084,18.865156 30.030380,18.435478 30.052528,18.221668 
	C30.293447,18.177525 30.500385,18.360573 30.837772,18.708361 
z"/>
<path fill="#DA642E" opacity="1.000000" stroke="none" 
	d="
M29.003788,39.033844 
	C29.003788,39.033844 29.484028,39.007832 30.077209,38.989449 
	C31.772894,38.663551 32.875397,38.356037 34.205711,37.894169 
	C34.942245,37.543831 35.450966,37.347847 35.964287,37.464027 
	C35.974911,38.192406 35.980930,38.608624 35.984489,39.232342 
	C35.982025,39.439842 35.972752,39.854771 35.972752,39.854771 
	C34.925713,39.916039 33.878674,39.977310 32.441368,40.072594 
	C31.274364,40.040524 30.497627,39.974434 29.348953,39.673138 
	C28.977018,39.437927 29.003788,39.033844 29.003788,39.033844 
z"/>
<path fill="#DC6027" opacity="1.000000" stroke="none" 
	d="
M20.303295,39.869423 
	C19.974463,39.435452 19.973276,39.065830 20.247286,38.281021 
	C21.032187,37.264297 21.541895,36.662758 22.051601,36.061222 
	C22.051601,36.061222 22.504398,36.008614 22.782782,36.329163 
	C23.454281,37.497181 23.847397,38.344646 24.240513,39.192116 
	C23.677183,39.431053 23.113852,39.669991 22.254417,39.992874 
	C21.515856,40.029133 21.073400,39.981449 20.303295,39.869423 
z"/>
<path fill="#DC5E1B" opacity="1.000000" stroke="none" 
	d="
M24.384968,39.178028 
	C23.847397,38.344646 23.454281,37.497181 23.009108,36.302246 
	C22.957050,35.954777 22.979658,35.982910 23.181038,36.174202 
	C23.898138,36.911278 24.413858,37.457062 24.929579,38.002846 
	C24.915493,38.191853 24.901409,38.380856 24.852913,38.853691 
	C24.818499,39.137524 24.529425,39.163944 24.384968,39.178028 
z"/>
<path fill="#E67533" opacity="1.000000" stroke="none" 
	d="
M28.856743,38.860653 
	C29.003788,39.033844 28.977018,39.437927 28.961636,39.638966 
	C28.068569,39.716320 27.190887,39.592636 26.020515,39.290131 
	C25.937672,39.079643 26.147518,39.047981 26.864826,38.841179 
	C27.619419,38.474819 27.851980,38.267269 28.069975,38.043396 
	C28.292484,38.248878 28.505726,38.463566 28.856743,38.860653 
z"/>
<path fill="#DF601A" opacity="1.000000" stroke="none" 
	d="
M35.986950,39.024841 
	C35.980930,38.608624 35.974911,38.192406 36.297630,37.411877 
	C37.073692,37.019432 37.521023,36.991295 37.968353,36.963158 
	C38.226421,37.460663 38.484489,37.958168 38.866726,38.704525 
	C38.990894,38.953381 38.508175,38.990231 37.926502,38.999638 
	C36.892204,39.014309 36.439575,39.019577 35.986950,39.024841 
z"/>
<path fill="#D76224" opacity="1.000000" stroke="none" 
	d="
M35.984489,39.232342 
	C36.439575,39.019577 36.892204,39.014309 37.684673,39.010262 
	C37.825424,39.272068 37.603420,39.511406 37.170925,39.888023 
	C36.814419,40.017956 36.645496,39.989361 36.224663,39.907768 
	C35.972752,39.854771 35.982025,39.439842 35.984489,39.232342 
z"/>
<path fill="#EB7D1C" opacity="1.000000" stroke="none" 
	d="
M37.980377,36.969959 
	C37.521023,36.991295 37.073692,37.019432 36.293022,37.099716 
	C35.450966,37.347847 34.942245,37.543831 33.934570,37.805519 
	C32.949722,37.575592 32.463829,37.279961 32.047314,36.651272 
	C32.409203,35.227047 32.701717,34.135887 32.994236,33.044724 
	C33.457230,33.041443 33.920227,33.038162 34.949226,33.182064 
	C36.001160,33.562523 36.487080,33.795799 36.973003,34.029072 
	C36.973003,34.029072 36.993282,34.025986 37.134785,34.219307 
	C37.491432,34.643940 37.731030,34.846310 37.996483,35.019455 
	C37.997887,35.019184 37.993752,35.049366 37.994003,35.286114 
	C37.994259,35.522861 37.999096,35.996334 37.998055,36.246719 
	C37.997219,36.664032 37.997425,36.830956 37.997627,36.997879 
	C37.997627,36.997879 37.992397,36.976761 37.980377,36.969959 
z"/>
<path fill="#DF6716" opacity="1.000000" stroke="none" 
	d="
M32.602890,33.035637 
	C32.701717,34.135887 32.409203,35.227047 31.855299,36.591743 
	C31.078470,36.900082 30.563028,36.934895 30.047588,36.969704 
	C29.474474,36.492786 28.901360,36.015869 28.315462,35.082130 
	C28.536520,34.095703 28.770363,33.566105 29.004204,33.036503 
	C29.004204,33.036503 29.044708,32.988068 29.070004,32.966946 
	C30.134048,32.972733 31.172798,32.999641 32.602890,33.035637 
z"/>
<path fill="#DE721C" opacity="1.000000" stroke="none" 
	d="
M37.999096,35.996334 
	C37.999096,35.996334 37.994259,35.522861 38.171646,35.049965 
	C38.594822,34.042236 38.840614,33.507397 39.086403,32.972557 
	C39.495426,32.965057 39.904449,32.957554 40.618965,32.955978 
	C40.934483,33.132580 40.944515,33.303257 40.963631,33.730156 
	C40.703716,34.478664 40.434708,34.970959 40.102959,35.739098 
	C40.040215,36.014946 40.010792,36.019733 39.724964,36.017372 
	C39.256863,36.015522 39.074593,36.016026 38.669083,36.008686 
	C38.445835,36.000843 37.999096,35.996334 37.999096,35.996334 
z"/>
<path fill="#EF7231" opacity="1.000000" stroke="none" 
	d="
M38.877701,33.124931 
	C38.840614,33.507397 38.594822,34.042236 38.171391,34.813217 
	C37.993752,35.049366 37.997887,35.019184 37.986389,34.766430 
	C37.964649,34.345318 37.954411,34.176960 37.944168,34.008598 
	C38.185776,33.764835 38.427387,33.521072 38.877701,33.124931 
z"/>
<path fill="#DF601A" opacity="1.000000" stroke="none" 
	d="
M36.759510,33.860413 
	C36.487080,33.795799 36.001160,33.562523 35.296387,33.173241 
	C35.567028,33.242077 36.056522,33.466919 36.759510,33.860413 
z"/>
<path fill="#DF601A" opacity="1.000000" stroke="none" 
	d="
M37.703018,34.016083 
	C37.954411,34.176960 37.964649,34.345318 37.984985,34.766701 
	C37.731030,34.846310 37.491432,34.643940 37.128105,34.230087 
	C36.979927,34.047550 37.461864,34.023563 37.703018,34.016083 
z"/>
<path fill="#BD5E18" opacity="1.000000" stroke="none" 
	d="
M21.787182,35.914757 
	C21.541895,36.662758 21.032187,37.264297 20.246881,38.003498 
	C19.755564,37.881290 19.539846,37.621422 19.139397,37.188721 
	C18.969690,36.840031 18.984713,36.664169 19.188009,36.071342 
	C19.593901,35.440933 19.797478,35.214840 19.987013,34.976105 
	C19.987013,34.976105 19.939001,34.954967 19.931881,34.928402 
	C20.457428,35.190655 20.990095,35.479473 21.787182,35.914757 
z"/>
<path fill="#C5621F" opacity="1.000000" stroke="none" 
	d="
M14.291137,36.945015 
	C13.970841,36.195488 13.985442,35.459774 13.999939,34.354904 
	C14.518550,34.511787 15.037265,35.037819 15.758757,35.748947 
	C15.963913,36.108528 15.966293,36.283020 15.966306,36.719048 
	C15.517969,36.973331 15.072001,36.966076 14.291137,36.945015 
z"/>
<path fill="#B85311" opacity="1.000000" stroke="none" 
	d="
M19.804306,35.115234 
	C19.797478,35.214840 19.593901,35.440933 19.208168,35.807358 
	C19.204372,35.700687 19.398220,35.465366 19.804306,35.115234 
z"/>
<path fill="#DF601A" opacity="1.000000" stroke="none" 
	d="
M30.033199,37.304665 
	C30.563028,36.934895 31.078470,36.900082 31.785925,36.924805 
	C32.463829,37.279961 32.949722,37.575592 33.706757,37.959869 
	C32.875397,38.356037 31.772894,38.663551 30.317215,38.974487 
	C29.982298,38.531807 30.000555,38.085716 30.033199,37.304665 
z"/>
<path fill="#E6661F" opacity="1.000000" stroke="none" 
	d="
M25.025728,37.727730 
	C24.413858,37.457062 23.898138,36.911278 23.178370,36.168427 
	C22.968456,35.539608 22.962587,35.107861 22.951469,34.352436 
	C23.390682,34.017628 23.835144,34.006504 24.611530,33.985840 
	C25.002930,35.135067 25.062403,36.293839 25.025728,37.727730 
z"/>
<path fill="#D76E0D" opacity="1.000000" stroke="none" 
	d="
M26.064909,32.194176 
	C26.515636,32.209690 27.043333,32.431232 27.797867,32.830132 
	C27.397095,32.805061 26.769485,32.602634 26.064909,32.194176 
z"/>
<path fill="#D7720F" opacity="1.000000" stroke="none" 
	d="
M28.749508,33.017910 
	C28.770363,33.566105 28.536520,34.095703 28.133316,34.866325 
	C27.968760,34.635040 27.973568,34.162735 27.981335,33.337234 
	C28.154467,32.989136 28.324640,32.994225 28.749508,33.017910 
z"/>
<path fill="#E77C1F" opacity="1.000000" stroke="none" 
	d="
M27.876194,38.174805 
	C27.851980,38.267269 27.619419,38.474819 27.180191,38.797829 
	C27.203543,38.704006 27.434984,38.496204 27.876194,38.174805 
z"/>
<path fill="#EA5826" opacity="1.000000" stroke="none" 
	d="
M22.146248,33.186378 
	C22.235619,33.210056 22.461521,33.432049 22.834602,33.842651 
	C22.734058,33.832317 22.501057,33.616798 22.146248,33.186378 
z"/>
<path fill="#DF601A" opacity="1.000000" stroke="none" 
	d="
M37.998055,36.246719 
	C37.999096,35.996334 38.445835,36.000843 38.699631,36.252274 
	C38.953423,36.503704 38.994442,36.992989 38.994442,36.992989 
	C38.994442,36.992989 38.496647,36.999390 38.247139,36.998634 
	C37.997425,36.830956 37.997219,36.664032 37.998055,36.246719 
z"/>
<path fill="#EF7231" opacity="1.000000" stroke="none" 
	d="
M39.174057,36.847961 
	C38.994442,36.992989 38.953423,36.503704 38.922874,36.260117 
	C39.074593,36.016026 39.256863,36.015522 39.712227,36.023506 
	C39.796810,36.276402 39.586262,36.500046 39.174057,36.847961 
z"/>
</svg>